<?xml version="1.0" encoding="UTF-8"?>
<svg id="Layer_1" data-name="Layer 1" xmlns="http://www.w3.org/2000/svg" viewBox="0 0 52.4 15.2">
  <defs>
    <style>
      .cls-1 {
        fill: #231f20;
      }
    </style>
  </defs>
  <path class="cls-1" d="M9.59,8.31c0,.33-.27.6-.6.6s-.6-.27-.6-.6v-3.95l-1.8,1.04v1.71c0,.33-.27.6-.6.6s-.6-.27-.6-.6v-1.71l-1.8-1.04v3.95c0,.33-.27.6-.6.6s-.6-.27-.6-.6V3.33c0-.21.11-.41.3-.52.19-.11.41-.11.6,0l2.7,1.56,2.7-1.56c.19-.11.41-.11.6,0,.19.11.3.3.3.52v4.98Z"/>
  <path class="cls-1" d="M14.98,8.31c0,.33-.27.6-.6.6s-.6-.27-.6-.6v-3.95l-1.8,1.04v1.71c0,.33-.27.6-.6.6s-.6-.27-.6-.6v-2.06c0-.21.11-.41.3-.52l2.99-1.73c.19-.11.41-.11.6,0,.19.11.3.3.3.52v4.98Z"/>
  <path class="cls-1" d="M17.37,8.31c0,.33-.27.6-.6.6s-.6-.27-.6-.6V3.33c0-.33.27-.6.6-.6s.6.27.6.6v4.98Z"/>
  <path class="cls-1" d="M22.76,7.12c0,.33-.27.6-.6.6s-.6-.27-.6-.6v-2.75l-1.8,1.04v2.91c0,.33-.27.6-.6.6s-.6-.27-.6-.6v-3.25c0-.21.11-.41.3-.52l2.99-1.73c.19-.11.41-.11.6,0,.19.11.3.3.3.52v3.79Z"/>
  <path class="cls-1" d="M29.83,9.88c-.1,0-.21-.03-.3-.08l-2.99-1.73c-.18-.11-.3-.3-.3-.52v-3.47c0-.21.11-.41.3-.52l1.19-.69c.19-.11.41-.11.6,0l3,1.73c.19.11.3.3.3.52v1.39c0,.21-.11.41-.3.52l-1.2.69c-.19.11-.42.11-.6,0l-1.2-.69c-.18-.11-.3-.3-.3-.52v-.69c0-.33.27-.6.6-.6s.6.27.6.6v.35l.6.35.6-.35v-.7l-2.4-1.39-.59.34v2.78l2.39,1.39,2.39-1.39v-2.78l-1.19-.69c-.29-.17-.38-.53-.22-.82.17-.29.53-.38.82-.22l1.49.86c.18.11.3.3.3.52v3.47c0,.21-.11.41-.3.52l-2.99,1.73c-.09.05-.2.08-.3.08Z"/>
  <path class="cls-1" d="M29.83,2.94s-.08,0-.12-.01c-.04,0-.08-.02-.11-.03-.04-.02-.07-.03-.1-.05-.03-.02-.06-.05-.09-.07-.11-.11-.18-.27-.18-.42,0-.04,0-.08.01-.12,0-.04.02-.08.03-.11.01-.04.03-.07.05-.1.02-.03.05-.06.07-.09.03-.03.06-.05.09-.07.03-.02.07-.04.1-.05.04-.02.07-.03.11-.03.08-.02.16-.02.23,0,.04,0,.08.02.11.03.04.02.07.03.1.05.03.02.06.05.09.07.03.03.05.06.07.09.02.03.04.07.05.1s.03.07.03.11c0,.04.01.08.01.12,0,.16-.06.31-.18.42-.03.03-.06.05-.09.07-.03.02-.07.04-.1.05-.04.02-.07.03-.11.03-.04,0-.08.01-.12.01Z"/>
  <path class="cls-1" d="M36.3,6.81c-.18-.1-.32-.23-.42-.4-.1-.17-.15-.36-.15-.57s.05-.4.15-.57c.1-.17.24-.3.42-.4.18-.1.38-.14.6-.14.19,0,.35.03.5.1.15.07.28.16.38.28l-.32.29c-.15-.17-.33-.25-.54-.25-.13,0-.25.03-.36.09-.1.06-.19.14-.24.24-.06.1-.09.22-.09.36s.03.25.09.36c.06.1.14.19.24.24.1.06.22.09.36.09.21,0,.39-.08.54-.25l.32.29c-.1.12-.23.22-.38.29s-.32.1-.51.1c-.22,0-.42-.05-.59-.14Z"/>
  <path class="cls-1" d="M38.33,6.7c-.17-.17-.26-.41-.26-.73v-1.2h.5v1.18c0,.38.16.58.48.58.16,0,.27-.05.36-.14.08-.09.12-.24.12-.44v-1.18h.49v1.2c0,.31-.09.56-.26.73-.17.17-.41.25-.72.25s-.55-.08-.72-.25Z"/>
  <path class="cls-1" d="M40.51,4.77h.5v1.74h1.08v.4h-1.57v-2.15Z"/>
  <path class="cls-1" d="M42.61,5.18h-.69v-.4h1.87v.4h-.69v1.74h-.5v-1.74Z"/>
  <path class="cls-1" d="M44.26,6.7c-.17-.17-.26-.41-.26-.73v-1.2h.5v1.18c0,.38.16.58.48.58.16,0,.27-.05.36-.14.08-.09.12-.24.12-.44v-1.18h.49v1.2c0,.31-.09.56-.26.73-.17.17-.41.25-.72.25s-.55-.08-.72-.25Z"/>
  <path class="cls-1" d="M47.81,6.92l-.41-.6h-.46v.6h-.5v-2.15h.93c.19,0,.36.03.5.1.14.06.25.15.32.27.08.12.11.25.11.41s-.04.3-.12.41c-.08.12-.19.2-.33.27l.48.69h-.53ZM47.68,5.27c-.08-.06-.19-.1-.34-.1h-.4v.75h.4c.15,0,.26-.03.34-.1.08-.07.12-.16.12-.28s-.04-.21-.12-.28Z"/>
  <path class="cls-1" d="M50.11,6.46h-1l-.19.46h-.51l.96-2.15h.49l.96,2.15h-.52l-.19-.46ZM49.95,6.08l-.34-.82-.34.82h.68Z"/>
</svg>