<?xml version="1.0" encoding="UTF-8"?>
<svg id="Layer_1" data-name="Layer 1" xmlns="http://www.w3.org/2000/svg" viewBox="0 0 31.32 17.81">
  <defs>
    <style>
      .cls-1, .cls-2, .cls-3 {
        fill-rule: evenodd;
      }

      .cls-1, .cls-4 {
        fill: #fff;
      }

      .cls-2 {
        fill: #0f0f0e;
      }

      .cls-3, .cls-5 {
        fill: #211e1e;
      }
    </style>
  </defs>
  <path class="cls-1" d="M7.29,7.24s.1.05.16.07c.07.02.14.03.21.03.2,0,.39-.06.55-.19.16-.13.24-.34.24-.63,0-.31-.07-.55-.22-.69-.14-.15-.36-.22-.65-.22h-.3v1.64M6.79,5.6h-.48v-.08h1.38c.39,0,.7.07.93.22.23.15.35.39.35.72s-.12.56-.37.71c-.24.16-.53.24-.87.24-.19,0-.35-.03-.46-.08v1.53h.49v.08h-1.47v-.08h.48v-3.26Z"/>
  <path class="cls-1" d="M10.95,8.94c.26,0,.47-.09.61-.27.15-.18.24-.4.29-.65s.08-.51.08-.78-.02-.54-.07-.79c-.05-.25-.14-.46-.29-.64-.15-.18-.35-.27-.62-.27s-.47.09-.61.27c-.15.18-.24.4-.29.65-.05.25-.08.51-.08.78s.02.54.07.79c.05.25.14.46.29.64.15.18.35.27.62.27M10.95,5.45c.41,0,.77.17,1.07.52.31.35.46.77.46,1.26s-.15.91-.45,1.26c-.3.35-.66.52-1.08.52s-.77-.17-1.07-.52c-.31-.35-.46-.77-.46-1.26s.15-.91.45-1.26c.3-.35.66-.52,1.08-.52Z"/>
  <path class="cls-1" d="M13.8,7.15h.24c.3,0,.53-.06.68-.18.15-.12.23-.31.23-.59,0-.23-.06-.42-.17-.57-.12-.14-.33-.22-.65-.22h-.33v1.55M13.31,5.6h-.49v-.08h1.49c.35,0,.63.06.84.18.22.12.32.35.32.68,0,.26-.11.45-.32.57-.21.12-.45.19-.72.22.31.03.53.1.67.21.14.11.22.31.26.61l.07.59c.02.12.05.2.09.25.05.04.1.06.16.06.05,0,.12-.02.2-.05l.03.06c-.05.02-.11.03-.17.05-.06.01-.14.02-.23.02-.27,0-.44-.06-.52-.19-.08-.12-.14-.35-.18-.69l-.03-.29c-.02-.19-.07-.33-.16-.43-.09-.1-.26-.15-.51-.15h-.32v1.64h.49v.08h-1.47v-.08h.49v-3.26Z"/>
  <path class="cls-4" d="M17.32,5.6h-.1c-.44,0-.73.06-.86.17-.13.11-.2.36-.2.76h-.08v-1h2.97v1h-.08c0-.39-.07-.64-.2-.76-.13-.11-.42-.17-.85-.17h-.11v3.26h.5v.08h-1.49v-.08h.5v-3.26"/>
  <path class="cls-1" d="M20.94,8.94c.26,0,.47-.09.61-.27.15-.18.24-.4.29-.65.05-.25.08-.51.08-.78s-.02-.54-.07-.79c-.05-.25-.14-.46-.29-.64-.15-.18-.35-.27-.62-.27s-.47.09-.61.27c-.15.18-.24.4-.29.65-.05.25-.08.51-.08.78s.02.54.07.79c.05.25.14.46.29.64.15.18.35.27.62.27M20.94,5.45c.41,0,.77.17,1.07.52.31.35.46.77.46,1.26s-.15.91-.45,1.26c-.3.35-.66.52-1.08.52s-.77-.17-1.08-.52c-.31-.35-.46-.77-.46-1.26s.15-.91.45-1.26c.3-.35.66-.52,1.08-.52Z"/>
  <path class="cls-4" d="M4.67,8.3c.1,0,.18.03.24.1.07.07.1.15.1.24s-.03.18-.1.24-.15.1-.24.1-.18-.03-.24-.1c-.07-.07-.1-.15-.1-.24s.03-.18.1-.24c.07-.07.15-.1.24-.1ZM.79,5.52h1.53v.09h-.39v2.13c0,.36.06.63.18.81.12.19.34.31.67.28.26-.02.41-.08.57-.25.17-.17.25-.41.25-.73v-1.84c0-.15-.02-.25-.07-.31-.05-.06-.08-.09-.21-.09h-.14v-.09h.96v.09h-.13c-.09,0-.15.03-.19.1-.04.07-.06.17-.06.31v1.81c0,.37-.11.66-.32.87-.21.21-.53.31-.96.31-.4,0-.72-.11-.95-.32-.24-.21-.36-.51-.36-.88v-2.19h-.38v-.09ZM0,4.69v5.09h5.84v-5.09H0Z"/>
  <path class="cls-4" d="M7.67,13.37v-.75h-.14v.71c0,.14-.01.18-.07.24-.06.06-.14.1-.24.1s-.18-.03-.24-.1c-.06-.06-.07-.1-.07-.24v-.71h-.14v.75c0,.15.04.24.13.32.08.07.19.11.32.11s.23-.04.31-.11c.1-.08.13-.17.13-.32"/>
  <path class="cls-4" d="M8.96,13.77v-1.15h-.14v.97s0-.01,0-.02c-.01-.03-.01-.03-.02-.05,0-.01-.01-.02-.02-.03l-.57-.87h-.19v1.14h.14v-.99s.01.03.02.04c0,0,0,.01.01.03,0,.02.02.03.02.04l.58.89h.16"/>
  <rect class="cls-4" x="9.32" y="12.61" width=".14" height="1.14"/>
  <path class="cls-4" d="M10.65,12.61h-.14l-.33.89s-.01.03-.01.06c0-.02,0-.04-.01-.06l-.34-.89h-.15l.45,1.17h.09l.44-1.17"/>
  <polyline class="cls-4" points="11.51 13.76 11.51 13.64 10.99 13.64 10.99 13.23 11.4 13.23 11.4 13.11 10.99 13.11 10.99 12.73 11.49 12.73 11.49 12.61 10.85 12.61 10.85 13.76 11.51 13.76"/>
  <path class="cls-1" d="M12.27,12.92c0,.15-.08.22-.23.22h-.19v-.41h.19c.1,0,.13,0,.17.03.04.03.06.08.06.16M12.49,13.76l-.34-.51c.08-.02.13-.04.17-.09.06-.06.1-.15.1-.24s-.03-.17-.09-.22c-.07-.06-.13-.09-.27-.09h-.35v1.14h.14v-.49h.15l.32.49h.16Z"/>
  <path class="cls-4" d="M13.39,12.69c-.06-.04-.09-.05-.14-.07-.06-.02-.13-.03-.19-.03-.23,0-.38.12-.38.3,0,.12.07.21.24.3.11.06.17.09.19.1.04.03.08.06.1.09.01.02.02.05.02.08,0,.11-.08.17-.22.17-.06,0-.11-.01-.16-.03-.04-.02-.07-.03-.13-.07l-.07.11c.07.05.1.07.15.08.06.02.13.04.21.04.23,0,.38-.12.38-.32,0-.08-.03-.16-.09-.21-.04-.04-.1-.07-.18-.12-.23-.12-.28-.17-.28-.25,0-.1.09-.16.22-.16.05,0,.11.01.16.02.04.01.06.02.12.06l.07-.12"/>
  <rect class="cls-4" x="13.67" y="12.61" width=".14" height="1.14"/>
  <path class="cls-1" d="M14.94,13.18c0,.12-.06.27-.14.36-.07.07-.16.1-.31.1h-.22v-.9h.22c.26,0,.45.19.45.45M15.09,13.18c0-.33-.24-.57-.58-.57h-.38v1.14h.38c.2,0,.32-.05.42-.17.1-.11.15-.26.15-.41Z"/>
  <path class="cls-1" d="M15.9,13.29h-.37l.19-.52.19.52M16.21,13.76l-.42-1.18h-.15l-.43,1.18h.15l.12-.34h.46l.12.34h.15Z"/>
  <path class="cls-1" d="M17.23,13.18c0,.12-.06.27-.14.36-.07.07-.16.1-.31.1h-.22v-.9h.22c.26,0,.45.19.45.45M17.38,13.18c0-.33-.24-.57-.58-.57h-.38v1.14h.38c.2,0,.32-.05.42-.17.1-.11.15-.26.15-.41Z"/>
  <polyline class="cls-4" points="18.26 13.76 18.26 13.64 17.75 13.64 17.75 13.23 18.16 13.23 18.16 13.11 17.75 13.11 17.75 12.73 18.25 12.73 18.25 12.61 17.61 12.61 17.61 13.76 18.26 13.76"/>
  <path class="cls-1" d="M19.75,13.18c0,.12-.06.27-.14.36-.07.07-.16.1-.31.1h-.22v-.9h.22c.26,0,.45.19.45.45M19.9,13.18c0-.33-.24-.57-.58-.57h-.38v1.14h.38c.2,0,.32-.05.42-.17.1-.11.15-.26.15-.41Z"/>
  <path class="cls-1" d="M21.04,13.19c0,.26-.19.47-.42.47s-.42-.21-.42-.47.19-.47.42-.47.42.21.42.47M21.2,13.19c0-.34-.24-.59-.57-.59s-.58.25-.58.59.24.59.58.59.57-.25.57-.59Z"/>
  <path class="cls-1" d="M22.45,12.96c0,.11-.05.2-.14.23-.04.02-.09.02-.15.02-.04,0-.07,0-.15-.01v-.47h.2c.09,0,.14.01.18.05.04.04.06.1.06.18M22.6,12.95c0-.11-.03-.19-.09-.25-.06-.07-.14-.09-.28-.09h-.36v1.14h.14v-.43c.1.01.13.01.18.01.25,0,.41-.15.41-.39Z"/>
  <path class="cls-1" d="M23.7,13.19c0,.26-.19.47-.42.47s-.42-.21-.42-.47.19-.47.42-.47.42.21.42.47M23.85,13.19c0-.34-.24-.59-.57-.59s-.58.25-.58.59.24.59.58.59.57-.25.57-.59Z"/>
  <path class="cls-1" d="M24.72,12.92c0,.15-.08.22-.23.22h-.19v-.41h.19c.1,0,.13,0,.17.03.04.03.06.08.06.16M24.94,13.76l-.34-.51c.08-.02.13-.04.17-.09.06-.06.1-.15.1-.24s-.03-.17-.09-.22c-.07-.06-.13-.09-.27-.09h-.35v1.14h.14v-.49h.15l.32.49h.16Z"/>
  <polyline class="cls-4" points="25.9 12.73 25.9 12.61 25 12.61 25 12.73 25.38 12.73 25.38 13.76 25.52 13.76 25.52 12.73 25.9 12.73"/>
  <path class="cls-1" d="M26.95,13.19c0,.26-.19.47-.42.47s-.42-.21-.42-.47.19-.47.42-.47.42.21.42.47M27.1,13.19c0-.34-.24-.59-.57-.59s-.58.25-.58.59.24.59.58.59.57-.25.57-.59Z"/>
  <polyline class="cls-4" points="7.49 10.81 7.49 10.62 6.78 10.62 6.78 11.77 7 11.77 7 11.29 7.4 11.29 7.4 11.1 7 11.1 7 10.81 7.49 10.81"/>
  <path class="cls-1" d="M8.17,11.3h-.26l.13-.41.13.41M8.55,11.77l-.41-1.14h-.2l-.41,1.14h.23l.09-.28h.38l.09.28h.23Z"/>
  <path class="cls-4" d="M9.56,10.71c-.1-.07-.21-.11-.36-.11-.19,0-.32.05-.43.16-.11.11-.17.26-.17.43,0,.18.07.35.19.46.11.1.24.14.41.14.07,0,.13,0,.18-.02.05-.01.08-.02.15-.06l-.04-.18c-.1.04-.17.05-.25.05-.25,0-.41-.16-.41-.41,0-.22.16-.37.38-.37.1,0,.19.03.26.08l.08-.17"/>
  <path class="cls-4" d="M10.69,11.32v-.7h-.22v.71c0,.16-.09.25-.25.25-.18,0-.27-.08-.27-.25v-.71h-.22v.7c0,.21.04.3.16.39.09.06.18.08.32.08s.24-.03.32-.08c.12-.08.16-.18.16-.39"/>
  <polyline class="cls-4" points="11.66 11.77 11.66 11.58 11.19 11.58 11.19 10.62 10.97 10.62 10.97 11.77 11.66 11.77"/>
  <path class="cls-1" d="M12.63,11.19c0,.24-.15.38-.41.38h-.17v-.76h.17c.12,0,.21.02.27.07.08.06.13.18.13.31M12.86,11.19c0-.15-.06-.29-.15-.4-.11-.12-.25-.17-.46-.17h-.42v1.14h.42c.21,0,.36-.06.46-.17.1-.11.16-.25.16-.41Z"/>
  <path class="cls-1" d="M13.55,11.3h-.26l.13-.41.13.41M13.93,11.77l-.41-1.14h-.2l-.41,1.14h.23l.09-.28h.38l.09.28h.23Z"/>
  <path class="cls-1" d="M14.89,11.19c0,.24-.15.38-.41.38h-.17v-.76h.17c.12,0,.21.02.27.07.08.06.13.18.13.31M15.12,11.19c0-.15-.06-.29-.15-.4-.11-.12-.25-.17-.46-.17h-.42v1.14h.42c.21,0,.36-.06.46-.17.1-.11.16-.25.16-.41Z"/>
  <polyline class="cls-4" points="16.04 11.77 16.04 11.58 15.54 11.58 15.54 11.28 15.93 11.28 15.93 11.09 15.54 11.09 15.54 10.81 16.02 10.81 16.02 10.62 15.32 10.62 15.32 11.77 16.04 11.77"/>
  <path class="cls-1" d="M17.49,11.19c0,.24-.15.38-.41.38h-.17v-.76h.17c.12,0,.21.02.27.07.08.06.13.18.13.31M17.72,11.19c0-.15-.06-.29-.15-.4-.11-.12-.25-.17-.46-.17h-.42v1.14h.42c.21,0,.36-.06.46-.17.1-.11.16-.25.16-.41Z"/>
  <polyline class="cls-4" points="18.64 11.77 18.64 11.58 18.14 11.58 18.14 11.28 18.53 11.28 18.53 11.09 18.14 11.09 18.14 10.81 18.62 10.81 18.62 10.62 17.92 10.62 17.92 11.77 18.64 11.77"/>
  <path class="cls-1" d="M19.78,11.3h-.26l.13-.41.13.41M20.16,11.77l-.41-1.14h-.2l-.41,1.14h.23l.09-.28h.38l.09.28h.23Z"/>
  <path class="cls-1" d="M20.88,10.96c0,.11-.06.16-.2.16h-.14v-.32h.14c.14,0,.2.04.2.15M21.14,11.77l-.28-.49c.1-.03.13-.05.18-.11.04-.06.06-.13.06-.21,0-.11-.03-.19-.09-.25-.07-.06-.14-.09-.31-.09h-.38s0,1.14,0,1.14h.22v-.46h.11l.26.46h.24Z"/>
  <path class="cls-4" d="M23.58,11.32v-.7h-.22v.71c0,.16-.09.25-.25.25-.18,0-.27-.08-.27-.25v-.71h-.22v.7c0,.21.04.3.16.39.09.06.18.08.32.08s.24-.03.32-.08c.12-.08.16-.18.16-.39"/>
  <rect class="cls-4" x="23.86" y="10.62" width=".22" height="1.14"/>
  <polyline class="cls-4" points="25.14 10.81 25.14 10.62 24.24 10.62 24.24 10.81 24.58 10.81 24.58 11.77 24.8 11.77 24.8 10.81 25.14 10.81"/>
  <polyline class="cls-4" points="26.03 11.77 26.03 11.58 25.53 11.58 25.53 11.28 25.92 11.28 25.92 11.09 25.53 11.09 25.53 10.81 26.01 10.81 26.01 10.62 25.31 10.62 25.31 11.77 26.03 11.77"/>
  <path class="cls-4" d="M27.1,10.71c-.1-.07-.21-.11-.36-.11-.19,0-.32.05-.43.16-.11.11-.17.26-.17.43,0,.18.07.35.19.46.11.1.24.14.41.14.07,0,.13,0,.18-.02.05-.01.08-.02.15-.06l-.04-.18c-.1.04-.17.05-.25.05-.25,0-.41-.16-.41-.41,0-.22.16-.37.38-.37.1,0,.19.03.26.08l.08-.17"/>
  <polyline class="cls-4" points="28.06 10.81 28.06 10.62 27.15 10.62 27.15 10.81 27.5 10.81 27.5 11.77 27.72 11.77 27.72 10.81 28.06 10.81"/>
  <path class="cls-4" d="M29.16,11.32v-.7h-.22v.71c0,.16-.09.25-.25.25-.18,0-.27-.08-.27-.25v-.71h-.22v.7c0,.21.04.3.16.39.09.06.18.08.32.08s.24-.03.32-.08c.12-.08.16-.18.16-.39"/>
  <path class="cls-1" d="M30,10.96c0,.11-.06.16-.2.16h-.14v-.32h.14c.14,0,.2.04.2.15M30.27,11.77l-.28-.49c.1-.03.14-.05.18-.11.04-.06.06-.13.06-.21,0-.11-.03-.19-.09-.25-.07-.06-.14-.09-.31-.09h-.38v1.14h.22v-.46h.11l.26.46h.24Z"/>
  <path class="cls-1" d="M30.95,11.3h-.27l.13-.41.13.41M31.32,11.77l-.41-1.14h-.2l-.41,1.14h.23l.09-.28h.38l.09.28h.23Z"/>
  <path class="cls-1" d="M22.26,11.21c0,.23-.16.4-.37.4s-.38-.17-.38-.4.16-.4.38-.4.37.17.37.4M22.49,11.21c0-.35-.25-.59-.61-.59s-.61.24-.61.59c0,.26.15.48.37.56.04.01.07.02.14.02.03.05.05.07.09.12.03.03.06.06.1.1.07.07.11.1.21.17l.19-.16c-.07-.04-.1-.05-.14-.08-.03-.02-.06-.05-.08-.07-.03-.03-.04-.05-.06-.09.12-.04.17-.07.25-.15.11-.11.16-.26.16-.42Z"/>
  <path class="cls-1" d="M2.92,10.62c1.41,0,2.55,1.14,2.55,2.55s-1.14,2.54-2.55,2.54S.38,14.57.38,13.17s1.14-2.55,2.54-2.55M1.73,11.01c0,.06,0,.12,0,.19-.02.05,0,.11-.01.15.03.04-.04.1.02.13h.25c.08.12-.05.06-.09.1-.03,0-.04.03-.06.05,0,.05.03.09.04.14.11.17.23.33.34.49.2.24.39.49.61.72.08.12.19.19.28.31-.01.06.07.03.07.08,0,.06.06.03.08.07-.01.06.06.05.08.09-.02.07.09.06.08.13.08.03.15.09.21.15.1.14.17.32.17.49,0,.03,0,.06,0,.08,0,.11-.02.25,0,.35,0,.03-.03.06,0,.08.08.02.14-.02.21.02,0,.07,0,.12,0,.19-.08.03-.14.01-.21.03,0,.12,0,.27,0,.41.92-.36,1.57-1.25,1.57-2.3,0-1.36-1.1-2.46-2.46-2.46-.43,0-.84.11-1.19.31ZM3.41,15.58c0-.16.01-.37,0-.53.02-.03-.02-.07.01-.09.06-.02.14,0,.21-.02-.04-.02-.09,0-.13-.01-.03-.01-.05-.04-.08-.07-.02-.24,0-.46-.02-.69,0-.04-.01-.07-.02-.11,0-.13-.09-.25-.14-.37.02-.06-.01-.07-.04-.07-.05-.02.01-.04,0-.07-.03-.05-.07.02-.1-.03.04-.1-.05-.04-.07-.09.05-.11-.05-.05-.09-.09l-.03-.12s-.08-.1-.13-.14c-.21-.25-.4-.48-.61-.73-.08-.12-.17-.22-.25-.35-.05-.06-.07-.14-.13-.19-.03-.07-.11-.16-.05-.24-.05-.04-.15.01-.15-.07,0-.04.02-.08,0-.12.02-.1,0-.22,0-.34-.7.43-1.16,1.21-1.16,2.09,0,1.36,1.1,2.46,2.46,2.46.17,0,.33-.02.49-.05ZM3.46,15.57c0-.19-.02-.4,0-.57.05-.04.11,0,.17-.01.02,0,.05-.01.07.01,0,.06,0,.13,0,.19.02.03,0,.08,0,.12-.02.06.03.15-.02.21l-.21.06ZM3.69,14.54c0,.08,0,.16,0,.24-.01.02.02.05-.01.07-.08-.01-.16,0-.23,0-.01-.3.05-.64-.08-.93,0-.06-.05-.09-.06-.14.08-.02.13.05.19.08.07.09.16.21.16.34.03.09.01.18.03.28-.02.03,0,.05,0,.08ZM3.72,14.9c-.07,0-.17,0-.23,0,.08-.01.15-.01.23,0h0ZM3.72,14.95c.09,0,.14-.03.19,0-.05.03-.13,0-.19,0Z"/>
  <path class="cls-3" d="M7.29,7.24s.1.05.16.07c.07.02.14.03.21.03.2,0,.39-.06.55-.19.16-.13.24-.34.24-.63,0-.31-.07-.55-.22-.69-.14-.15-.36-.22-.65-.22h-.3v1.64M6.79,5.6h-.48v-.08h1.38c.39,0,.7.07.93.22.23.15.35.39.35.72s-.12.56-.37.71c-.24.16-.53.24-.87.24-.19,0-.35-.03-.46-.08v1.53h.49v.08h-1.47v-.08h.48v-3.26Z"/>
  <path class="cls-3" d="M10.95,8.94c.26,0,.47-.09.61-.27.15-.18.24-.4.29-.65s.08-.51.08-.78-.02-.54-.07-.79c-.05-.25-.14-.46-.29-.64-.15-.18-.35-.27-.62-.27s-.47.09-.61.27c-.15.18-.24.4-.29.65-.05.25-.08.51-.08.78s.02.54.07.79c.05.25.14.46.29.64.15.18.35.27.62.27M10.95,5.45c.41,0,.77.17,1.07.52.31.35.46.77.46,1.26s-.15.91-.45,1.26c-.3.35-.66.52-1.08.52s-.77-.17-1.07-.52c-.31-.35-.46-.77-.46-1.26s.15-.91.45-1.26c.3-.35.66-.52,1.08-.52Z"/>
  <path class="cls-3" d="M13.8,7.15h.24c.3,0,.53-.06.68-.18.15-.12.23-.31.23-.59,0-.23-.06-.42-.17-.57-.12-.14-.33-.22-.65-.22h-.33v1.55M13.31,5.6h-.49v-.08h1.49c.35,0,.63.06.84.18.22.12.32.35.32.68,0,.26-.11.45-.32.57-.21.12-.45.19-.72.22.31.03.53.1.67.21.14.11.22.31.26.61l.07.59c.02.12.05.2.09.25.05.04.1.06.16.06.05,0,.12-.02.2-.05l.03.06c-.05.02-.11.03-.17.05-.06.01-.14.02-.23.02-.27,0-.44-.06-.52-.19-.08-.12-.14-.35-.18-.69l-.03-.29c-.02-.19-.07-.33-.16-.43-.09-.1-.26-.15-.51-.15h-.32v1.64h.49v.08h-1.47v-.08h.49v-3.26Z"/>
  <path class="cls-5" d="M17.32,5.6h-.1c-.44,0-.73.06-.86.17-.13.11-.2.36-.2.76h-.08v-1h2.97v1h-.08c0-.39-.07-.64-.2-.76-.13-.11-.42-.17-.85-.17h-.11v3.26h.5v.08h-1.49v-.08h.5v-3.26"/>
  <path class="cls-3" d="M20.94,8.94c.26,0,.47-.09.61-.27.15-.18.24-.4.29-.65.05-.25.08-.51.08-.78s-.02-.54-.07-.79c-.05-.25-.14-.46-.29-.64-.15-.18-.35-.27-.62-.27s-.47.09-.61.27c-.15.18-.24.4-.29.65-.05.25-.08.51-.08.78s.02.54.07.79c.05.25.14.46.29.64.15.18.35.27.62.27M20.94,5.45c.41,0,.77.17,1.07.52.31.35.46.77.46,1.26s-.15.91-.45,1.26c-.3.35-.66.52-1.08.52s-.77-.17-1.08-.52c-.31-.35-.46-.77-.46-1.26s.15-.91.45-1.26c.3-.35.66-.52,1.08-.52Z"/>
  <path class="cls-5" d="M4.67,8.3c.1,0,.18.03.24.1.07.07.1.15.1.24s-.03.18-.1.24-.15.1-.24.1-.18-.03-.24-.1c-.07-.07-.1-.15-.1-.24s.03-.18.1-.24c.07-.07.15-.1.24-.1ZM.79,5.52h1.53v.09h-.39v2.13c0,.36.06.63.18.81.12.19.34.31.67.28.26-.02.41-.08.57-.25.17-.17.25-.41.25-.73v-1.84c0-.15-.02-.25-.07-.31-.05-.06-.08-.09-.21-.09h-.14v-.09h.96v.09h-.13c-.09,0-.15.03-.19.1-.04.07-.06.17-.06.31v1.81c0,.37-.11.66-.32.87-.21.21-.53.31-.96.31-.4,0-.72-.11-.95-.32-.24-.21-.36-.51-.36-.88v-2.19h-.38v-.09ZM0,4.69v5.09h5.84v-5.09H0Z"/>
  <path class="cls-5" d="M7.67,13.37v-.75h-.14v.71c0,.14-.01.18-.07.24-.06.06-.14.1-.24.1s-.18-.03-.24-.1c-.06-.06-.07-.1-.07-.24v-.71h-.14v.75c0,.15.04.24.13.32.08.07.19.11.32.11s.23-.04.31-.11c.1-.08.13-.17.13-.32"/>
  <path class="cls-5" d="M8.96,13.77v-1.15h-.14v.97s0-.01,0-.02c-.01-.03-.01-.03-.02-.05,0-.01-.01-.02-.02-.03l-.57-.87h-.19v1.14h.14v-.99s.01.03.02.04c0,0,0,.01.01.03,0,.02.02.03.02.04l.58.89h.16"/>
  <rect class="cls-5" x="9.32" y="12.61" width=".14" height="1.14"/>
  <path class="cls-5" d="M10.65,12.61h-.14l-.33.89s-.01.03-.01.06c0-.02,0-.04-.01-.06l-.34-.89h-.15l.45,1.17h.09l.44-1.17"/>
  <polyline class="cls-5" points="11.51 13.76 11.51 13.64 10.99 13.64 10.99 13.23 11.4 13.23 11.4 13.11 10.99 13.11 10.99 12.73 11.49 12.73 11.49 12.61 10.85 12.61 10.85 13.76 11.51 13.76"/>
  <path class="cls-3" d="M12.27,12.92c0,.15-.08.22-.23.22h-.19v-.41h.19c.1,0,.13,0,.17.03.04.03.06.08.06.16M12.49,13.76l-.34-.51c.08-.02.13-.04.17-.09.06-.06.1-.15.1-.24s-.03-.17-.09-.22c-.07-.06-.13-.09-.27-.09h-.35v1.14h.14v-.49h.15l.32.49h.16Z"/>
  <path class="cls-5" d="M13.39,12.69c-.06-.04-.09-.05-.14-.07-.06-.02-.13-.03-.19-.03-.23,0-.38.12-.38.3,0,.12.07.21.24.3.11.06.17.09.19.1.04.03.08.06.1.09.01.02.02.05.02.08,0,.11-.08.17-.22.17-.06,0-.11-.01-.16-.03-.04-.02-.07-.03-.13-.07l-.07.11c.07.05.1.07.15.08.06.02.13.04.21.04.23,0,.38-.12.38-.32,0-.08-.03-.16-.09-.21-.04-.04-.1-.07-.18-.12-.23-.12-.28-.17-.28-.25,0-.1.09-.16.22-.16.05,0,.11.01.16.02.04.01.06.02.12.06l.07-.12"/>
  <rect class="cls-5" x="13.67" y="12.61" width=".14" height="1.14"/>
  <path class="cls-3" d="M14.94,13.18c0,.12-.06.27-.14.36-.07.07-.16.1-.31.1h-.22v-.9h.22c.26,0,.45.19.45.45M15.09,13.18c0-.33-.24-.57-.58-.57h-.38v1.14h.38c.2,0,.32-.05.42-.17.1-.11.15-.26.15-.41Z"/>
  <path class="cls-3" d="M15.9,13.29h-.37l.19-.52.19.52M16.21,13.76l-.42-1.18h-.15l-.43,1.18h.15l.12-.34h.46l.12.34h.15Z"/>
  <path class="cls-3" d="M17.23,13.18c0,.12-.06.27-.14.36-.07.07-.16.1-.31.1h-.22v-.9h.22c.26,0,.45.19.45.45M17.38,13.18c0-.33-.24-.57-.58-.57h-.38v1.14h.38c.2,0,.32-.05.42-.17.1-.11.15-.26.15-.41Z"/>
  <polyline class="cls-5" points="18.26 13.76 18.26 13.64 17.75 13.64 17.75 13.23 18.16 13.23 18.16 13.11 17.75 13.11 17.75 12.73 18.25 12.73 18.25 12.61 17.61 12.61 17.61 13.76 18.26 13.76"/>
  <path class="cls-3" d="M19.75,13.18c0,.12-.06.27-.14.36-.07.07-.16.1-.31.1h-.22v-.9h.22c.26,0,.45.19.45.45M19.9,13.18c0-.33-.24-.57-.58-.57h-.38v1.14h.38c.2,0,.32-.05.42-.17.1-.11.15-.26.15-.41Z"/>
  <path class="cls-3" d="M21.04,13.19c0,.26-.19.47-.42.47s-.42-.21-.42-.47.19-.47.42-.47.42.21.42.47M21.2,13.19c0-.34-.24-.59-.57-.59s-.58.25-.58.59.24.59.58.59.57-.25.57-.59Z"/>
  <path class="cls-3" d="M22.45,12.96c0,.11-.05.2-.14.23-.04.02-.09.02-.15.02-.04,0-.07,0-.15-.01v-.47h.2c.09,0,.14.01.18.05.04.04.06.1.06.18M22.6,12.95c0-.11-.03-.19-.09-.25-.06-.07-.14-.09-.28-.09h-.36v1.14h.14v-.43c.1.01.13.01.18.01.25,0,.41-.15.41-.39Z"/>
  <path class="cls-3" d="M23.7,13.19c0,.26-.19.47-.42.47s-.42-.21-.42-.47.19-.47.42-.47.42.21.42.47M23.85,13.19c0-.34-.24-.59-.57-.59s-.58.25-.58.59.24.59.58.59.57-.25.57-.59Z"/>
  <path class="cls-3" d="M24.72,12.92c0,.15-.08.22-.23.22h-.19v-.41h.19c.1,0,.13,0,.17.03.04.03.06.08.06.16M24.94,13.76l-.34-.51c.08-.02.13-.04.17-.09.06-.06.1-.15.1-.24s-.03-.17-.09-.22c-.07-.06-.13-.09-.27-.09h-.35v1.14h.14v-.49h.15l.32.49h.16Z"/>
  <polyline class="cls-5" points="25.9 12.73 25.9 12.61 25 12.61 25 12.73 25.38 12.73 25.38 13.76 25.52 13.76 25.52 12.73 25.9 12.73"/>
  <path class="cls-3" d="M26.95,13.19c0,.26-.19.47-.42.47s-.42-.21-.42-.47.19-.47.42-.47.42.21.42.47M27.1,13.19c0-.34-.24-.59-.57-.59s-.58.25-.58.59.24.59.58.59.57-.25.57-.59Z"/>
  <polyline class="cls-5" points="7.49 10.81 7.49 10.62 6.78 10.62 6.78 11.77 7 11.77 7 11.29 7.4 11.29 7.4 11.1 7 11.1 7 10.81 7.49 10.81"/>
  <path class="cls-3" d="M8.17,11.3h-.26l.13-.41.13.41M8.55,11.77l-.41-1.14h-.2l-.41,1.14h.23l.09-.28h.38l.09.28h.23Z"/>
  <path class="cls-5" d="M9.56,10.71c-.1-.07-.21-.11-.36-.11-.19,0-.32.05-.43.16-.11.11-.17.26-.17.43,0,.18.07.35.19.46.11.1.24.14.41.14.07,0,.13,0,.18-.02.05-.01.08-.02.15-.06l-.04-.18c-.1.04-.17.05-.25.05-.25,0-.41-.16-.41-.41,0-.22.16-.37.38-.37.1,0,.19.03.26.08l.08-.17"/>
  <path class="cls-5" d="M10.69,11.32v-.7h-.22v.71c0,.16-.09.25-.25.25-.18,0-.27-.08-.27-.25v-.71h-.22v.7c0,.21.04.3.16.39.09.06.18.08.32.08s.24-.03.32-.08c.12-.08.16-.18.16-.39"/>
  <polyline class="cls-5" points="11.66 11.77 11.66 11.58 11.19 11.58 11.19 10.62 10.97 10.62 10.97 11.77 11.66 11.77"/>
  <path class="cls-3" d="M12.63,11.19c0,.24-.15.38-.41.38h-.17v-.76h.17c.12,0,.21.02.27.07.08.06.13.18.13.31M12.86,11.19c0-.15-.06-.29-.15-.4-.11-.12-.25-.17-.46-.17h-.42v1.14h.42c.21,0,.36-.06.46-.17.1-.11.16-.25.16-.41Z"/>
  <path class="cls-3" d="M13.55,11.3h-.26l.13-.41.13.41M13.93,11.77l-.41-1.14h-.2l-.41,1.14h.23l.09-.28h.38l.09.28h.23Z"/>
  <path class="cls-3" d="M14.89,11.19c0,.24-.15.38-.41.38h-.17v-.76h.17c.12,0,.21.02.27.07.08.06.13.18.13.31M15.12,11.19c0-.15-.06-.29-.15-.4-.11-.12-.25-.17-.46-.17h-.42v1.14h.42c.21,0,.36-.06.46-.17.1-.11.16-.25.16-.41Z"/>
  <polyline class="cls-5" points="16.04 11.77 16.04 11.58 15.54 11.58 15.54 11.28 15.93 11.28 15.93 11.09 15.54 11.09 15.54 10.81 16.02 10.81 16.02 10.62 15.32 10.62 15.32 11.77 16.04 11.77"/>
  <path class="cls-3" d="M17.49,11.19c0,.24-.15.38-.41.38h-.17v-.76h.17c.12,0,.21.02.27.07.08.06.13.18.13.31M17.72,11.19c0-.15-.06-.29-.15-.4-.11-.12-.25-.17-.46-.17h-.42v1.14h.42c.21,0,.36-.06.46-.17.1-.11.16-.25.16-.41Z"/>
  <polyline class="cls-5" points="18.64 11.77 18.64 11.58 18.14 11.58 18.14 11.28 18.53 11.28 18.53 11.09 18.14 11.09 18.14 10.81 18.62 10.81 18.62 10.62 17.92 10.62 17.92 11.77 18.64 11.77"/>
  <path class="cls-3" d="M19.78,11.3h-.26l.13-.41.13.41M20.16,11.77l-.41-1.14h-.2l-.41,1.14h.23l.09-.28h.38l.09.28h.23Z"/>
  <path class="cls-3" d="M20.88,10.96c0,.11-.06.16-.2.16h-.14v-.32h.14c.14,0,.2.04.2.15M21.14,11.77l-.28-.49c.1-.03.13-.05.18-.11.04-.06.06-.13.06-.21,0-.11-.03-.19-.09-.25-.07-.06-.14-.09-.31-.09h-.38s0,1.14,0,1.14h.22v-.46h.11l.26.46h.24Z"/>
  <path class="cls-5" d="M23.58,11.32v-.7h-.22v.71c0,.16-.09.25-.25.25-.18,0-.27-.08-.27-.25v-.71h-.22v.7c0,.21.04.3.16.39.09.06.18.08.32.08s.24-.03.32-.08c.12-.08.16-.18.16-.39"/>
  <rect class="cls-5" x="23.86" y="10.62" width=".22" height="1.14"/>
  <polyline class="cls-5" points="25.14 10.81 25.14 10.62 24.24 10.62 24.24 10.81 24.58 10.81 24.58 11.77 24.8 11.77 24.8 10.81 25.14 10.81"/>
  <polyline class="cls-5" points="26.03 11.77 26.03 11.58 25.53 11.58 25.53 11.28 25.92 11.28 25.92 11.09 25.53 11.09 25.53 10.81 26.01 10.81 26.01 10.62 25.31 10.62 25.31 11.77 26.03 11.77"/>
  <path class="cls-5" d="M27.1,10.71c-.1-.07-.21-.11-.36-.11-.19,0-.32.05-.43.16-.11.11-.17.26-.17.43,0,.18.07.35.19.46.11.1.24.14.41.14.07,0,.13,0,.18-.02.05-.01.08-.02.15-.06l-.04-.18c-.1.04-.17.05-.25.05-.25,0-.41-.16-.41-.41,0-.22.16-.37.38-.37.1,0,.19.03.26.08l.08-.17"/>
  <polyline class="cls-5" points="28.06 10.81 28.06 10.62 27.15 10.62 27.15 10.81 27.5 10.81 27.5 11.77 27.72 11.77 27.72 10.81 28.06 10.81"/>
  <path class="cls-5" d="M29.16,11.32v-.7h-.22v.71c0,.16-.09.25-.25.25-.18,0-.27-.08-.27-.25v-.71h-.22v.7c0,.21.04.3.16.39.09.06.18.08.32.08s.24-.03.32-.08c.12-.08.16-.18.16-.39"/>
  <path class="cls-3" d="M30,10.96c0,.11-.06.16-.2.16h-.14v-.32h.14c.14,0,.2.04.2.15M30.27,11.77l-.28-.49c.1-.03.14-.05.18-.11.04-.06.06-.13.06-.21,0-.11-.03-.19-.09-.25-.07-.06-.14-.09-.31-.09h-.38v1.14h.22v-.46h.11l.26.46h.24Z"/>
  <path class="cls-3" d="M30.95,11.3h-.27l.13-.41.13.41M31.32,11.77l-.41-1.14h-.2l-.41,1.14h.23l.09-.28h.38l.09.28h.23Z"/>
  <path class="cls-3" d="M22.26,11.21c0,.23-.16.4-.37.4s-.38-.17-.38-.4.16-.4.38-.4.37.17.37.4M22.49,11.21c0-.35-.25-.59-.61-.59s-.61.24-.61.59c0,.26.15.48.37.56.04.01.07.02.14.02.03.05.05.07.09.12.03.03.06.06.1.1.07.07.11.1.21.17l.19-.16c-.07-.04-.1-.05-.14-.08-.03-.02-.06-.05-.08-.07-.03-.03-.04-.05-.06-.09.12-.04.17-.07.25-.15.11-.11.16-.26.16-.42Z"/>
  <path class="cls-2" d="M2.92,10.62c1.41,0,2.55,1.14,2.55,2.55s-1.14,2.54-2.55,2.54S.38,14.57.38,13.17s1.14-2.55,2.54-2.55M1.73,11.01c0,.06,0,.12,0,.19-.02.05,0,.11-.01.15.03.04-.04.1.02.13h.25c.08.12-.05.06-.09.1-.03,0-.04.03-.06.05,0,.05.03.09.04.14.11.17.23.33.34.49.2.24.39.49.61.72.08.12.19.19.28.31-.01.06.07.03.07.08,0,.06.06.03.08.07-.01.06.06.05.08.09-.02.07.09.06.08.13.08.03.15.09.21.15.1.14.17.32.17.49,0,.03,0,.06,0,.08,0,.11-.02.25,0,.35,0,.03-.03.06,0,.08.08.02.14-.02.21.02,0,.07,0,.12,0,.19-.08.03-.14.01-.21.03,0,.12,0,.27,0,.41.92-.36,1.57-1.25,1.57-2.3,0-1.36-1.1-2.46-2.46-2.46-.43,0-.84.11-1.19.31ZM3.41,15.58c0-.16.01-.37,0-.53.02-.03-.02-.07.01-.09.06-.02.14,0,.21-.02-.04-.02-.09,0-.13-.01-.03-.01-.05-.04-.08-.07-.02-.24,0-.46-.02-.69,0-.04-.01-.07-.02-.11,0-.13-.09-.25-.14-.37.02-.06-.01-.07-.04-.07-.05-.02.01-.04,0-.07-.03-.05-.07.02-.1-.03.04-.1-.05-.04-.07-.09.05-.11-.05-.05-.09-.09l-.03-.12s-.08-.1-.13-.14c-.21-.25-.4-.48-.61-.73-.08-.12-.17-.22-.25-.35-.05-.06-.07-.14-.13-.19-.03-.07-.11-.16-.05-.24-.05-.04-.15.01-.15-.07,0-.04.02-.08,0-.12.02-.1,0-.22,0-.34-.7.43-1.16,1.21-1.16,2.09,0,1.36,1.1,2.46,2.46,2.46.17,0,.33-.02.49-.05ZM3.46,15.57c0-.19-.02-.4,0-.57.05-.04.11,0,.17-.01.02,0,.05-.01.07.01,0,.06,0,.13,0,.19.02.03,0,.08,0,.12-.02.06.03.15-.02.21l-.21.06ZM3.69,14.54c0,.08,0,.16,0,.24-.01.02.02.05-.01.07-.08-.01-.16,0-.23,0-.01-.3.05-.64-.08-.93,0-.06-.05-.09-.06-.14.08-.02.13.05.19.08.07.09.16.21.16.34.03.09.01.18.03.28-.02.03,0,.05,0,.08ZM3.72,14.9c-.07,0-.17,0-.23,0,.08-.01.15-.01.23,0h0ZM3.72,14.95c.09,0,.14-.03.19,0-.05.03-.13,0-.19,0Z"/>
</svg>