<?xml version="1.0" encoding="UTF-8"?>
<svg id="Layer_1" data-name="Layer 1" xmlns="http://www.w3.org/2000/svg" viewBox="0 0 33.03 22.68">
  <defs>
    <style>
      .cls-1 {
        fill: none;
      }

      .cls-2, .cls-3 {
        fill: #231f20;
      }

      .cls-3 {
        fill-rule: evenodd;
      }
    </style>
  </defs>
  <g>
    <g>
      <path class="cls-3" d="M7.98,6.93c0-.28-.21-.49-.5-.49h-.33v.99h.33c.17,0,.28-.04.37-.14.09-.1.13-.23.13-.36ZM7.85,6.93c0,.11-.05.23-.12.31-.06.06-.14.09-.27.09h-.19v-.78h.19c.22,0,.39.16.39.39Z"/>
      <polygon class="cls-3" points="8.72 7.43 8.72 7.32 8.27 7.32 8.27 6.97 8.63 6.97 8.63 6.87 8.27 6.87 8.27 6.54 8.7 6.54 8.7 6.44 8.15 6.44 8.15 7.43 8.72 7.43"/>
      <path class="cls-3" d="M9.92,7.43l-.37-1.02h-.13l-.37,1.02h.13l.1-.29h.4l.1.29h.13ZM9.64,7.02h-.32l.16-.45.16.45Z"/>
      <path class="cls-3" d="M10.7,7.43l-.29-.44c.07-.02.11-.03.15-.07.06-.05.09-.13.09-.21s-.03-.15-.08-.19c-.06-.06-.11-.07-.23-.07h-.3v.99h.12v-.42h.13l.27.42h.14ZM10.51,6.71c0,.13-.07.19-.2.19h-.16v-.36h.16c.09,0,.11,0,.14.03.04.03.05.07.05.14Z"/>
      <path class="cls-3" d="M11.74,6.93c0-.3-.21-.51-.5-.51s-.5.22-.5.51c0,.22.13.42.32.49.03.01.05.01.11.03l.02.03c.06.08.1.12.17.17.06.05.1.07.2.12l.07-.09c-.09-.04-.12-.06-.18-.1-.03-.02-.05-.04-.08-.07-.02-.02-.03-.03-.05-.06.25-.05.41-.25.41-.51ZM11.61,6.93c0,.22-.16.41-.36.41s-.36-.18-.36-.41.16-.4.36-.4.36.18.36.4Z"/>
      <path class="cls-3" d="M12.67,7.09v-.65h-.12v.61c0,.12,0,.16-.06.21-.05.06-.12.09-.21.09s-.16-.03-.21-.09c-.05-.05-.06-.09-.06-.21v-.61h-.12v.65c0,.13.03.21.12.28.07.06.17.09.27.09s.2-.03.27-.09c.08-.07.11-.14.11-.28Z"/>
      <rect class="cls-2" x="12.9" y="6.44" width=".12" height=".99"/>
      <polygon class="cls-3" points="13.92 6.54 13.92 6.44 13.13 6.44 13.13 6.54 13.46 6.54 13.46 7.43 13.59 7.43 13.59 6.54 13.92 6.54"/>
      <polygon class="cls-3" points="14.6 7.43 14.6 7.32 14.15 7.32 14.15 6.97 14.51 6.97 14.51 6.87 14.15 6.87 14.15 6.54 14.59 6.54 14.59 6.44 14.03 6.44 14.03 7.43 14.6 7.43"/>
      <path class="cls-3" d="M15.48,6.51s-.07-.05-.11-.06c-.06-.02-.12-.03-.19-.03-.28,0-.5.22-.5.51,0,.3.21.52.51.52.05,0,.09,0,.14-.02.05-.01.07-.02.13-.05l-.03-.1c-.08.03-.14.05-.23.05-.23,0-.38-.16-.38-.41,0-.23.15-.39.36-.39.1,0,.17.02.24.07l.06-.09Z"/>
      <polygon class="cls-3" points="16.24 6.54 16.24 6.44 15.46 6.44 15.46 6.54 15.79 6.54 15.79 7.43 15.92 7.43 15.92 6.54 16.24 6.54"/>
      <path class="cls-3" d="M17.1,7.09v-.65h-.12v.61c0,.12,0,.16-.06.21-.05.06-.12.09-.21.09s-.16-.03-.21-.09c-.05-.05-.06-.09-.06-.21v-.61h-.12v.65c0,.13.03.21.12.28.07.06.17.09.27.09s.2-.03.27-.09c.08-.07.11-.14.11-.28Z"/>
      <path class="cls-3" d="M18.01,7.43l-.29-.44c.07-.02.11-.03.15-.07.06-.05.09-.13.09-.21s-.03-.15-.08-.19c-.06-.06-.11-.07-.23-.07h-.3v.99h.12v-.42h.13l.27.42h.14ZM17.82,6.71c0,.13-.07.19-.2.19h-.16v-.36h.16c.09,0,.11,0,.14.03.04.03.05.07.05.14Z"/>
      <path class="cls-3" d="M18.87,7.43l-.37-1.02h-.13l-.37,1.02h.13l.1-.29h.4l.1.29h.13ZM18.59,7.02h-.32l.16-.45.16.45Z"/>
    </g>
    <g>
      <polygon class="cls-3" points="7.7 4.98 7.7 4.88 7.15 4.88 7.15 5.87 7.27 5.87 7.27 5.43 7.63 5.43 7.63 5.32 7.27 5.32 7.27 4.98 7.7 4.98"/>
      <path class="cls-3" d="M8.58,5.87l-.37-1.02h-.13l-.37,1.02h.13l.1-.29h.4l.1.29h.13ZM8.31,5.46h-.32l.16-.45.16.45Z"/>
      <path class="cls-3" d="M9.4,4.95s-.07-.05-.11-.06c-.06-.02-.12-.03-.19-.03-.28,0-.5.22-.5.51,0,.3.21.52.51.52.05,0,.09,0,.14-.02.05-.01.07-.02.13-.05l-.03-.1c-.08.03-.14.05-.23.05-.23,0-.38-.16-.38-.41,0-.23.15-.39.36-.39.1,0,.17.02.24.07l.06-.09Z"/>
      <path class="cls-3" d="M10.28,5.53v-.65h-.12v.61c0,.12,0,.16-.06.21-.05.06-.12.09-.21.09s-.16-.03-.21-.09c-.05-.05-.06-.09-.06-.21v-.61h-.12v.65c0,.13.03.21.12.28.07.06.17.09.27.09s.2-.03.27-.09c.08-.07.11-.14.11-.28Z"/>
      <polygon class="cls-3" points="11.08 5.87 11.08 5.76 10.64 5.76 10.64 4.88 10.52 4.88 10.52 5.87 11.08 5.87"/>
      <path class="cls-3" d="M12.02,5.37c0-.28-.21-.49-.5-.49h-.33v.99h.33c.17,0,.28-.04.37-.14.09-.1.13-.23.13-.36ZM11.89,5.37c0,.11-.05.23-.12.31-.06.06-.14.09-.27.09h-.19v-.78h.19c.22,0,.39.16.39.39Z"/>
      <path class="cls-3" d="M12.91,5.87l-.37-1.02h-.13l-.37,1.02h.13l.1-.29h.4l.1.29h.13ZM12.64,5.46h-.32l.16-.45.16.45Z"/>
      <path class="cls-3" d="M13.85,5.37c0-.28-.21-.49-.5-.49h-.33v.99h.33c.17,0,.28-.04.37-.14.09-.1.13-.23.13-.36ZM13.72,5.37c0,.11-.05.23-.12.31-.06.06-.14.09-.27.09h-.19v-.78h.19c.22,0,.39.16.39.39Z"/>
      <polygon class="cls-3" points="14.59 5.87 14.59 5.76 14.15 5.76 14.15 5.41 14.51 5.41 14.51 5.31 14.15 5.31 14.15 4.98 14.58 4.98 14.58 4.88 14.02 4.88 14.02 5.87 14.59 5.87"/>
    </g>
    <g>
      <path class="cls-3" d="M8.01,3.81c0-.13-.05-.25-.13-.35-.1-.1-.21-.15-.4-.15h-.37v.99h.37c.18,0,.31-.05.4-.15.09-.09.14-.22.14-.35ZM7.81,3.81c0,.21-.13.33-.35.33h-.15v-.66h.15c.11,0,.18.02.24.06.07.05.11.16.11.27Z"/>
      <path class="cls-3" d="M9.08,3.81c0-.31-.21-.51-.52-.51s-.53.21-.53.51c0,.3.22.51.53.51s.52-.21.52-.51ZM8.88,3.81c0,.2-.14.35-.32.35s-.33-.15-.33-.35.14-.35.33-.35.32.15.32.35Z"/>
      <path class="cls-3" d="M10.19,3.62c0-.09-.03-.17-.08-.22-.06-.06-.13-.08-.26-.08h-.34v.99h.19v-.34s.05,0,.09,0c.13,0,.22-.03.29-.09.07-.06.11-.16.11-.27ZM10,3.64c0,.12-.06.18-.21.18,0,0-.02,0-.04,0h-.05v-.33h.13c.12,0,.17.05.17.16Z"/>
      <path class="cls-3" d="M11.24,3.81c0-.31-.21-.51-.52-.51s-.53.21-.53.51c0,.3.22.51.53.51s.52-.21.52-.51ZM11.04,3.81c0,.2-.14.35-.32.35s-.33-.15-.33-.35.14-.35.33-.35.32.15.32.35Z"/>
      <path class="cls-3" d="M12.07,4.31l-.25-.42c.08-.02.12-.04.15-.09.04-.05.05-.11.05-.19,0-.09-.03-.16-.08-.21-.06-.06-.12-.07-.27-.07h-.33v.99h.19v-.4h.09l.23.4h.21ZM11.84,3.61c0,.1-.05.14-.17.14h-.12v-.27h.12c.12,0,.17.04.17.13Z"/>
      <polygon class="cls-3" points="12.83 3.48 12.83 3.32 12.04 3.32 12.04 3.48 12.34 3.48 12.34 4.31 12.53 4.31 12.53 3.48 12.83 3.48"/>
      <path class="cls-3" d="M13.87,3.81c0-.31-.21-.51-.52-.51s-.53.21-.53.51c0,.3.22.51.53.51s.52-.21.52-.51ZM13.67,3.81c0,.2-.14.35-.32.35s-.33-.15-.33-.35.14-.35.33-.35.32.15.32.35Z"/>
    </g>
    <g>
      <path class="cls-3" d="M7.92,2.36v-.6h-.19v.61c0,.14-.08.22-.22.22-.16,0-.23-.07-.23-.22v-.61h-.19v.6c0,.18.03.26.13.33.07.05.16.07.28.07s.21-.02.28-.07c.1-.07.14-.15.14-.33Z"/>
      <path class="cls-3" d="M8.96,2.76v-1h-.18v.73-.02s-.02-.03-.02-.03c0,0,0,0,0-.02,0-.01,0-.02-.01-.02l-.42-.65h-.22v.99h.18v-.73s0,.02.01.03c0,0,0,0,.01.02.01.02.02.03.02.04l.42.64h.2Z"/>
      <rect class="cls-2" x="9.17" y="1.76" width=".19" height=".99"/>
      <path class="cls-3" d="M10.3,1.76h-.2l-.22.67h0s0,.02,0,.04h0s0,0,0,0v-.02s0-.01,0-.01l-.23-.67h-.21l.37,1.02h.13l.37-1.02Z"/>
      <polygon class="cls-3" points="10.99 2.75 10.99 2.59 10.56 2.59 10.56 2.32 10.9 2.32 10.9 2.16 10.56 2.16 10.56 1.92 10.97 1.92 10.97 1.76 10.37 1.76 10.37 2.75 10.99 2.75"/>
      <path class="cls-3" d="M11.83,2.75l-.25-.42c.08-.02.12-.04.15-.09.04-.05.05-.11.05-.19,0-.09-.03-.16-.08-.21-.06-.06-.12-.07-.27-.07h-.33v.99h.19v-.4h.09l.23.4h.21ZM11.6,2.05c0,.1-.05.14-.17.14h-.12v-.27h.12c.12,0,.17.04.17.13Z"/>
      <path class="cls-3" d="M12.55,1.83c-.07-.03-.09-.04-.14-.06-.06-.02-.12-.03-.19-.03-.12,0-.18.02-.25.07-.03.02-.06.05-.07.07-.02.04-.04.09-.04.14,0,.11.05.17.23.27l.15.09c.06.04.09.06.09.11,0,.06-.06.1-.14.1-.04,0-.09-.01-.14-.03-.04-.01-.07-.03-.14-.07l-.08.17s.05.02.06.03c.1.05.14.06.21.07.03,0,.06,0,.09,0,.22,0,.35-.1.35-.28,0-.07-.03-.13-.07-.18-.05-.05-.15-.11-.3-.19-.07-.04-.09-.06-.09-.1,0-.06.06-.09.15-.09.07,0,.15.02.26.07l.07-.17Z"/>
      <rect class="cls-2" x="12.65" y="1.76" width=".19" height=".99"/>
      <path class="cls-3" d="M13.94,2.25c0-.13-.05-.26-.13-.35-.1-.1-.21-.15-.4-.15h-.37v.99h.37c.18,0,.31-.05.4-.15.09-.09.14-.22.14-.35ZM13.73,2.25c0,.21-.13.33-.35.33h-.15v-.66h.15c.11,0,.18.02.24.06.07.05.11.16.11.27Z"/>
      <path class="cls-3" d="M14.8,2.75l-.36-.99h-.17l-.36.99h.2l.08-.24h.33l.08.24h.2ZM14.47,2.34h-.23l.11-.36.12.36Z"/>
      <path class="cls-3" d="M15.76,2.25c0-.13-.05-.26-.13-.35-.1-.1-.21-.15-.4-.15h-.37v.99h.37c.18,0,.31-.05.4-.15.09-.09.14-.22.14-.35ZM15.56,2.25c0,.21-.13.33-.35.33h-.15v-.66h.15c.11,0,.18.02.24.06.07.05.11.16.11.27Z"/>
      <polygon class="cls-3" points="16.49 2.75 16.49 2.59 16.06 2.59 16.06 2.32 16.4 2.32 16.4 2.16 16.06 2.16 16.06 1.92 16.47 1.92 16.47 1.76 15.87 1.76 15.87 2.75 16.49 2.75"/>
    </g>
  </g>
  <g>
    <g>
      <path class="cls-3" d="M20.67,8.07s-.07-.05-.11-.06c-.06-.02-.12-.03-.19-.03-.28,0-.5.22-.5.51,0,.3.21.52.51.52.05,0,.09,0,.14-.02.05-.01.07-.02.13-.05l-.03-.1c-.08.03-.14.05-.23.05-.23,0-.38-.16-.38-.41,0-.23.15-.39.36-.39.1,0,.17.02.24.07l.06-.09Z"/>
      <polygon class="cls-3" points="21.38 8.99 21.38 8.88 20.93 8.88 20.93 8.53 21.29 8.53 21.29 8.43 20.93 8.43 20.93 8.1 21.36 8.1 21.36 8 20.81 8 20.81 8.99 21.38 8.99"/>
      <path class="cls-3" d="M22.27,8.99l-.37-1.02h-.13l-.37,1.02h.13l.1-.29h.4l.1.29h.13ZM21.99,8.58h-.32l.16-.45.16.45Z"/>
      <path class="cls-3" d="M23.13,8.65v-.65h-.12v.61c0,.12,0,.16-.06.21-.05.06-.12.09-.21.09s-.16-.03-.21-.09c-.05-.05-.06-.09-.06-.21v-.61h-.12v.65c0,.13.03.21.12.28.07.06.17.09.27.09s.2-.03.27-.09c.08-.07.11-.14.11-.28Z"/>
    </g>
    <g>
      <polygon class="cls-3" points="20.56 7.43 20.56 7.27 20.13 7.27 20.13 7 20.47 7 20.47 6.84 20.13 6.84 20.13 6.6 20.54 6.6 20.54 6.44 19.94 6.44 19.94 7.43 20.56 7.43"/>
      <path class="cls-3" d="M21.8,7.04v-.6h-.19v.61c0,.14-.08.22-.22.22-.16,0-.23-.07-.23-.22v-.61h-.19v.6c0,.18.03.26.14.33.07.05.16.07.28.07s.21-.02.28-.07c.1-.07.14-.15.14-.33Z"/>
      <path class="cls-3" d="M22.69,7.43l-.25-.42c.08-.02.12-.04.15-.09.04-.05.05-.11.05-.19,0-.09-.03-.17-.08-.21-.06-.06-.12-.07-.27-.07h-.33v.99h.19v-.4h.09l.23.4h.21ZM22.46,6.73c0,.1-.05.14-.17.14h-.12v-.27h.12c.12,0,.17.04.17.13Z"/>
      <path class="cls-3" d="M23.48,7.16c0-.15-.09-.25-.24-.26.08,0,.12-.02.16-.07.04-.04.06-.1.06-.16,0-.06-.03-.13-.08-.18-.05-.05-.12-.07-.25-.07h-.36v.99h.4c.2,0,.31-.09.31-.26ZM23.25,6.71c0,.08-.06.13-.16.13h-.11v-.25h.12c.1,0,.15.05.15.13ZM23.28,7.14c0,.05-.03.1-.07.12-.03.01-.06.02-.11.02h-.12v-.27h.12c.12,0,.18.05.18.14Z"/>
      <path class="cls-3" d="M24.36,7.43l-.36-.99h-.17l-.36.99h.2l.08-.24h.33l.08.24h.2ZM24.03,7.02h-.23l.11-.36.12.36Z"/>
      <path class="cls-3" d="M25.29,7.44v-1h-.18v.73-.02s-.02-.03-.02-.03c0,0,0,0,0-.02,0-.01,0-.02-.01-.02l-.42-.65h-.22v.99h.18v-.73s0,.02.01.03c0,0,0,0,.01.02.01.02.02.03.02.04l.42.64h.2Z"/>
      <rect class="cls-2" x="25.5" y="6.44" width=".19" height=".99"/>
      <path class="cls-3" d="M26.51,6.5c-.07-.03-.09-.04-.14-.06-.06-.02-.12-.03-.19-.03-.12,0-.18.02-.25.07-.03.02-.06.05-.07.07-.02.04-.04.09-.04.14,0,.11.05.17.23.27l.15.09c.06.04.09.06.09.11,0,.06-.06.1-.14.1-.04,0-.09-.01-.14-.03-.04-.02-.07-.03-.14-.07l-.08.17s.05.02.06.03c.1.05.14.06.21.07.03,0,.06,0,.09,0,.22,0,.35-.1.35-.28,0-.07-.03-.13-.07-.18-.05-.05-.15-.11-.3-.19-.07-.04-.09-.06-.09-.1,0-.06.06-.09.15-.09.07,0,.15.02.26.07l.07-.17Z"/>
      <path class="cls-3" d="M27.66,7.43v-.99h-.23l-.27.71s-.01.03-.02.08c0-.04,0-.05-.02-.08l-.26-.71h-.23v.99h.17v-.73c.01.08.02.1.04.16l.21.57h.17l.23-.58c.03-.08.03-.09.04-.14v.73h.18Z"/>
      <path class="cls-3" d="M28.84,6.93c0-.31-.21-.51-.52-.51s-.53.21-.53.51c0,.3.22.51.53.51s.52-.21.52-.51ZM28.64,6.93c0,.2-.14.35-.32.35s-.33-.15-.33-.35.14-.35.33-.35.32.15.32.35Z"/>
    </g>
    <g>
      <path class="cls-3" d="M20.83,5.37c0-.13-.05-.25-.13-.35-.1-.1-.21-.15-.4-.15h-.37v.99h.37c.18,0,.31-.05.4-.15.09-.09.14-.22.14-.35ZM20.63,5.37c0,.21-.13.33-.35.33h-.15v-.66h.15c.11,0,.18.02.24.06.07.05.11.16.11.27Z"/>
      <polygon class="cls-3" points="21.56 5.87 21.56 5.71 21.13 5.71 21.13 5.44 21.47 5.44 21.47 5.28 21.13 5.28 21.13 5.04 21.54 5.04 21.54 4.88 20.94 4.88 20.94 5.87 21.56 5.87"/>
      <path class="cls-3" d="M22.74,5.87l-.36-.99h-.17l-.36.99h.2l.08-.24h.33l.08.24h.2ZM22.42,5.46h-.23l.11-.36.12.36Z"/>
      <path class="cls-3" d="M23.53,5.87l-.25-.42c.08-.02.12-.04.15-.09.04-.05.05-.11.05-.19,0-.09-.03-.16-.08-.21-.06-.06-.12-.07-.27-.07h-.33v.99h.19v-.4h.09l.23.4h.21ZM23.3,5.17c0,.1-.05.14-.17.14h-.12v-.27h.12c.12,0,.17.04.17.13Z"/>
      <path class="cls-3" d="M24.59,5.37c0-.31-.21-.51-.52-.51s-.53.21-.53.51c0,.22.13.42.32.48.03.01.06.02.12.02.03.05.04.06.08.1.02.03.05.06.08.09.06.06.09.09.18.15l.16-.14c-.06-.03-.09-.05-.12-.07-.02-.02-.05-.04-.07-.06-.03-.03-.04-.04-.06-.08.11-.04.15-.06.21-.13.09-.1.14-.22.14-.36ZM24.39,5.37c0,.2-.14.35-.32.35s-.33-.15-.33-.35.14-.35.33-.35.32.15.32.35Z"/>
      <path class="cls-3" d="M25.51,5.48v-.6h-.19v.61c0,.14-.08.22-.22.22-.16,0-.23-.07-.23-.22v-.61h-.19v.6c0,.18.03.26.14.33.07.05.16.07.28.07s.21-.02.28-.07c.1-.07.14-.15.14-.33Z"/>
      <rect class="cls-2" x="25.69" y="4.88" width=".19" height=".99"/>
      <polygon class="cls-3" points="26.74 5.04 26.74 4.88 25.95 4.88 25.95 5.04 26.25 5.04 26.25 5.87 26.44 5.87 26.44 5.04 26.74 5.04"/>
      <polygon class="cls-3" points="27.44 5.87 27.44 5.71 27.01 5.71 27.01 5.44 27.35 5.44 27.35 5.28 27.01 5.28 27.01 5.04 27.42 5.04 27.42 4.88 26.82 4.88 26.82 5.87 27.44 5.87"/>
      <path class="cls-3" d="M28.3,4.95c-.09-.06-.18-.09-.31-.09-.16,0-.27.04-.37.14-.1.1-.15.23-.15.37,0,.15.06.3.17.4.09.08.2.12.36.12.06,0,.11,0,.16-.02.05-.01.07-.02.13-.05l-.03-.16c-.09.03-.15.05-.22.05-.22,0-.36-.14-.36-.35,0-.19.14-.32.33-.32.09,0,.16.02.23.07l.07-.15Z"/>
      <polygon class="cls-3" points="29.06 5.04 29.06 4.88 28.28 4.88 28.28 5.04 28.58 5.04 28.58 5.87 28.77 5.87 28.77 5.04 29.06 5.04"/>
      <path class="cls-3" d="M29.95,5.48v-.6h-.19v.61c0,.14-.08.22-.22.22-.16,0-.23-.07-.23-.22v-.61h-.19v.6c0,.18.03.26.14.33.07.05.16.07.28.07s.21-.02.28-.07c.1-.07.14-.15.14-.33Z"/>
      <path class="cls-3" d="M30.85,5.87l-.25-.42c.08-.02.12-.04.15-.09.04-.05.05-.11.05-.19,0-.09-.03-.16-.08-.21-.06-.06-.12-.07-.27-.07h-.33v.99h.19v-.4h.09l.23.4h.21ZM30.61,5.17c0,.1-.05.14-.17.14h-.12v-.27h.12c.12,0,.17.04.17.13Z"/>
      <path class="cls-3" d="M31.69,5.87l-.36-.99h-.17l-.36.99h.2l.08-.24h.33l.08.24h.2ZM31.37,5.46h-.23l.11-.36.12.36Z"/>
    </g>
    <g>
      <path class="cls-3" d="M20.83,3.81c0-.13-.05-.25-.13-.35-.1-.1-.21-.15-.4-.15h-.37v.99h.37c.18,0,.31-.05.4-.15.09-.09.14-.22.14-.35ZM20.63,3.81c0,.21-.13.33-.35.33h-.15v-.66h.15c.11,0,.18.02.24.06.07.05.11.16.11.27Z"/>
      <polygon class="cls-3" points="21.56 4.31 21.56 4.15 21.13 4.15 21.13 3.88 21.47 3.88 21.47 3.72 21.13 3.72 21.13 3.48 21.54 3.48 21.54 3.32 20.94 3.32 20.94 4.31 21.56 4.31"/>
      <polygon class="cls-3" points="22.61 4.31 22.61 4.15 22.18 4.15 22.18 3.88 22.52 3.88 22.52 3.72 22.18 3.72 22.18 3.48 22.59 3.48 22.59 3.32 21.99 3.32 21.99 4.31 22.61 4.31"/>
      <path class="cls-3" d="M23.36,3.38c-.07-.03-.09-.04-.14-.06-.06-.02-.12-.03-.19-.03-.12,0-.18.02-.25.07-.03.02-.06.05-.07.07-.02.04-.04.09-.04.14,0,.11.05.17.23.27l.15.09c.06.04.09.06.09.11,0,.06-.06.1-.14.1-.04,0-.09-.01-.14-.03-.04-.01-.07-.03-.14-.07l-.08.17s.05.02.07.03c.1.05.14.06.21.07.03,0,.06,0,.09,0,.22,0,.35-.1.35-.28,0-.07-.03-.13-.07-.18-.05-.05-.15-.11-.3-.19-.07-.04-.09-.06-.09-.1,0-.06.06-.09.15-.09.07,0,.15.02.26.07l.07-.17Z"/>
      <polygon class="cls-3" points="24.13 3.48 24.13 3.32 23.35 3.32 23.35 3.48 23.64 3.48 23.64 4.31 23.83 4.31 23.83 3.48 24.13 3.48"/>
      <path class="cls-3" d="M25.02,3.92v-.6h-.19v.61c0,.14-.08.22-.22.22-.16,0-.23-.07-.23-.22v-.61h-.19v.6c0,.18.03.26.13.33.07.05.16.07.28.07s.21-.02.28-.07c.1-.07.14-.15.14-.33Z"/>
      <path class="cls-3" d="M26.09,3.81c0-.13-.05-.25-.13-.35-.1-.1-.21-.15-.4-.15h-.37v.99h.37c.18,0,.31-.05.4-.15.09-.09.14-.22.14-.35ZM25.89,3.81c0,.21-.13.33-.35.33h-.15v-.66h.15c.11,0,.18.02.24.06.07.05.11.16.11.27Z"/>
      <path class="cls-3" d="M27.16,3.81c0-.31-.21-.51-.52-.51s-.53.21-.53.51c0,.3.22.51.53.51s.52-.21.52-.51ZM26.96,3.81c0,.2-.14.35-.32.35s-.33-.15-.33-.35.14-.35.33-.35.32.15.32.35Z"/>
      <path class="cls-3" d="M27.9,3.38c-.07-.03-.09-.04-.14-.06-.06-.02-.12-.03-.19-.03-.12,0-.18.02-.25.07-.03.02-.06.05-.07.07-.02.04-.04.09-.04.14,0,.11.05.17.23.27l.15.09c.06.04.09.06.09.11,0,.06-.06.1-.14.1-.04,0-.09-.01-.14-.03-.04-.01-.07-.03-.14-.07l-.08.17s.05.02.06.03c.1.05.14.06.21.07.03,0,.06,0,.09,0,.22,0,.35-.1.35-.28,0-.07-.03-.13-.07-.18-.05-.05-.15-.11-.3-.19-.07-.04-.09-.06-.09-.1,0-.06.06-.09.15-.09.07,0,.15.02.26.07l.07-.17Z"/>
    </g>
    <g>
      <path class="cls-3" d="M20.67,1.84c-.09-.06-.18-.09-.31-.09-.16,0-.27.04-.37.14-.1.1-.15.23-.15.37,0,.15.06.3.17.4.09.08.2.12.36.12.06,0,.11,0,.16-.02.05-.01.07-.02.13-.05l-.03-.16c-.09.03-.15.05-.22.05-.22,0-.36-.14-.36-.35,0-.19.14-.32.33-.32.09,0,.16.02.23.07l.07-.15Z"/>
      <polygon class="cls-3" points="21.4 2.75 21.4 2.59 20.97 2.59 20.97 2.32 21.31 2.32 21.31 2.16 20.97 2.16 20.97 1.92 21.38 1.92 21.38 1.76 20.78 1.76 20.78 2.75 21.4 2.75"/>
      <path class="cls-3" d="M22.38,2.76v-1h-.18v.73-.02s-.02-.03-.02-.03c0,0,0,0,0-.02,0-.01,0-.02-.01-.02l-.42-.65h-.22v.99h.18v-.73s0,.02.01.03c0,0,0,0,.01.02.01.02.02.03.02.04l.42.64h.2Z"/>
      <polygon class="cls-3" points="23.25 1.92 23.25 1.76 22.47 1.76 22.47 1.92 22.77 1.92 22.77 2.75 22.96 2.75 22.96 1.92 23.25 1.92"/>
      <path class="cls-3" d="M24.05,2.75l-.25-.42c.08-.02.12-.04.15-.09.04-.05.05-.11.05-.19,0-.09-.03-.16-.08-.21-.06-.06-.12-.07-.27-.07h-.33v.99h.19v-.4h.09l.23.4h.21ZM23.82,2.05c0,.1-.05.14-.17.14h-.12v-.27h.12c.12,0,.17.04.17.13Z"/>
      <path class="cls-3" d="M25.11,2.25c0-.31-.21-.51-.52-.51s-.53.21-.53.51c0,.3.22.51.53.51s.52-.21.52-.51ZM24.91,2.25c0,.2-.14.35-.32.35s-.33-.15-.33-.35.14-.35.33-.35.32.15.32.35Z"/>
    </g>
  </g>
  <path class="cls-2" d="M23.15,20.79c-1.85,0-3.36-1.51-3.36-3.36s1.51-3.36,3.36-3.36,3.36,1.51,3.36,3.36-1.51,3.36-3.36,3.36ZM23.15,14.14c-1.81,0-3.28,1.47-3.28,3.28s1.47,3.28,3.28,3.28,3.28-1.47,3.28-3.28-1.47-3.28-3.28-3.28Z"/>
  <g>
    <rect class="cls-1" x="2.19" y="1.7" width="4.3" height="19.63"/>
    <path class="cls-2" d="M2.19,1.7h4.3v19.63H2.19V1.7ZM2.29,1.81v19.41h4.08V1.81H2.29Z"/>
    <g>
      <path class="cls-3" d="M2.96,15.59v.41h-.07v-1.17c0-.33.06-.59.19-.79.13-.2.33-.29.61-.29s.47.1.6.31c.13.21.2.45.2.73,0,.16-.02.29-.07.38h1.29v-.42h.07v1.24h-.07v-.41h-2.75ZM4.34,15.17s.04-.08.06-.14c.02-.06.03-.12.03-.18,0-.17-.05-.33-.16-.46-.11-.14-.29-.2-.54-.2-.27,0-.46.06-.59.18-.12.12-.19.31-.19.55v.25h1.38Z"/>
      <path class="cls-3" d="M2.83,12.08c0-.35.15-.65.44-.91.29-.26.65-.39,1.06-.39s.77.13,1.07.38c.29.26.44.56.44.91s-.15.65-.44.91c-.29.26-.65.39-1.06.39s-.77-.13-1.07-.38c-.29-.26-.44-.56-.44-.91ZM5.78,12.08c0-.22-.08-.39-.23-.52-.15-.12-.34-.21-.55-.25-.21-.04-.43-.06-.66-.06s-.46.02-.67.06c-.21.04-.39.12-.54.24-.15.12-.23.3-.23.52s.08.39.23.52c.15.12.34.21.55.25.21.04.43.06.66.06s.46-.02.67-.06c.21-.04.39-.12.54-.24.15-.12.23-.3.23-.52Z"/>
      <path class="cls-3" d="M2.96,10.09v.41h-.07v-1.26c0-.29.05-.53.15-.71.1-.18.29-.27.57-.27.22,0,.38.09.48.27.1.18.16.38.19.61.03-.26.08-.45.17-.56.09-.12.26-.19.52-.22l.5-.06c.1-.01.17-.04.21-.08s.05-.08.05-.13c0-.04-.01-.1-.04-.17l.05-.02s.03.09.04.15c0,.05.01.12.01.19,0,.23-.05.37-.16.44-.11.06-.3.11-.58.15l-.25.03c-.16.02-.28.06-.36.14-.08.07-.13.22-.13.43v.27h1.38v-.42h.07v1.24h-.07v-.41h-2.75ZM4.27,9.67v-.2c0-.25-.05-.44-.15-.57-.1-.13-.27-.19-.49-.19-.2,0-.36.05-.48.15-.12.1-.18.28-.18.54v.28h1.31Z"/>
      <path class="cls-3" d="M2.96,6.71v.09c0,.37.05.61.14.72.09.11.31.17.64.17v.07h-.85v-2.51h.85v.07c-.33,0-.54.06-.64.17-.1.11-.14.35-.14.72v.09h2.75v-.42h.07v1.26h-.07v-.42h-2.75Z"/>
      <path class="cls-3" d="M2.83,3.65c0-.35.15-.65.44-.91.29-.26.65-.39,1.06-.39s.77.13,1.07.38c.29.26.44.56.44.91s-.15.65-.44.91c-.29.26-.65.39-1.06.39s-.77-.13-1.07-.38c-.29-.26-.44-.56-.44-.91ZM5.78,3.65c0-.22-.08-.39-.23-.52-.15-.12-.34-.21-.55-.25-.21-.04-.43-.06-.66-.06s-.46.02-.67.06c-.21.04-.39.12-.54.24-.15.12-.23.3-.23.52s.08.39.23.52c.15.12.34.21.55.25.21.04.43.06.66.06s.46-.02.67-.06c.21-.04.39-.12.54-.24.15-.12.23-.3.23-.52Z"/>
    </g>
    <path class="cls-3" d="M2.24,16.4v4.88h4.19v-4.88H2.24ZM5.31,17.18c.06-.06.12-.08.21-.08s.15.03.21.08c.06.06.08.12.08.21s-.03.15-.08.21c-.06.06-.12.08-.21.08s-.15-.03-.21-.08c-.06-.06-.08-.12-.08-.21s.03-.15.08-.21ZM5.56,20.03c-.18.2-.43.3-.75.3h-1.85v.32h-.07v-1.29h.07v.33h1.8c.3,0,.53-.05.69-.15s.26-.29.24-.57c-.02-.22-.07-.34-.21-.48-.14-.14-.35-.21-.61-.21h-1.55c-.12,0-.21.02-.26.06-.05.04-.08.07-.08.17v.12h-.07v-.81h.07v.11c0,.07.03.13.08.16.06.03.14.05.26.05h1.53c.31,0,.55.09.73.27.18.18.27.45.27.81,0,.34-.09.6-.27.8Z"/>
  </g>
</svg>