<?xml version="1.0" encoding="UTF-8"?>
<svg id="Layer_1" data-name="Layer 1" xmlns="http://www.w3.org/2000/svg" viewBox="0 0 24.22 17.3">
  <defs>
    <style>
      .cls-1 {
        fill: #231f20;
      }
    </style>
  </defs>
  <path class="cls-1" d="M5.38,9.56l-.22.17c-.28.23-.44.5-.44.93,0,.66.5.9.98.9.9,0,1.68-.65,1.68-1.31,0-.33-.21-.64-.89-.66l-1.11-.04ZM5.81,7.53c0,.51.24.66.63.66.7,0,1.02-.94,1.02-1.55,0-.46-.27-.61-.61-.61-.65,0-1.03.97-1.03,1.5ZM5.76,3.41l-1.79,4.99c-.09.27-.17.54-.17.73,0,.13.07.2.2.2.31,0,.54-.31.65-.52.03-.28.2-.5.55-.69l.29-.16c-.13-.16-.24-.32-.24-.61,0-.76.9-1.44,1.61-1.44.52,0,.83.28.95.5.13-.19.28-.42.61-.42.28,0,.51.21.51.49,0,.19-.1.32-.34.32-.14,0-.26-.09-.26-.2,0-.19.16-.17.16-.38,0-.06-.06-.13-.15-.13-.17,0-.34.18-.46.42.06.09.12.28.12.41,0,.67-.87,1.37-1.57,1.37-.48,0-.72-.16-.85-.24l-.17.08c-.33.16-.51.36-.51.55,0,.23.23.33.72.36l1.01.05c.62.03,1.05.27,1.05.88,0,.71-.72,1.7-1.97,1.7-.83,0-1.52-.47-1.52-.98s.54-.9.81-1.04l.22-.12c-.19-.05-.52-.12-.58-.52-.17.23-.43.48-.82.48-.35,0-.52-.17-.52-.48,0-.07.03-.29.09-.44h-.02c-.28.35-.76.92-1.43.92-.43,0-.85-.31-.85-1.01,0-1.27,1.65-2.57,2.46-2.57.31,0,.57.2.57.49h.02l1.02-2.88h-.69l.03-.11h1.25ZM3.5,8.2l.42-1.16c.13-.34.15-.44.15-.54,0-.18-.09-.48-.46-.48-1.05,0-1.95,1.91-1.95,2.79,0,.34.12.57.42.57.61,0,1.31-.89,1.42-1.18Z"/>
  <path class="cls-1" d="M12.53,7.68v-1.18h.58c.39,0,.62.17.62.58,0,.43-.25.6-.58.6h-.62ZM11.91,9.43h.62v-1.33h.4l.84,1.33h.71l-.95-1.4c.51-.07.81-.48.81-.97,0-.64-.45-1-1.14-1h-1.3v3.37ZM8.42,9.43h.57l.31-.91h1.33l.3.91h.65l-1.19-3.4h-.76l-1.21,3.4ZM9.45,8.05l.38-1.11.12-.44h.02l.12.43.38,1.12h-1.01ZM15.58,9.43h.62v-2.91h1.01v-.46h-2.65v.46h1.02v2.9ZM17.6,9.43h2.18v-.47h-1.56v-1.04h1.26v-.46h-1.26v-.93h1.51v-.46h-2.14v3.37ZM21.2,9.51c.64,0,1.27-.34,1.27-1.07,0-.44-.27-.72-.78-.91l-.48-.19c-.27-.1-.48-.22-.48-.48s.24-.4.55-.4.6.07.88.21l.22-.46c-.25-.12-.57-.21-1.06-.21-.79,0-1.19.44-1.19.98,0,.46.38.76.7.88l.47.18c.26.1.52.22.52.51,0,.35-.33.49-.65.49-.36,0-.67-.13-.96-.26l-.25.46c.34.2.76.26,1.22.26Z"/>
  <path class="cls-1" d="M10.21,12.62h0s-.05,0-.05,0l-.43,1.14h-.14v.03h.36v-.03h-.17l.16-.43h.36l.16.43h-.17v.03h.5v-.03h-.14l-.43-1.14ZM9.94,13.29l.17-.44.17.44h-.33Z"/>
  <path class="cls-1" d="M11.45,13.14l-.21-.06c-.11-.04-.23-.08-.23-.21,0-.17.16-.21.26-.21.15,0,.27.11.3.29h0s.03,0,.03,0v-.3h-.03s-.02.03-.04.03c-.02,0-.04,0-.07-.02-.04-.02-.09-.04-.18-.04-.21,0-.36.14-.36.34,0,.14.08.23.27.29l.18.06c.14.04.21.12.21.23,0,.04-.01.25-.28.25h0c-.11,0-.31,0-.38-.34h-.01s-.02.35-.02.35h.04s.01-.04.04-.04c.03,0,.06.01.1.02.01,0,.02,0,.03.01.07.02.11.02.2.02.27,0,.41-.2.41-.38,0-.21-.18-.27-.26-.29Z"/>
  <path class="cls-1" d="M16.27,13.76h-.3v-.56h.12c.15,0,.17.11.2.23h0s.01,0,.01,0l.02-.5h-.01c-.06.19-.11.23-.24.23h-.1v-.48h.26c.17,0,.24.09.29.25h.01s.02-.28.02-.28h-.93v.03h.18v1.08h-.18v.03h.99v-.36h-.01c-.03.09-.1.32-.33.32Z"/>
  <path class="cls-1" d="M9.19,12.68c-.09-.03-.15-.04-.28-.04h-.09s0,0,0,0c-.03,0-.05,0-.08,0h-.3v.03h.18v1.08h-.18v.03h.49s0,0,0,0c.15,0,.22,0,.32-.05.12-.05.33-.19.33-.53,0-.27-.14-.46-.38-.54ZM9.28,13.6c-.09.15-.23.17-.37.17-.04,0-.09,0-.14,0v-1.08s.02,0,.03,0c.03,0,.06,0,.1,0,.32,0,.47.18.47.55,0,.15-.03.26-.09.37Z"/>
  <path class="cls-1" d="M14.54,12.94h.01c.09-.26.23-.26.31-.26h.09v1.08h-.18v.03h.53v-.03h-.18v-1.08h.09c.08,0,.22,0,.29.27h.01s.02-.3.02-.3h-.98v.3Z"/>
  <path class="cls-1" d="M14.49,13.76s-.04,0-.05,0c-.06,0-.08-.05-.09-.1,0-.03,0-.08-.01-.13,0-.06,0-.13-.02-.18-.03-.09-.12-.16-.27-.18.24-.05.25-.22.25-.26,0-.08-.04-.15-.1-.2-.08-.07-.18-.07-.3-.07h-.08s0,0,0,0c-.02,0-.05,0-.07,0h-.31v.03h.18v1.08h-.18v.03h.53v-.03h-.18v-.56h.15c.07,0,.2,0,.22.21v.15c.02.16.07.25.25.25.09,0,.12-.02.14-.04h.01s-.02-.01-.02-.01c-.02,0-.03,0-.05,0ZM13.91,13.16h-.14v-.48s.06,0,.1,0c.11,0,.23.03.23.24s-.1.24-.19.24Z"/>
  <path class="cls-1" d="M17.38,13.14l-.21-.06c-.11-.04-.23-.08-.23-.21,0-.17.16-.21.26-.21.16,0,.27.11.3.29h0s.03,0,.03,0v-.3h-.03s-.02.03-.04.03c-.02,0-.04,0-.07-.02-.04-.02-.09-.04-.18-.04-.21,0-.36.14-.36.34,0,.14.08.23.27.29l.18.06c.14.04.21.12.21.23,0,.04-.01.25-.28.25h0c-.11,0-.31,0-.38-.34h-.01s-.02.35-.02.35h.04s.01-.04.04-.04c.03,0,.06.01.1.02.01,0,.02,0,.03.01.07.02.11.02.2.02.27,0,.41-.2.41-.38,0-.21-.18-.27-.26-.29Z"/>
  <path class="cls-1" d="M12.81,12.62h0s-.05,0-.05,0l-.43,1.14h-.14v.03h.36v-.03h-.17l.16-.43h.36l.16.43h-.17v.03h.5v-.03h-.14l-.43-1.14ZM12.55,13.29l.17-.44.17.44h-.33Z"/>
  <path class="cls-1" d="M12.48,11.74h-.01c-.03.09-.1.32-.33.32h-.3v-.56h.12c.15,0,.17.11.2.23h0s.01,0,.01,0l.02-.5h-.01c-.06.19-.11.23-.24.23h-.1v-.48h.26c.17,0,.24.09.29.25h.01s.02-.28.02-.28h-.93v.03h.18v1.08h-.18v.03h.99v-.36Z"/>
  <path class="cls-1" d="M10.69,11.5h.15c.07,0,.2,0,.22.21v.15c.02.16.07.25.25.25.09,0,.12-.02.14-.04l.02-.02h-.02s-.03,0-.05.01c-.02,0-.03,0-.05,0-.06,0-.08-.05-.09-.1,0-.03,0-.08-.01-.13,0-.06,0-.13-.02-.18-.03-.09-.12-.16-.27-.18.24-.05.25-.22.25-.26,0-.08-.04-.15-.1-.2-.08-.07-.18-.07-.3-.07h-.08s0,0,0,0c-.02,0-.05,0-.07,0h-.31v.03h.18v1.08h-.18v.03h.53v-.03h-.18v-.56ZM10.69,10.98s.06,0,.1,0c.11,0,.23.03.23.24s-.1.24-.19.24h-.14v-.48Z"/>
  <polygon class="cls-1" points="10.25 12.06 10.08 12.06 10.08 10.98 10.25 10.98 10.25 10.95 9.73 10.95 9.73 10.98 9.9 10.98 9.9 12.06 9.73 12.06 9.73 12.1 10.25 12.1 10.25 12.06"/>
  <path class="cls-1" d="M9.19,10.98c-.09-.03-.15-.04-.28-.04h-.09s0,0,0,0c-.03,0-.05,0-.08,0h-.3v.03h.18v1.08h-.18v.03h.49s0,0,0,0c.15,0,.22,0,.32-.05.12-.05.33-.19.33-.53,0-.27-.14-.46-.38-.54ZM9.28,11.9c-.09.15-.23.17-.37.17-.05,0-.09,0-.14,0v-1.08s.02,0,.03,0c.03,0,.06,0,.1,0,.32,0,.47.18.47.55,0,.15-.03.26-.09.37Z"/>
  <path class="cls-1" d="M22.37,11.74c-.07.22-.18.32-.35.32h-.28v-1.08h.18v-.03h-.53v.03h.18v1.08h-.18v.03h.99v-.36h-.01Z"/>
  <path class="cls-1" d="M20.78,10.92h0s-.05,0-.05,0l-.43,1.14h-.13,0s-.01,0-.01,0c-.02,0-.03,0-.05,0-.02,0-.03,0-.05,0-.06,0-.08-.05-.09-.1,0-.03,0-.08-.01-.13,0-.06,0-.13-.02-.18-.03-.09-.12-.16-.27-.18.24-.05.25-.22.25-.26,0-.08-.04-.15-.1-.2-.08-.07-.18-.07-.3-.07h-.08s0,0,0,0c-.02,0-.05,0-.07,0h-.31v.03h.18v1.08h-.18v.03h.53v-.03h-.18v-.56h.15c.07,0,.2,0,.22.21v.15c.02.16.07.25.25.25.08,0,.11-.02.13-.03v.02h.36v-.03h-.17l.16-.43h.36l.16.43h-.17v.03h.5v-.03h-.14l-.43-1.14ZM19.55,11.46h-.14v-.48s.06,0,.1,0c.11,0,.23.03.23.24s-.1.24-.19.24ZM20.52,11.6l.17-.44.17.44h-.33Z"/>
  <path class="cls-1" d="M14.08,10.84s.04-.07.09-.07c.03,0,.06.01.08.03h.01s.07.05.12.05c.12,0,.16-.13.17-.17h0s-.03,0-.03,0h0s-.03.08-.1.08c-.03,0-.07-.02-.11-.04h-.01s-.07-.04-.1-.04c-.06,0-.14.06-.16.16h0s.03,0,.03,0h0Z"/>
  <path class="cls-1" d="M15.51,12.12c.3,0,.56-.28.56-.6,0-.36-.29-.6-.56-.6s-.56.26-.56.6.25.6.56.6ZM15.51,10.95c.33,0,.37.32.37.57,0,.4-.11.57-.37.57s-.37-.16-.37-.57c0-.24.04-.57.37-.57Z"/>
  <path class="cls-1" d="M13.21,12.12l-.09.1.03.03h0s.03-.02.06-.02c.05,0,.07.03.07.1,0,.08-.03.12-.08.12s-.08-.02-.1-.04h0s-.02.03-.02.03h0s.07.05.13.05c.09,0,.17-.05.17-.16,0-.12-.1-.15-.14-.15-.02,0-.04,0-.05,0l.06-.07h0c.1,0,.16-.02.22-.04.03-.01.06-.02.08-.02.04,0,.05.02.07.03h0s.03,0,.03,0v-.35h-.01s0,.02-.01.03c-.06.15-.11.31-.38.31s-.37-.17-.37-.56c0-.27.04-.57.37-.57.24,0,.31.15.35.32h.01s.02-.33.02-.33h-.04s-.03.03-.07.03c-.02,0-.05-.01-.08-.02-.05-.02-.1-.04-.18-.04-.16,0-.26.05-.35.12-.15.13-.23.29-.23.48,0,.17.06.31.19.44.09.09.2.14.33.16Z"/>
  <path class="cls-1" d="M17.36,11.69h.21v.13c0,.18-.14.27-.27.27-.11,0-.17-.02-.23-.08-.09-.08-.14-.24-.14-.49s.04-.57.37-.57c.26,0,.33.2.35.32h.01s.02-.33.02-.33h-.04s-.03.03-.07.03c-.03,0-.05,0-.08-.02-.04-.02-.09-.04-.19-.04-.14,0-.27.05-.38.16-.12.12-.19.27-.19.44,0,.21.1.35.19.44.11.11.22.16.38.16.13,0,.2-.04.26-.07.03-.02.06-.03.09-.03.03,0,.04,0,.06.03h0s.03,0,.03,0v-.36h.13v-.03h-.5v.03Z"/>
  <rect class="cls-1" x="16.26" y="11.67" width=".3" height=".12"/>
  <path class="cls-1" d="M14.06,12.06h-.17l.16-.43h.36l.16.43h-.17v.03h.5v-.03h-.14l-.43-1.14h0s-.05,0-.05,0l-.43,1.14h-.14v.03h.36v-.03ZM14.23,11.15l.17.44h-.33l.17-.44Z"/>
  <path class="cls-1" d="M18.58,12.06h-.3v-.56h.12c.15,0,.17.11.2.23h0s.01,0,.01,0l.02-.5h-.01c-.06.19-.11.23-.24.23h-.1v-.48h.26c.17,0,.24.09.29.25h.01s.02-.28.02-.28h-.93v.03h.18v1.08h-.18v.03h.99v-.36h-.01c-.03.09-.1.32-.33.32Z"/>
</svg>