<?xml version="1.0" encoding="UTF-8"?>
<svg id="Layer_1" data-name="Layer 1" xmlns="http://www.w3.org/2000/svg" viewBox="0 0 17.17 22.68">
  <defs>
    <style>
      .cls-1 {
        fill: #0b0907;
      }
    </style>
  </defs>
  <path class="cls-1" d="M6.01,11.94c-1.01,0-1.83-.82-1.83-1.83s.82-1.83,1.83-1.83,1.83.82,1.83,1.83-.82,1.83-1.83,1.83h0ZM12.72,4.41l-3.26,4.03c-.62-1.28-1.93-2.16-3.45-2.16-2.12,0-3.84,1.72-3.84,3.84s1.72,3.84,3.84,3.84c.99,0,2.1-.31,3.25-1.69,1.54-1.84,4.12-5.08,4.12-5.08v6.58h2.24V4.41h-2.9Z"/>
  <path class="cls-1" d="M6.32,17.42v-.66h.41v.66c0,.15.08.21.19.21s.19-.06.19-.2v-.67h.41v.66c0,.41-.24.57-.6.57s-.59-.17-.59-.57h0Z"/>
  <polygon class="cls-1" points="7.71 16.75 8.12 16.75 8.12 17.96 7.71 17.96 7.71 16.75 7.71 16.75 7.71 16.75"/>
  <polygon class="cls-1" points="8.62 17.1 8.28 17.1 8.28 16.75 9.35 16.75 9.35 17.1 9.02 17.1 9.02 17.96 8.62 17.96 8.62 17.1 8.62 17.1 8.62 17.1"/>
  <path class="cls-1" d="M10.67,17.36h0c0-.36.28-.63.64-.63.27,0,.44.13.55.31l-.33.19c-.05-.09-.11-.15-.22-.15-.14,0-.23.12-.23.26h0c0,.16.09.27.23.27.11,0,.18-.06.23-.15l.33.19c-.1.18-.27.33-.57.33-.33,0-.63-.25-.63-.63h0Z"/>
  <polygon class="cls-1" points="12.25 17.1 11.92 17.1 11.92 16.75 12.99 16.75 12.99 17.1 12.66 17.1 12.66 17.96 12.25 17.96 12.25 17.1 12.25 17.1 12.25 17.1"/>
  <path class="cls-1" d="M13.94,17.36h0c0-.15-.1-.28-.25-.28s-.25.13-.25.27h0c0,.15.1.28.25.28s.25-.13.25-.27h0ZM13.03,17.36h0c0-.35.29-.63.66-.63s.66.28.66.63h0c0,.35-.29.63-.66.63s-.66-.28-.66-.63h0Z"/>
  <path class="cls-1" d="M5.21,17.36h0c0-.14.1-.27.25-.27s.25.13.25.27h0c0,.14-.1.27-.25.27s-.25-.13-.25-.27h0ZM6.17,17.77l-.14-.1c.06-.09.09-.2.09-.31h0c0-.35-.28-.63-.66-.63s-.66.28-.66.63h0c0,.35.28.63.66.63.13,0,.24-.03.34-.09l.18.12.2-.25h0Z"/>
  <path class="cls-1" d="M4.11,17.35c.1,0,.17-.04.17-.12h0c0-.11-.06-.14-.17-.14h-.18v.26h.18ZM3.54,16.75h.59c.21,0,.35.05.43.14.07.07.11.16.11.29v.02c0,.17-.09.28-.23.35,0,.01.28.41.28.41h-.46l-.21-.36h-.1v.36h-.4v-1.21h0Z"/>
  <path class="cls-1" d="M4.94,15.75h0c0-.15-.1-.28-.25-.28s-.25.13-.25.27h0c0,.15.1.28.25.28s.25-.13.25-.27h0ZM4.03,15.75h0c0-.35.29-.63.66-.63s.66.28.66.63h0c0,.35-.29.63-.66.63s-.66-.28-.66-.63h0Z"/>
  <path class="cls-1" d="M7.35,16c.18,0,.3-.08.3-.25h0c0-.18-.12-.25-.3-.25h-.07v.5h.07ZM6.88,15.15h.46c.48,0,.72.24.72.59h0c0,.36-.24.61-.73.61h-.45v-1.21h0Z"/>
  <path class="cls-1" d="M12.15,16c.18,0,.3-.08.3-.25h0c0-.18-.12-.25-.3-.25h-.07v.5h.07ZM11.68,15.15h.46c.48,0,.72.24.72.59h0c0,.36-.24.61-.73.61h-.45v-1.21h0Z"/>
  <path class="cls-1" d="M14.47,16.17l.21-.25c.13.1.27.14.41.14.08,0,.12-.03.12-.06h0s-.04-.07-.17-.1c-.27-.05-.51-.12-.51-.38h0c0-.23.18-.41.52-.41.23,0,.4.06.54.17l-.19.27c-.12-.08-.24-.12-.35-.12-.06,0-.11.02-.11.06h0s.04.07.17.1c.31.06.52.16.52.38h0c0,.26-.21.41-.54.41-.28,0-.47-.07-.62-.2h0Z"/>
  <path class="cls-1" d="M13.95,15.75h0c0-.15-.1-.28-.25-.28s-.25.13-.25.27h0c0,.15.1.28.25.28s.25-.13.25-.27h0ZM13.04,15.75h0c0-.35.29-.63.66-.63s.66.28.66.63h0c0,.35-.29.63-.66.63s-.66-.28-.66-.63h0Z"/>
  <polygon class="cls-1" points="9.53 15.15 9.94 15.15 10.25 15.56 10.55 15.15 10.95 15.15 10.95 16.35 10.56 16.35 10.56 15.7 10.25 16.09 10.24 16.09 9.93 15.7 9.93 16.35 9.53 16.35 9.53 15.15 9.53 15.15 9.53 15.15"/>
  <path class="cls-1" d="M6.1,15.74c.1,0,.17-.04.17-.12h0c0-.11-.07-.14-.17-.14h-.18v.26h.18ZM5.52,15.15h.59c.21,0,.35.05.43.14.07.07.11.16.11.29h0c0,.19-.09.3-.23.37,0,.01.28.41.28.41h-.46l-.21-.36h-.1v.36h-.4v-1.21h0Z"/>
  <path class="cls-1" d="M14.47,17.79l.21-.25c.13.1.27.14.41.14.08,0,.12-.03.12-.06h0s-.04-.08-.17-.1c-.27-.06-.51-.12-.51-.38h0c0-.23.18-.41.52-.41.23,0,.4.06.54.17l-.19.27c-.12-.08-.24-.12-.35-.12-.06,0-.11.02-.11.06h0s.04.07.17.1c.31.06.52.16.52.38h0c0,.26-.21.41-.54.41-.28,0-.47-.07-.62-.2h0Z"/>
  <polygon class="cls-1" points="8.27 15.15 9.3 15.15 9.3 15.48 8.67 15.48 8.67 15.61 9.13 15.61 9.13 15.89 8.67 15.89 8.67 16.02 9.31 16.02 9.31 16.35 8.27 16.35 8.27 15.15 8.27 15.15 8.27 15.15"/>
  <polygon class="cls-1" points="9.52 16.75 10.55 16.75 10.55 17.08 9.91 17.08 9.91 17.22 10.37 17.22 10.37 17.5 9.91 17.5 9.91 17.63 10.55 17.63 10.55 17.96 9.52 17.96 9.52 16.75 9.52 16.75 9.52 16.75"/>
  <path class="cls-1" d="M2.91,17.48l-.17-.46s-.01,0-.01,0c-.03.08-.17.46-.17.46h.35ZM2.49,16.75h.5l.47,1.21h-.42l-.08-.21h-.45l-.08.21h-.41l.47-1.21h0Z"/>
</svg>