<?xml version="1.0" encoding="UTF-8"?>
<svg id="Layer_1" data-name="Layer 1" xmlns="http://www.w3.org/2000/svg" viewBox="0 0 20.13 14.63">
  <defs>
    <style>
      .cls-1 {
        fill: #231f20;
      }
    </style>
  </defs>
  <polygon class="cls-1" points="1.33 .5 .06 .5 .06 2.2 .36 2.2 .36 1.51 1.22 1.51 1.22 1.23 .36 1.23 .36 .77 1.33 .77 1.33 .5 1.33 .5"/>
  <path class="cls-1" d="M3.09.5h-.3v.98c0,.31-.16.48-.43.48s-.43-.17-.43-.49V.5h-.3v.98c0,.5.28.75.73.75s.73-.26.73-.77V.5h0Z"/>
  <polygon class="cls-1" points="4.7 1.68 3.78 .5 3.51 .5 3.51 2.2 3.8 2.2 3.8 .99 4.74 2.2 4.99 2.2 4.99 .5 4.7 .5 4.7 1.68 4.7 1.68"/>
  <path class="cls-1" d="M6.66,1.35c0,.34-.23.58-.59.58h-.34V.77h.34c.36,0,.59.25.59.58h0ZM6.98,1.35c0-.48-.37-.85-.91-.85h-.64v1.71h.64c.54,0,.91-.37.91-.86h0Z"/>
  <path class="cls-1" d="M8.26,1.52h-.59l.29-.68.3.68h0ZM8.11.48h-.28l-.75,1.72h.31l.18-.41h.81l.17.41h.32l-.75-1.72h0Z"/>
  <path class="cls-1" d="M9.65,2.22l-.19.28.26.11.16-.38c.29-.01.47-.13.64-.3l-.19-.2c-.15.14-.28.22-.49.22-.33,0-.56-.27-.56-.61s.24-.61.56-.61c.2,0,.34.09.48.21l.19-.22c-.16-.16-.35-.27-.67-.27-.52,0-.88.4-.88.89,0,.43.29.79.7.86h0Z"/>
  <path class="cls-1" d="M11.8,1.52h-.59l.29-.68.3.68h0ZM11.64.48h-.28l-.75,1.72h.31l.18-.41h.81l.17.41h.32l-.75-1.72h0ZM11.97.05l-.16-.05c-.04.08-.06.12-.13.12-.09,0-.22-.1-.35-.1-.15,0-.22.11-.27.3l.16.05c.04-.08.06-.12.13-.12.09,0,.22.1.35.1.15,0,.22-.11.27-.3h0Z"/>
  <path class="cls-1" d="M13.98,1.35c0,.33-.24.6-.58.6s-.58-.28-.58-.61.24-.61.58-.61.58.28.58.61h0ZM14.3,1.35c0-.48-.37-.88-.89-.88s-.9.4-.9.89.37.88.89.88.9-.4.9-.89h0Z"/>
  <path class="cls-1" d="M10.6,5.41c0-1.27,1.03-2.3,2.3-2.3s2.3,1.03,2.3,2.3c0,1.12-.8,2.05-1.86,2.26.33.29.76.46,1.23.46.97,0,1.77-.73,1.87-1.67h.42c-.11,1.17-1.09,2.09-2.29,2.09-.72,0-1.35-.33-1.78-.84-1.22-.05-2.2-1.06-2.2-2.3h0ZM11.02,5.41c0,1.04.84,1.88,1.88,1.88s1.88-.84,1.88-1.88-.84-1.88-1.88-1.88-1.88.84-1.88,1.88h0Z"/>
  <path class="cls-1" d="M9.23,5.33h-.6v1.91h-.42V3.24h1.1c.58,0,1.05.47,1.05,1.05,0,.46-.29.85-.71.99l1.4,3.23h-.45s-1.38-3.17-1.38-3.17h0ZM8.63,4.91h.68c.35,0,.63-.28.63-.63s-.28-.63-.63-.63h-.68v1.25h0Z"/>
  <polygon class="cls-1" points="7.47 14.63 7.47 9.37 7.89 9.37 7.89 14.21 10.16 14.21 10.16 14.63 7.47 14.63 7.47 14.63"/>
  <path class="cls-1" d="M16.48,3.24h.41v2.12c0,.34-.28.62-.62.62s-.62-.28-.62-.62v-2.12h.41v2.12c0,.11.09.21.21.21s.21-.09.21-.21v-2.12h0Z"/>
  <path class="cls-1" d="M7.93,8.5l-.52-1.25h-2.57l-.52,1.25h-.45l2.18-5.26h.15l2.18,5.26h-.45ZM7.23,6.82l-1.11-2.68-1.11,2.68h2.22Z"/>
  <polygon class="cls-1" points="17.75 8.08 18.57 8.08 18.57 8.5 17.34 8.5 17.34 3.24 18.57 3.24 18.57 3.65 17.75 3.65 17.75 6.82 18.45 6.82 18.45 7.24 17.75 7.24 17.75 8.08 17.75 8.08"/>
  <polygon class="cls-1" points="8.73 9.37 10.18 12.87 11.62 9.37 12.07 9.37 10.24 13.8 10.12 13.8 8.29 9.37 8.73 9.37 8.73 9.37"/>
  <polygon class="cls-1" points="6.61 9.37 7.01 9.37 7.01 14.63 6.61 14.63 6.61 9.37 6.61 9.37"/>
  <path class="cls-1" d="M5.4,12.03c-.12-.37-.29-.93-.29-1.42,0-.73.44-1.24.87-1.24h.22v.41c-.48,0-.66.43-.66.84,0,.46.16.98.27,1.35,0,.02.01.05.02.07.11.37.25.9.25,1.36,0,.73-.44,1.24-.88,1.24h-.22v-.41c.49,0,.66-.43.66-.84,0-.46-.14-.99-.25-1.36h0Z"/>
  <path class="cls-1" d="M.78,9.33c.91.02,1.64.71,1.64,1.62s-.73,1.6-1.64,1.62h-.78s0-3.24,0-3.24h.78ZM.75,12.16c.69,0,1.25-.51,1.25-1.2s-.56-1.2-1.25-1.2h-.33v2.41h.33Z"/>
  <polygon class="cls-1" points=".43 4.5 .43 8.5 .01 8.5 .01 3.24 .11 3.24 1.8 5.63 3.5 3.24 3.6 3.24 3.6 8.5 3.18 8.5 3.18 4.5 1.85 6.3 1.76 6.3 .43 4.5 .43 4.5"/>
  <path class="cls-1" d="M19.34,5.89c-.12-.37-.29-.93-.29-1.42,0-.72.43-1.23.87-1.23h.21v.4c-.48,0-.66.43-.66.83,0,.46.15.98.27,1.35,0,.02.01.05.02.07.11.37.25.92.25,1.37,0,.72-.43,1.23-.87,1.23h-.21v-.4c.48,0,.66-.43.66-.83,0-.46-.14-1-.25-1.37h0Z"/>
  <path class="cls-1" d="M14.62,14.63l-.52-1.26h-2.57l-.52,1.25h-.45l2.18-5.26h.15l2.18,5.26h-.45ZM13.92,12.96l-1.11-2.68-1.11,2.68h2.22Z"/>
  <path class="cls-1" d="M4.13,11.61h-1.1s.55-1.4.55-1.4l.55,1.4h0ZM4.97,12.55l-1.32-3.18h-.15l-1.32,3.18h.45l.22-.54h1.44s.22.54.22.54h.45Z"/>
</svg>