<?xml version="1.0" encoding="UTF-8"?>
<svg id="Layer_1" data-name="Layer 1" xmlns="http://www.w3.org/2000/svg" viewBox="0 0 64.54 14.78">
  <defs>
    <style>
      .cls-1 {
        fill: #231f20;
      }
    </style>
  </defs>
  <path class="cls-1" d="M29.5,3.54c-.31-.16-.68-.24-1.12-.24h-1.85v4.32h1.85c.44,0,.81-.09,1.12-.26.31-.17.55-.42.71-.75.16-.33.25-.72.25-1.18h0c0-.47-.08-.85-.25-1.17-.16-.32-.4-.55-.71-.72ZM29.17,5.43c0,.27-.04.49-.11.66-.07.17-.18.31-.32.39-.14.09-.32.13-.53.13h-.4s0-2.3,0-2.3h.4c.2,0,.37.04.52.13.14.09.26.21.33.38.08.17.12.37.12.61h0Z"/>
  <polygon class="cls-1" points="32.43 7.62 35.47 7.62 35.47 6.61 33.7 6.61 33.7 5.93 35.36 5.93 35.36 4.99 33.7 4.99 33.7 4.3 35.47 4.3 35.47 3.3 32.43 3.3 32.43 7.62"/>
  <path class="cls-1" d="M40.57,5.23c-.2-.11-.46-.19-.77-.24l-.43-.08c-.22-.04-.37-.09-.47-.14-.1-.05-.15-.13-.15-.23h0c0-.07.02-.13.06-.18.04-.05.1-.09.18-.13.08-.03.18-.05.29-.05s.22.02.31.05c.09.03.16.08.22.13.05.06.09.13.09.21v.03s1.17,0,1.17,0v-.07c-.01-.27-.09-.5-.23-.7-.14-.2-.34-.35-.6-.46-.26-.11-.59-.16-.97-.16-.34,0-.65.06-.91.17-.27.12-.48.28-.63.49-.15.21-.23.46-.23.75h0c0,.34.11.61.34.83.23.21.56.36.99.43l.43.08c.24.04.41.09.51.14s.15.13.15.23h0c0,.08-.02.14-.07.19-.05.06-.12.1-.21.13-.09.03-.2.05-.33.05-.12,0-.23-.02-.33-.05-.1-.03-.18-.08-.25-.14s-.11-.13-.13-.2v-.03s-1.17,0-1.17,0v.06c.02.28.1.52.26.72.15.2.37.35.64.45.27.1.6.16.97.16.4,0,.74-.06,1.02-.18.28-.12.5-.29.65-.51.15-.22.22-.48.22-.77h0c0-.24-.05-.44-.15-.6-.1-.16-.25-.3-.45-.41Z"/>
  <polygon class="cls-1" points="43.11 7.62 46.16 7.62 46.16 6.61 44.38 6.61 44.38 5.93 46.05 5.93 46.05 4.99 44.38 4.99 44.38 4.3 46.16 4.3 46.16 3.3 43.11 3.3 43.11 7.62"/>
  <polygon class="cls-1" points="50.82 5.51 50.8 5.51 49.28 3.3 48.22 3.3 48.22 7.62 49.49 7.62 49.49 5.37 49.51 5.37 51.05 7.62 52.09 7.62 52.09 3.3 50.82 3.3 50.82 5.51"/>
  <polygon class="cls-1" points="56.95 4.94 55.43 4.94 55.43 3.3 54.16 3.3 54.16 7.62 55.43 7.62 55.43 5.95 56.95 5.95 56.95 7.62 58.22 7.62 58.22 3.3 56.95 3.3 56.95 4.94"/>
  <path class="cls-1" d="M64.28,4.26c-.18-.33-.43-.59-.75-.77-.33-.18-.71-.27-1.16-.27s-.83.09-1.15.27c-.33.18-.58.44-.75.77-.18.33-.27.73-.27,1.19h0c0,.46.09.86.27,1.2.18.34.43.59.75.77.33.18.71.27,1.16.27s.84-.09,1.16-.27c.33-.18.58-.44.75-.77.18-.33.27-.73.27-1.19h0c0-.46-.09-.86-.27-1.19ZM63.25,5.46c0,.25-.04.46-.11.64s-.17.32-.31.42c-.13.1-.29.15-.47.15s-.33-.05-.46-.15c-.13-.1-.23-.23-.31-.41-.07-.18-.11-.39-.11-.64h0c0-.26.04-.47.11-.65.07-.18.18-.32.31-.41.13-.1.29-.14.46-.14s.34.05.47.15c.13.1.24.23.31.41.07.18.11.39.11.64h0Z"/>
  <polygon class="cls-1" points=".64 4.52 0 4.52 0 7.56 1.97 7.56 1.97 7.04 .64 7.04 .64 4.52"/>
  <path class="cls-1" d="M4.64,6.43c0,.13-.02.24-.07.34-.05.1-.12.17-.22.22s-.21.08-.35.08-.25-.03-.35-.08-.17-.13-.22-.22c-.05-.1-.07-.21-.07-.34v-1.91h-.64v1.97c0,.22.05.42.16.59.1.17.25.3.44.4.19.09.42.14.68.14s.49-.05.68-.14c.19-.09.34-.23.44-.4.1-.17.16-.37.16-.59v-1.97h-.64v1.91Z"/>
  <path class="cls-1" d="M7.66,6.41h.69s0,.04,0,.04c0,.12-.04.23-.1.33s-.15.17-.25.22c-.11.05-.23.08-.37.08-.13,0-.24-.02-.34-.07-.1-.05-.19-.12-.26-.21-.07-.09-.13-.2-.17-.33s-.06-.28-.06-.44h0c0-.22.03-.4.1-.55.06-.15.16-.27.28-.35.12-.08.26-.12.43-.12s.32.04.43.12.2.2.25.34v.02s.65,0,.65,0v-.03c-.04-.19-.12-.36-.23-.51-.12-.15-.27-.27-.46-.36s-.4-.13-.65-.13c-.3,0-.55.06-.77.19-.22.12-.39.3-.5.54-.12.23-.18.51-.18.84h0c0,.25.03.47.1.67s.16.36.29.5c.13.14.28.24.46.31s.38.11.61.11c.21,0,.4-.03.57-.09.17-.06.31-.15.43-.26.12-.12.2-.26.27-.42.06-.16.09-.35.09-.56v-.35h-1.32v.48Z"/>
  <path class="cls-1" d="M11.21,4.52h-.18s-.38,0-.38,0l-1.06,3.04h.67s.23-.74.23-.74h1.07s.23.74.23.74h.67s-1.06-3.04-1.06-3.04h-.19ZM10.63,6.35l.38-1.24h.01s.38,1.24.38,1.24h-.78Z"/>
  <path class="cls-1" d="M15.44,6.04c.1-.16.15-.33.15-.53h0c0-.21-.04-.38-.13-.53s-.21-.26-.37-.33c-.16-.08-.36-.12-.58-.12h-1.26v3.04h.64v-1.1s.48,0,.48,0h.02s.01,0,.02,0l.56,1.1h.72s-.64-1.2-.64-1.2c.17-.07.3-.18.4-.33ZM14.94,5.5c0,.15-.04.27-.13.35s-.21.13-.37.13h-.55s0-.96,0-.96h.54c.16,0,.28.04.37.13.09.09.14.2.14.35h0Z"/>
  <path class="cls-1" d="M19.75,4.7c-.22-.12-.48-.17-.78-.17h-1.16v3.04h1.16c.31,0,.57-.06.78-.18s.38-.3.5-.52c.11-.23.17-.5.17-.83h0c0-.33-.06-.6-.17-.82-.12-.22-.28-.39-.5-.51ZM19.77,6.03c0,.22-.03.4-.1.55-.07.15-.17.26-.3.34-.13.08-.29.11-.48.11h-.45s0-1.99,0-1.99h.45c.19,0,.34.04.47.11.13.08.23.19.3.33.07.15.1.32.1.54h0Z"/>
  <path class="cls-1" d="M23.97,5.2c-.12-.23-.29-.41-.51-.54-.22-.13-.48-.19-.78-.19s-.56.06-.78.19c-.22.13-.39.31-.51.54s-.18.51-.18.84h0c0,.33.06.61.18.84.12.24.29.42.51.54.22.13.48.19.78.19s.56-.06.78-.19c.22-.13.39-.31.51-.54.12-.23.18-.51.18-.84h0c0-.33-.06-.61-.18-.84ZM23.5,6.04c0,.21-.03.39-.1.55-.07.15-.16.27-.28.36-.12.09-.27.13-.44.13s-.31-.04-.43-.13c-.12-.08-.22-.2-.28-.36-.07-.15-.1-.34-.1-.55h0c0-.22.03-.4.1-.55.07-.15.16-.27.28-.36s.27-.13.43-.13.31.04.43.13.22.2.28.36c.07.15.1.34.1.55h0Z"/>
  <polygon class="cls-1" points=".11 11.03 .25 11.03 .25 10.54 .74 10.54 .74 10.42 .25 10.42 .25 10.03 .79 10.03 .79 9.91 .11 9.91 .11 11.03"/>
  <path class="cls-1" d="M1.89,10.63c0,.06-.01.11-.04.15s-.06.08-.1.1-.1.04-.16.04-.12-.01-.17-.04-.08-.06-.1-.1-.04-.09-.04-.15v-.72h-.14v.73c0,.08.02.15.05.21s.09.11.15.14.15.05.24.05.17-.02.24-.05.12-.08.15-.14.05-.13.05-.21v-.73h-.14v.72Z"/>
  <polygon class="cls-1" points="3.19 10.79 3.19 10.79 2.57 9.91 2.44 9.91 2.44 11.03 2.57 11.03 2.57 10.14 2.58 10.14 3.19 11.03 3.33 11.03 3.33 9.91 3.19 9.91 3.19 10.79"/>
  <path class="cls-1" d="M4.4,9.97c-.08-.04-.17-.07-.28-.07h-.38v1.12h.38c.11,0,.21-.02.28-.07s.14-.11.18-.19.06-.18.06-.3h0c0-.12-.02-.22-.06-.3s-.1-.15-.18-.19ZM4.5,10.47c0,.09-.02.17-.05.24s-.08.11-.13.15-.13.05-.22.05h-.23s0-.87,0-.87h.23c.08,0,.16.02.22.05s.1.08.13.15.05.14.05.24h0Z"/>
  <path class="cls-1" d="M5.41,9.91h-.03s-.07,0-.07,0l-.42,1.12h.15s.11-.32.11-.32h.45s.11.32.11.32h.15s-.42-1.12-.42-1.12h-.03ZM5.19,10.59l.18-.51h0s.18.51.18.51h-.37Z"/>
  <path class="cls-1" d="M6.29,10.23c.03-.07.07-.12.13-.16s.12-.06.19-.06c.05,0,.1,0,.14.03s.08.04.11.07.05.07.06.12v.02s.15,0,.15,0h0c-.01-.08-.04-.14-.08-.19s-.1-.09-.16-.12-.13-.04-.21-.04c-.1,0-.19.02-.27.07s-.14.11-.18.2-.06.19-.06.31h0c0,.12.02.22.06.31s.1.15.18.2c.07.04.15.06.23.07l-.05.08v.07h.04s.05,0,.07.01.02.02.02.04h0s0,.03-.02.04-.03.01-.05.01c-.02,0-.03,0-.05,0s-.03,0-.04,0v.09s.03.01.05.01.04,0,.07,0c.03,0,.06,0,.08-.02s.05-.03.06-.05.02-.05.02-.08h0s-.01-.08-.04-.1-.06-.03-.1-.04l.05-.07c.05,0,.1-.01.15-.03.06-.03.12-.07.16-.12s.07-.12.08-.19h0s-.14,0-.14,0h0c-.02.06-.04.1-.07.13s-.06.06-.11.08-.09.03-.14.03c-.07,0-.14-.02-.19-.06s-.1-.09-.13-.16-.05-.15-.05-.24h0c0-.09.02-.17.05-.24Z"/>
  <path class="cls-1" d="M7.69,9.81s0-.05,0-.07.02-.02.03-.02c.01,0,.02,0,.03.01s.02.02.03.03l.03.02s.03.02.05.03.04.01.06.01c.04,0,.07-.02.09-.05s.03-.08.03-.14h0s-.09,0-.09,0h0s0,.06,0,.08-.02.02-.03.02c-.01,0-.02,0-.03-.01s-.02-.02-.04-.03l-.03-.02s-.03-.02-.04-.03-.03-.01-.06-.01c-.04,0-.07.02-.09.05s-.03.08-.03.14h0s.09,0,.09,0h0Z"/>
  <path class="cls-1" d="M7.86,9.91h-.03s-.07,0-.07,0l-.42,1.12h.15s.11-.32.11-.32h.45s.11.32.11.32h.15s-.42-1.12-.42-1.12h-.03ZM7.64,10.59l.18-.51h0s.18.51.18.51h-.37Z"/>
  <path class="cls-1" d="M9.34,9.96c-.08-.05-.17-.07-.27-.07s-.2.02-.27.07-.14.11-.18.2-.06.19-.06.31h0c0,.12.02.22.06.31s.1.15.18.2.17.07.28.07.2-.02.27-.07.14-.11.18-.2.06-.19.06-.31h0c0-.12-.02-.22-.06-.31s-.1-.15-.18-.2ZM9.44,10.47c0,.09-.02.17-.05.24s-.07.12-.13.16-.12.06-.2.06-.14-.02-.2-.06-.1-.09-.13-.16-.05-.15-.05-.24h0c0-.09.02-.17.05-.24s.07-.12.13-.16.12-.05.2-.05.14.02.2.05.1.09.13.16.05.15.05.24h0Z"/>
  <path class="cls-1" d="M10.9,10.71c0,.07-.02.12-.05.16s-.08.05-.14.05c-.04,0-.07,0-.09-.02s-.04-.03-.06-.06-.02-.05-.02-.08h0s-.14,0-.14,0h0c0,.05.01.09.03.12s.04.06.06.09.06.05.1.06.08.02.13.02c.07,0,.13-.01.18-.04s.09-.07.11-.12.04-.11.04-.18v-.8h-.14v.8Z"/>
  <polygon class="cls-1" points="12.09 9.59 11.95 9.59 11.82 9.82 11.93 9.82 12.09 9.59"/>
  <path class="cls-1" d="M12.19,10.63c0,.06-.01.11-.04.15s-.06.08-.1.1-.1.04-.16.04-.12-.01-.17-.04-.08-.06-.1-.1-.04-.09-.04-.15v-.72h-.14v.73c0,.08.02.15.05.21s.09.11.15.14.15.05.24.05.17-.02.24-.05.12-.08.15-.14.05-.13.05-.21v-.73h-.14v.72Z"/>
  <polygon class="cls-1" points="12.88 9.91 12.74 9.91 12.74 11.03 13.42 11.03 13.42 10.9 12.88 10.9 12.88 9.91"/>
  <rect class="cls-1" x="13.77" y="9.91" width=".14" height="1.12"/>
  <path class="cls-1" d="M15.06,9.96c-.08-.05-.17-.07-.27-.07s-.2.02-.27.07-.14.11-.18.2-.06.19-.06.31h0c0,.12.02.22.06.31s.1.15.18.2.17.07.28.07.2-.02.27-.07.14-.11.18-.2.06-.19.06-.31h0c0-.12-.02-.22-.06-.31s-.1-.15-.18-.2ZM15.16,10.47c0,.09-.02.17-.05.24s-.07.12-.13.16-.12.06-.2.06-.14-.02-.2-.06-.1-.09-.13-.16-.05-.15-.05-.24h0c0-.09.02-.17.05-.24s.07-.12.13-.16.12-.05.2-.05.14.02.2.05.1.09.13.16.05.15.05.24h0Z"/>
  <path class="cls-1" d="M16.9,10.44c.04-.06.06-.12.06-.2h0c0-.07-.01-.13-.04-.18s-.07-.09-.12-.12-.12-.04-.19-.04h-.42v1.12h.14v-.44s.26,0,.26,0h0s.24.44.24.44h.16s-.26-.46-.26-.46c.07-.02.12-.06.16-.12ZM16.32,10.46v-.43s.26,0,.26,0c.07,0,.13.02.17.06s.06.09.06.16h0c0,.07-.02.12-.06.16s-.09.06-.17.06h-.27Z"/>
  <polygon class="cls-1" points="17.33 11.03 18.02 11.03 18.02 10.9 17.47 10.9 17.47 10.52 17.99 10.52 17.99 10.39 17.47 10.39 17.47 10.03 18.02 10.03 18.02 9.91 17.33 9.91 17.33 11.03"/>
  <path class="cls-1" d="M19.04,10.47s-.11-.05-.19-.07l-.12-.03c-.07-.02-.13-.04-.16-.07s-.05-.07-.05-.11h0s.01-.07.03-.1.05-.05.09-.06.08-.02.13-.02.09,0,.13.02.07.04.09.06.04.06.04.1h0s.14.01.14.01h0c0-.07-.02-.13-.06-.17s-.08-.08-.14-.11-.12-.04-.2-.04-.14.01-.2.04-.11.06-.14.11-.05.1-.05.16h0c0,.08.03.15.08.2s.13.09.24.11l.12.03c.08.02.13.04.17.07s.05.07.05.12h0s-.01.07-.03.1-.05.05-.09.07-.09.02-.14.02-.1,0-.14-.02-.07-.04-.1-.06-.04-.06-.05-.1h0s-.14-.01-.14-.01h0c0,.07.02.13.06.18s.08.08.15.11.13.04.21.04c.09,0,.16-.01.22-.04s.11-.06.14-.11.05-.11.05-.17h0c0-.06-.01-.11-.03-.15s-.06-.07-.11-.1Z"/>
  <polygon class="cls-1" points="19.53 11.03 20.22 11.03 20.22 10.9 19.67 10.9 19.67 10.52 20.19 10.52 20.19 10.39 19.67 10.39 19.67 10.03 20.22 10.03 20.22 9.91 19.53 9.91 19.53 11.03"/>
  <polygon class="cls-1" points="21.35 10.79 21.35 10.79 20.73 9.91 20.6 9.91 20.6 11.03 20.74 11.03 20.74 10.14 20.74 10.14 21.36 11.03 21.49 11.03 21.49 9.91 21.35 9.91 21.35 10.79"/>
  <path class="cls-1" d="M22.56,9.97c-.08-.04-.17-.07-.28-.07h-.38v1.12h.38c.11,0,.21-.02.28-.07s.14-.11.18-.19.06-.18.06-.3h0c0-.12-.02-.22-.06-.3s-.1-.15-.18-.19ZM22.66,10.47c0,.09-.02.17-.05.24s-.08.11-.13.15-.13.05-.22.05h-.23s0-.87,0-.87h.23c.08,0,.16.02.22.05s.1.08.13.15.05.14.05.24h0Z"/>
  <polygon class="cls-1" points="23.86 10.03 23.86 9.91 23.17 9.91 23.17 11.03 23.86 11.03 23.86 10.9 23.31 10.9 23.31 10.52 23.83 10.52 23.83 10.39 23.31 10.39 23.31 10.03 23.86 10.03"/>
</svg>