<?xml version="1.0" encoding="UTF-8"?>
<svg id="Camada_1" data-name="Camada 1" xmlns="http://www.w3.org/2000/svg" xmlns:xlink="http://www.w3.org/1999/xlink" viewBox="0 0 30 30">
  <defs>
    <style>
      .cls-1 {
        fill: none;
      }

      .cls-2 {
        clip-path: url(#clippath-1);
      }

      .cls-3 {
        clip-path: url(#clippath-3);
      }

      .cls-4 {
        clip-path: url(#clippath-2);
      }

      .cls-5 {
        clip-path: url(#clippath);
      }
    </style>
    <clipPath id="clippath">
      <rect class="cls-1" x="3.8" y="4.54" width="22.4" height="20.93"/>
    </clipPath>
    <clipPath id="clippath-1">
      <rect class="cls-1" x="3.8" y="4.54" width="22.4" height="20.93"/>
    </clipPath>
    <clipPath id="clippath-2">
      <rect class="cls-1" x="3.8" y="4.54" width="22.4" height="20.93"/>
    </clipPath>
    <clipPath id="clippath-3">
      <rect class="cls-1" x="3.8" y="4.54" width="22.4" height="20.93"/>
    </clipPath>
  </defs>
  <g class="cls-5">
    <path d="M20.08,21.54l-.04.07-.03.02h-.06s-.1-.05-.1-.05l-.12-.1s-.08-.09-.11-.17v-.05s-.02-.1-.02-.1c0-.07.02-.12.07-.16.05-.04.1-.06.16-.06.05,0,.1,0,.14.03l.1.08.06.12s.02.1.02.14v.11s-.05.1-.05.1M19.88,21.75l-.07.03h-.1c-.08.01-.14,0-.19-.04-.04-.03-.08-.07-.1-.12l-.04-.13v-.09s0-.08,0-.08l.03-.05.04-.03v.02s.04.11.04.11l.06.09.05.07.03.03.11.07.1.03.08.02h.03s-.06.05-.06.05M20.93,21.32h-.04s-.04.02-.04.02l-.1.11s-.1.07-.16.09c-.06.03-.13.05-.2.06-.07.01-.14.02-.21.02h-.07s.06-.09.09-.16c.02-.06.04-.12.04-.19,0-.08-.02-.16-.05-.23-.03-.06-.07-.11-.12-.16-.05-.05-.13-.07-.23-.07-.08,0-.14.01-.18.05-.05.03-.09.07-.12.11-.04.04-.06.09-.08.14v.03s-.05.01-.05.01l-.05.02-.07.07-.03.05-.02.03s-.07.09-.12.16c-.05.07-.11.12-.18.18-.06.06-.13.11-.2.15-.07.04-.13.06-.18.06-.06,0-.09-.03-.11-.08-.02-.05-.03-.12-.03-.19v-.12s.03-.08.03-.08l.02-.07.03-.07.03-.07v-.04s0-.05,0-.05l-.06-.03h-.05s-.06.04-.06.04l-.08.03h-.09s-.03,0-.03,0l.02-.03.04-.05.04-.05.02-.04s-.02-.04-.07-.05c-.05,0-.08.01-.11.04l-.07.08-.03.1v.1s.03.06.03.06l.1.04h.07s.09-.03.09-.03l.07-.02.02.02v.04s-.05.1-.05.1c-.01.04-.02.08-.03.13,0,.05-.01.1-.01.15,0,.08.02.14.07.19.04.04.09.06.16.06.07,0,.13-.01.19-.03.06-.02.12-.05.18-.09.06-.04.13-.1.2-.18.05-.05.09-.1.15-.17l.02.12c.01.05.04.1.06.14.03.04.07.08.12.11.05.03.11.04.18.04h.08l.1-.02.12-.07s.09-.07.14-.13c.05,0,.1,0,.15,0,.07,0,.13,0,.2-.02.07,0,.13-.03.2-.05.06-.02.12-.06.17-.09.06-.04.1-.09.15-.15l.03-.06-.02-.03M15.77,21.52l-.04.07-.03.02h-.05s-.1-.05-.1-.05l-.12-.09s-.08-.09-.11-.17l-.02-.05v-.1c0-.07.02-.12.06-.16.05-.04.1-.06.16-.06.05,0,.1,0,.14.03l.09.08.05.12s.02.09.02.14v.11s-.05.1-.05.1M15.59,21.73l-.07.03h-.1c-.08.01-.15,0-.19-.04-.04-.03-.08-.07-.1-.12l-.04-.13v-.09s0-.08,0-.08l.02-.05.04-.03v.02s.04.11.04.11l.06.09.05.07.03.03.11.08.1.03h.08s.03.02.03.02l-.06.04M18.02,21.43h-.04s-.04.01-.04.01l-.03.06-.08.11s-.08.08-.12.11c-.05.03-.1.05-.16.05l-.11-.05-.08-.11s-.03-.08-.04-.14c0-.05-.01-.09-.01-.13v-.18s.03-.06.03-.06v-.02l-.02-.03h-.04s-.05.04-.05.04c-.01.03-.03.08-.06.14-.02.06-.06.12-.09.18-.04.06-.08.11-.12.16-.05.05-.09.07-.15.07l-.09-.05s-.04-.1-.04-.19v-.06s.03-.1.03-.1l.03-.12.04-.11v-.02s0-.03,0-.03l-.04-.02h-.03s-.01.03-.01.03c-.03.07-.06.13-.08.2l-.04.11v.02s-.06.08-.11.11c-.05.04-.1.07-.16.09-.06.03-.13.05-.19.06-.07.01-.14.02-.21.02h-.07s.06-.09.09-.16c.02-.06.04-.12.04-.19,0-.08-.02-.16-.05-.23-.02-.06-.07-.11-.12-.16-.05-.05-.13-.07-.23-.07-.07,0-.14.02-.18.05-.05.03-.09.07-.12.1-.03.04-.06.09-.08.15l-.02.03h-.03s-.05.04-.05.04l-.07.07-.06.11s-.02.08-.02.13,0,.09.02.15c.01.05.04.1.07.14.03.04.07.08.12.11.05.03.11.04.18.04h.08l.1-.02.12-.07s.09-.07.14-.13c.05,0,.1,0,.15,0,.07,0,.13,0,.2-.02.07,0,.13-.03.19-.05.06-.02.12-.06.18-.09l.04-.03v.07s0,.09,0,.09l.03.1.06.09s.07.03.11.03h.06s.09-.06.09-.06c.04-.02.08-.06.12-.1.04-.04.08-.1.13-.17l.02-.02.02.06s.01.08.03.13c.02.05.04.09.08.13.04.04.1.06.17.06h.1s.08-.04.14-.07c.05-.03.1-.07.16-.12.06-.05.11-.13.17-.22l.02-.03v-.03s-.01-.03-.01-.03M14.43,20.74l.09.1-.02.03-.06-.03s-.08-.05-.13-.08c-.05-.03-.1-.05-.15-.07-.06-.02-.1-.04-.15-.04l-.06-.03-.03-.08.02-.04.05-.02c.05,0,.1.01.15.04.05.03.1.06.16.1.05.04.09.08.13.12M13.63,21.14v.06l-.02.03c-.11-.01-.23-.04-.36-.08-.11-.03-.23-.08-.36-.15-.13-.06-.27-.15-.41-.26h-.01s0-.06,0-.06v-.43c0-.06,0-.13,0-.18,0-.06-.01-.1-.02-.14l-.04-.06h-.02l-.03.03s-.01.06-.01.11v.57h0s-.02,0-.02,0l-.04-.04-.08-.09s-.07-.08-.11-.13c-.04-.05-.08-.1-.11-.16-.03-.05-.06-.11-.09-.16-.02-.05-.03-.1-.03-.16v-.08s.06-.09.06-.09l.09-.07s.09-.02.16-.02c.08,0,.17.02.28.06.1.04.22.09.33.16.11.07.22.15.32.25.11.09.2.2.29.3.08.11.15.23.2.36.05.13.08.25.08.39v.05h0ZM13.52,21.44l-.09.1s-.08.06-.14.08c-.06.02-.11.04-.18.04-.05,0-.11,0-.19-.02-.08-.01-.15-.03-.23-.06-.08-.02-.14-.05-.19-.09-.05-.04-.08-.08-.08-.12v-.14s0-.09,0-.13v-.1s.02-.04.02-.04l.04.02c.09.06.18.11.28.17.08.04.18.08.3.12.11.04.23.06.36.07h.05s.04.01.04.01h.02s-.03.08-.03.08M12.27,22.27v.04s-.04.02-.04.02l-.03-.05s-.02-.07-.04-.12c-.02-.05-.03-.1-.04-.17-.01-.07-.02-.13-.03-.19,0-.07-.02-.13-.02-.19,0-.06,0-.11,0-.16l.02-.03.03.02.05.04.06.05.05.04h.02s0,.03,0,.03v.04l-.04.65h.01ZM14.31,21.19h-.02s-.02,0-.02,0h0s-.07.02-.12.03c-.04,0-.09.01-.14.01-.05,0-.09,0-.13,0h-.09l-.06-.04v-.06s.01-.05.01-.05v-.06c0-.12-.02-.24-.07-.36-.05-.12-.11-.25-.2-.36-.08-.12-.18-.23-.29-.33-.11-.1-.23-.19-.35-.27-.12-.08-.25-.14-.37-.19-.13-.04-.25-.06-.36-.06-.04,0-.08,0-.14.02-.05.01-.1.04-.16.07-.05.03-.09.07-.13.12-.04.05-.05.11-.05.18,0,.08.02.17.05.25.03.08.08.17.14.25.06.08.13.17.2.25.08.08.17.15.25.23l.02.03v.26c0,.05,0,.09,0,.13v.06s-.04-.01-.04-.01l-.05-.03-.05-.04-.03-.03-.05-.05-.06-.03-.05.04-.03.1v.11s-.01.08-.01.08c0,.11,0,.23.02.34.01.12.03.22.06.32.02.1.05.18.08.24.03.07.07.1.11.1l.07-.02.04-.04.02-.05v-.05s.03-.08.03-.08c0-.05,0-.1.01-.15,0-.06,0-.11,0-.18,0-.06,0-.11,0-.15v-.06l.02-.05s.1.06.17.08c.05.02.11.04.18.05.07.01.14.02.22.02.13,0,.24-.02.32-.06.08-.04.15-.08.2-.14.06-.06.1-.12.14-.2l.02-.03h.03c.11,0,.22,0,.31-.02.09,0,.17-.03.22-.06l.06-.03.03-.04v-.02s-.02-.01-.02-.01M10.35,20.83l.09-.1s.08-.09.14-.12c.05-.04.1-.08.15-.1.05-.03.1-.05.16-.05l.05.02.02.04-.03.08-.06.03s-.09.01-.15.04c-.05.02-.1.05-.15.08-.05.03-.09.05-.13.08l-.07.03v-.03M10.26,21.61v-.02s-.01-.04-.01-.04v-.06s0-.05.01-.09c0-.05.02-.09.04-.14.02-.05.05-.09.07-.13l.11-.06h.05s.03.07.03.07c0,.06-.02.12-.05.18-.03.06-.07.11-.1.15-.05.05-.09.1-.15.15M11.38,21.28l-.05-.02-.04.03s-.06.09-.11.15c-.05.06-.1.12-.15.17-.06.06-.13.1-.2.14-.07.04-.15.06-.23.06-.06,0-.11,0-.15-.01l-.08-.04-.04-.05c.08-.07.15-.14.21-.22.05-.06.1-.13.15-.2.05-.07.06-.14.06-.2l-.05-.11s-.08-.05-.15-.05c-.06,0-.11.02-.17.06-.06.04-.1.08-.15.14-.04.06-.08.11-.1.18-.02.07-.04.12-.04.17,0,.06,0,.11.01.17.01.06.03.11.06.16.03.05.07.08.13.11.06.03.14.04.24.04.07,0,.12,0,.18-.03.06-.02.12-.05.19-.1.07-.05.13-.11.21-.18.07-.08.16-.17.25-.28v-.02s.03-.02.03-.02v-.02s-.02-.03-.02-.03"/>
    <path d="M11.13,19.91H3.85v.08h7.28v-.08ZM26.14,19.99h-12.12v-.08h12.12v.08h0ZM25.15,17.19c-.11,0-.19,0-.25.02v.76c.07,0,.17,0,.27,0,.32,0,.52-.16.52-.41s-.21-.37-.53-.37M25.75,19.2l-.84-1.01h-.01v1.01h-.35v-2.26c.14,0,.37,0,.65,0,.55,0,.85.2.85.58,0,.4-.33.63-.77.65.07.06.14.15.22.24l.69.79h-.44ZM22.97,17.68c-.06-.14-.1-.28-.14-.39-.03.11-.08.25-.14.39l-.32.78h.92l-.32-.78h0ZM23.59,19.2l-.2-.5h-1.11l-.21.5h-.35l.94-2.26h.39l.93,2.26h-.39ZM20.92,19.2l-.2-1.32c-.04-.26-.06-.44-.07-.56h0c-.03.1-.07.24-.12.39l-.55,1.49h-.38l-.5-1.4c-.06-.16-.13-.35-.15-.48-.01.17-.03.35-.07.57l-.18,1.31h-.35l.36-2.26h.43l.53,1.45c.06.16.11.3.13.43.04-.15.08-.25.13-.41l.55-1.47h.46l.35,2.26h-.37ZM16.6,17.2c-.42,0-.79.3-.79.87,0,.48.2.89.77.89.45,0,.81-.3.81-.86s-.3-.9-.79-.9M16.56,19.24c-.77,0-1.12-.48-1.12-1.14,0-.75.55-1.18,1.19-1.18.7,0,1.13.41,1.13,1.14s-.53,1.18-1.2,1.18M13.67,17.21c-.11,0-.25,0-.36,0v1.72c.08,0,.24.01.34.01.59,0,1-.27,1-.87s-.33-.87-.98-.87M13.6,19.22c-.26,0-.46,0-.65,0v-2.26c.2,0,.51,0,.77,0,.8,0,1.29.33,1.29,1.11s-.6,1.16-1.4,1.16M11.55,19.21l-.98-1.41c-.1-.15-.2-.31-.28-.46h0c0,.16.02.33.02.59v1.28h-.33v-2.26h.46l.97,1.39c.1.14.2.3.29.46,0-.16-.02-.42-.02-.79v-1.06h.34v2.26h-.46,0ZM8.12,17.2c-.42,0-.79.3-.79.87,0,.48.2.89.77.89.45,0,.8-.3.8-.86s-.3-.9-.78-.9M8.08,19.25c-.77,0-1.12-.48-1.12-1.14,0-.75.55-1.18,1.19-1.18.7,0,1.13.41,1.13,1.14s-.53,1.18-1.2,1.18M6.25,16.69c-.26-.1-.55-.16-.82-.16-.65,0-1.24.4-1.24,1.23,0,.77.49,1.21,1.21,1.21.23,0,.41-.03.6-.08v-1.14h.35v1.35c-.31.11-.68.17-1.01.17-.92-.02-1.54-.56-1.54-1.47s.62-1.55,1.65-1.55c.29,0,.57.04.84.12l-.06.31v.02Z"/>
    <path d="M15.69,10.08c-.01.08-.02.16-.04.24l-.02.13c-.07,0-.15,0-.23,0,.02-.04.04-.09.05-.16l-.1.02s-.08-.02-.12-.04v-.15s.08.08.13.08c.04,0,.08-.03.12-.08v-.03h.21ZM10.74,6.44v-.04s.12,0,.12,0l-.02.06v.04c-.07.01-.1,0-.11,0v-.06M10.88,6.41l.1.02-.04.02v.08s0,0,0,0l-.06-.08.02-.05M11.28,6.26c.11-.04.19-.11.26-.18-.03.06-.06.11-.07.15-.06.13.03.16.14.17h-.03c-.17.02-.34.05-.46.14.03-.06.05-.11.05-.14-.05-.02-.17-.05-.28-.06.14,0,.3-.04.4-.08M10.93,6.19l.02-.03h.02c.06.02.14.05.15.09-.05,0-.1.01-.15.02l-.04-.08M11.18,6.1c.06-.02.09-.02.11-.01l.04.08v.02s-.03.02-.03.02c-.04.01-.09.03-.14.04l-.03-.04.05-.1M11.42,5.96l.11.05c-.04.06-.09.11-.15.15h0s-.05-.11-.05-.11c.02-.05.05-.09.09-.09M11.36,5.87l.05-.06h.05s.1.09.11.14l-.02.03c-.05-.05-.1-.06-.14-.06h-.01l-.03-.07M11.59,5.72l.09-.02c-.02.06-.05.13-.08.2l-.06-.08.06-.1ZM11.62,5.53l.08-.03.02.04v.02s-.03.1-.03.1l-.1.02v-.02s.02-.08.03-.12M11.8,5.5l.03-.13c.09,0,.17,0,.23,0-.11.09-.23.22-.34.39.03-.08.06-.17.08-.26M12.12,5.7v.11l.05.08c-.08.05-.15.06-.19.04-.06-.03-.06-.13-.06-.2.05-.07.09-.12.14-.17,0,.04.02.09.07.14M12.27,5.38c0,.07.01.15.16.25l-.07.08c-.09,0-.16-.01-.19-.05-.05-.04-.05-.11-.05-.15.06-.05.11-.09.16-.13M12.32,5.34c.08-.05.16-.07.23-.08v.07c0,.06-.02.12.03.16h0l-.04.09-.06.02c-.17-.1-.17-.17-.16-.25M12.72,4.93c0,.08.05.14.15.17-.1,0-.2.01-.27.03h-.05c.06-.04.11-.11.17-.2M13.07,5.24l-.07.07s0,.08.05.14l-.05.02c-.08-.03-.14-.08-.15-.13l.02-.1c.06,0,.13,0,.19,0M13.21,5.25l.06.02c0,.06,0,.15-.05.26-.16-.12-.18-.18-.17-.21,0-.02.08-.06.15-.07M13.4,5.17c.09.01.19.02.28.02-.18.08-.3.22-.39.38.06-.15.11-.3.11-.4M13.45,4.8c.08.01.19.02.31,0l.05.05c-.08.06-.12.12-.13.2-.09,0-.18-.01-.25-.02h-.06s-.07-.06-.07-.08c0-.05.08-.11.15-.15M13.12,5.77c-.06-.04-.07-.16-.08-.24v-.02l.06-.02.11.09c-.02.07-.05.13-.08.19M12.98,5.98l-.04.05-.03-.02c-.06-.03-.09-.06-.1-.08,0-.03.02-.07.06-.14.06.02.12.01.17-.02l.05.05c-.04.06-.08.12-.11.17M12.62,6.21c-.04-.07-.05-.13-.03-.17.03-.05.1-.08.18-.09.02.04.06.07.12.1h.02c-.08.08-.18.12-.28.16M12.72,6.36v.07c-.06.01-.1.05-.13.1-.08-.02-.13-.03-.15-.05-.02-.02,0-.06,0-.13v-.02h.04s.02,0,.02,0c.06,0,.13.01.21.03M12.41,6.8l.06.06s-.1.05-.14.03c-.07-.03-.08-.17-.07-.28.06-.01.11-.04.16-.08h.03c-.06.12-.07.21-.04.27M12.5,7.21c-.06.01-.13.02-.21.03-.03-.03-.08-.07-.08-.14,0-.05.03-.11.09-.17h.11c-.02.17.03.24.09.28M12.35,7.75h0l-.03.1-.06.02c-.2-.08-.22-.16-.22-.25.08-.07.16-.1.23-.13v.08c0,.06.01.14.08.16M12.16,8.02c-.09.02-.17.02-.22-.02-.06-.04-.08-.11-.09-.16.05-.07.1-.12.15-.17,0,.08.05.16.22.24l-.06.1ZM12.27,8.2l-.08.05c-.1-.02-.18-.05-.21-.1v-.08s.11.02.19,0c.02.05.06.09.1.13M12.03,8.51c-.06,0-.09-.06-.12-.11l-.02-.02s.1-.05.16-.1l.1.03.02.09.03.05c-.07.05-.12.07-.17.06M11.95,8.7c-.06.02-.12.02-.17.03h-.04s-.06-.03-.06-.03l.07-.12c.06,0,.13-.02.21-.05l.04.02c-.04.05-.06.1-.04.15M11.91,8.98l-.05.07v.06c-.12-.02-.16-.04-.16-.06l.04-.07.04-.06s.09.03.14.06M11.95,9l.12.07-.07.02s-.03.05-.02.1h-.04s-.06-.09-.05-.13l.05-.06M12.17,9.16s-.07.09-.13.15c-.05-.13-.04-.17-.03-.19.01,0,.07,0,.12.01l.03.03M12.21,9.76l.02.11c-.05-.08-.13-.18-.19-.23-.09-.08-.2-.1-.31-.1h.05c.12-.06.28-.16.4-.27-.01.14,0,.3.03.49M12.31,10.13h0s-.06-.02-.06-.02c-.04-.02-.09-.03-.15-.05.07-.02.13-.03.17-.04l.03.1M12.29,10.18l-.04.07s-.04,0-.09-.01l-.04-.09.02-.03.12.04h.03s0,.03,0,.03M12.31,10.36c-.03.06-.08.13-.12.13l-.06-.05.05-.02s.05-.07.05-.14h.02l.06.08M12.32,10.49c0,.05-.02.09-.05.11h-.04s0-.09,0-.09l.07-.06.03.04M12.38,10.67l-.11.06s-.08-.03-.12-.05l.07-.05h.07s.04-.05.04-.05l.05.09M12.29,10.98l-.02.09s-.09.05-.17.04l-.03-.03c.06-.02.09-.05.1-.08l-.03-.08c.05.02.1.05.16.07M12.34,11c.06.03.12.07.16.1l-.04.07-.06.08s-.07-.01-.16-.12l.06-.04.04-.09M12.44,11.53c-.02.06-.14.1-.24.11-.02-.04-.06-.08-.11-.11v-.03c.12.02.2.02.25-.02l.05-.06.06.11M12.63,11.63l-.03.06s-.1.04-.19.03l-.05-.06s.08-.04.11-.07c.06.03.11.05.16.05M12.6,11.88h-.02s-.12.07-.12.07c-.03,0-.07-.03-.11-.08l.03-.03.04-.07h.08c.03.06.07.09.09.12M12.66,12.07v.11s-.05.02-.05.02l-.03-.02-.12-.06s.02-.08,0-.13h.04c.05.03.1.06.14.08M12.74,12.42l-.02.05-.04.06s-.05-.01-.12-.08l.04-.03.02-.06.11.06M12.75,12.48l.02-.04.1.1s-.03.08-.16.1l-.03-.02v-.06l.06-.08M12.88,12.57l.06.11-.07.07s-.08,0-.12-.02v-.07c.09-.02.12-.06.14-.1M12.98,12.84l-.09.1s-.06-.02-.09-.07l.05-.03.03-.07.07-.06.03.12M12.99,12.93v.1s-.03.03-.03.03c-.04,0-.09-.01-.15-.05l.03-.02.02-.02h.02l.09-.08v.03M12.99,13.13c0,.08-.04.08-.09.06l.02-.02v-.08h.04l.03-.02v.06ZM12.89,13.15h-.04s-.02,0-.02,0l-.08-.04v-.09h.03s.1.05.1.05l.02.08M12.66,12.96l.02-.02.02-.05h.06l.07.08h-.01s-.09.05-.09.05l-.08-.06M12.72,13.11c-.05-.03-.11-.06-.17-.1l.08-.04.08.06v.08M12.49,12.97s.07-.07.07-.11h0s.07-.03.07-.03l.05.05-.02.04s-.09.07-.14.07l-.02-.02M12.48,12.94s-.09-.09-.12-.15h.01l.09-.03.08.09-.06.08M12.49,13.14h-.06l-.04-.02h-.04s.01-.06.01-.06h.09s.04.08.04.08M12.38,13.2h-.06v-.03l.07-.04h.03s-.04.06-.04.06M12.28,13.14h-.02v-.06s.07-.02.07-.02h0v.07l-.03.02h-.03M12.22,13.02l.02-.05v-.02s.03,0,.03,0l.03.04-.03.07h-.02s-.04-.03-.04-.03M12.24,13.14h-.06s.04-.1.04-.1l.03.04-.02.06M12.16,12.96v.02s-.06.02-.06.02l-.06-.08s.03-.08.04-.13h.03s.08.06.08.06l-.04.1M12,13.06l-.06-.06h.04s.04-.04.04-.04l.07.07h.03c-.03.07-.06.1-.13.03M11.9,12.97l-.08-.09-.03-.03c.05.01.11.02.15-.01l.02-.02h.09c-.01.07-.04.14-.08.16h-.07ZM11.75,12.8s-.07-.09-.09-.13h.12s.08.02.08.02h.07c.01.05,0,.1-.01.12-.04.03-.11,0-.17,0M11.58,12.48c.05.02.12.03.22-.04l.04.06c-.02.06-.05.1-.08.11-.05.02-.09.01-.13,0-.02-.05-.04-.09-.06-.14M11.56,12.27l.05.02.12.02h0l.05.05v.04c-.12.08-.17.07-.23.04-.02-.07-.01-.12,0-.18M11.51,11.67v.05s-.1.04-.1.04c-.05,0-.09-.09-.11-.15.03-.07.05-.16.07-.25l.06-.03c.04.08.08.12.16.14-.02.08-.05.15-.07.2M11.47,12.21c0,.05-.02.11-.01.18-.04-.06-.11-.11-.18-.15.1.03.17-.04.22-.15l-.02.11M11.53,12.93v.05s-.03.06-.03.06c-.01,0-.05,0-.12-.05l.03-.03v-.06s.12.04.12.04M11.56,12.94l.11.07s-.01.08-.12.12l-.03-.02v-.05s.03-.08.03-.08v-.04M11.28,12.99l-.02-.02.05-.06-.03-.05.1.02v.06s-.05.04-.1.05M11.14,12.75l-.03-.1.09.07.11.06c-.07-.01-.13-.03-.17-.03M11.09,12.52l.04-.05h.08s0,.05,0,.05c-.06.01-.08.04-.09.07l-.04-.07ZM11.04,12.75l-.03-.02h-.03l.02-.06.07.02.03.07h-.05ZM10.96,12.66h-.02l.05-.07h.03l.03.05v.02s-.06,0-.06,0h0s-.01,0-.01,0ZM10.92,12.66h-.01s-.03-.04-.03-.04l.03-.04h0s.02-.02.02-.02v.04s-.01.05-.01.05M11,12.57h-.04s-.02-.03-.02-.03h-.01.06l.02.03M11.27,12.33l-.06-.04v-.05s.11.06.11.06l-.05.02ZM11.33,12.4h0s-.04.02-.04.02l-.03-.03v-.03s.1-.05.1-.05h.02s-.04.08-.04.08M11.46,12.44l-.06.02-.05-.06.04-.06.08.09h0ZM11.47,12.56l-.06-.03v-.06l.05-.02h0l.02.1h-.02M11.44,12.67h-.02s0-.02,0-.02l.07-.08v.08l-.05.02ZM11.5,12.67l-.02.1h-.02l-.05-.05s.02-.03.09-.05M11.24,12.65l.02-.04s.03,0,.08.05l-.02.02-.02.04-.07-.04v-.03M11.25,12.54h.02v.05l-.04.05v.03s-.08-.06-.08-.06c0-.03.02-.06.1-.07M11.46,12.57l-.04.06h0s-.05.01-.05.01l-.04-.04.07-.06.06.02M11.4,12.53l-.08.06h-.02s.02-.08.02-.08h.09s0,.01,0,.01h0M11.35,12.42l.05.05h0s-.08,0-.1.03l-.02.03-.03-.05s.06-.05.1-.06M11.18,12.41l.08-.02.02.02-.05.04h-.08s.02-.04.02-.04M11.14,12.34l.06.04-.03.02-.02.04-.05.04-.02-.08.06-.07M11.23,12.3l.05.03v.02s-.03.03-.03.03h-.04l-.05-.05h0s.05-.04.05-.04ZM11.21,12.28h-.02s-.06-.03-.06-.03l-.02-.05h.03s.01,0,.01,0l.06.02v.06ZM11.08,12.27l.09.03-.02.02h-.01s-.01,0-.01,0l-.06.05v-.08s.01-.02.01-.02M11.1,12.25h-.05s0-.03,0-.03c0-.05.02-.05.06-.04h-.01v.07ZM11.41,12.75l-.07-.03v-.04s.08-.02.08-.02h.01s-.04.06-.04.06v.03ZM10.92,11.92h0c.1.09.22.2.3.26l.04.03-.11-.05c-.06-.02-.14-.06-.14.02,0,.04,0,.11.01.16,0,.06.02.11.03.15h0c-.04-.06-.08,0-.11.05l-.03.05c.09-.23.16-.45.03-.66M10.84,12.41l.02-.09.08-.02c-.01.06-.03.12-.05.17l-.05-.06ZM10.8,12.29l-.04-.02v-.06l.06-.03h0s.07.04.12.04v.03l-.15.03M10.63,12.19l-.02-.08h.05s.09-.02.13-.07h.01s0,.11,0,.11c-.06.04-.14.06-.17.04M10.57,12.04h0s.01-.04.01-.04c.04.02.11.02.16,0h.01s.03.03.03.03c-.04.05-.08.08-.11.08l-.09-.06M10.52,11.88l-.05-.04.05-.09.02.05h.09v.03l-.1.05M10.43,11.72c0-.06,0-.14,0-.21-.02-.12-.07-.29-.14-.45.08.17.19.36.37.57-.06-.04-.1-.07-.14-.08-.02.03-.06.09-.09.16M10.26,9.94v-.04c-.06-.02-.2-.02-.33-.02.26-.07.37-.2.43-.28l.03-.04c-.04.12-.08.26-.12.38M9.99,10.59h0c.07-.1.15-.25.2-.39v.05c-.04.19-.06.46.09.8-.09-.21-.2-.4-.3-.45M9.98,10.23v-.02h.04s.08.06.08.06c-.02.05-.04.1-.07.15-.05-.03-.06-.12-.06-.18M10.11,10.03h.05c0,.05,0,.13-.03.21-.12-.09-.14-.14-.14-.16,0-.02.06-.04.12-.05M9.96,10.19c-.07-.02-.11-.06-.12-.09l.02-.08h.15l-.06.05.04.11h-.03ZM9.96,9.72s0-.07.01-.11l.06-.02c.02.09.07.12.11.14-.03.02-.07.04-.11.05l-.08-.06M9.88,9.43l.08-.08h.02c0,.07,0,.12.03.15l.04.02-.07.04s-.08-.08-.1-.15M9.92,9.7l-.04-.02s-.04-.06-.03-.12l.04-.04.06.07-.02.1M9.91,9.24v-.02h.04s.12-.03.12-.03l.02.04-.05.08c-.05,0-.08,0-.09,0l-.03-.07M10.23,9.19l.03.08-.02.02h-.01s-.11-.06-.12-.1h.13ZM10.43,9.23v.03s-.08.07-.08.07c-.02,0-.05-.03-.08-.14.07,0,.13.02.16.04M10.24,9.04v-.07s.1-.03.1-.03l.04.04c-.06.05-.06.09-.06.12l-.08-.05M10.21,9.03l-.07-.07v-.09s.1,0,.1,0l-.02.04v.05s-.01.06-.01.06ZM10.11,8.93l-.02-.02-.05-.06v-.03s.08-.02.12-.02v.03s-.02.02-.02.02h-.02s-.03.09-.03.09M10.02,8.82l-.03-.04c-.03-.05,0-.06.04-.07v.02s.03.05.03.05l-.03.02v.02M9.89,8.3l-.02-.07.07.11c.07.09.17.22.36.31-.09,0-.19,0-.28.01h-.07c0-.11-.03-.24-.06-.37M9.88,8.74l-.08-.03c.01-.05.01-.09,0-.12l.07-.06c0,.05.02.11.02.17v.04ZM10.05,8.11l.04-.05c.1.09.11.14.1.16l-.08.04-.08.02s-.05-.08-.08-.15l.09-.03ZM10.07,7.86l.04-.11h.18c-.01.06-.1.1-.17.13h-.02s-.03-.02-.03-.02ZM10.18,7.36s.02-.1.08-.16h.08s0,.11,0,.11c-.06.03-.1.06-.12.1l-.03-.06M10.35,7.35l.09.03c-.07.13-.04.19,0,.25-.05,0-.11-.02-.18-.03-.01-.03-.04-.08-.02-.14.01-.04.06-.08.12-.11M10.41,7.07s.1,0,.16-.02l.02.02c-.08.07-.11.14-.11.2l.03.07s-.09.01-.12-.01c-.04-.05-.01-.16.03-.25M10.62,7.09l.06.03v.02c-.04.07-.03.17,0,.22l-.05.02h0s-.1-.07-.11-.13c0-.05.03-.1.1-.17M10.63,6.89v-.02s.06.02.06.02c.05.02.1.05.16.08l-.02.06c-.06,0-.1,0-.14.05-.07-.03-.1-.06-.11-.08,0-.02,0-.06.04-.1M10.58,6.72v-.04s.07-.01.07-.01l.03.04h-.01s-.02.07,0,.11h-.04s-.04-.11-.04-.11M10.63,6.57l.07-.03v.04s.04.06.1.09v.02s-.1.01-.1.01l-.06-.14ZM10.94,6.53v.09l-.09-.02-.02-.11h.08s.04.03.04.03h0M10.97,6.69l-.08.07-.03.02h-.01s-.04-.06-.04-.06l.05-.07h.09s.02.04.02.04M11,6.53l.04.06-.06.08v-.13s-.01-.01-.01-.01h.03ZM11.05,6.56c-.07-.08-.07-.1-.06-.12l.08-.02h.03s-.02.09-.05.14M11.17,6.63l-.02.07-.08.02-.03-.02.04-.08.02-.02h.01s.05.04.05.04M11.26,6.56l-.08.05-.06-.04h-.01s.12-.08.12-.08l.02.08ZM11.36,6.55v.03l-.05.02-.04-.03h0s-.02-.1-.02-.1h.02s.08.07.08.07M11.42,6.48l-.07.02-.05-.04c.05-.01.1-.02.15-.03l-.02.05M11.49,6.55h0s-.07.05-.07.05h-.04s0-.05,0-.05v-.02s.06-.02.06-.02l.05.05ZM11.6,6.51l.02.03-.03.07v.02s-.06-.08-.06-.08h-.02v-.02s-.02-.02-.02-.02c.05,0,.09-.02.11,0M11.81,6.8v.04c-.06.04-.1.08-.14.13h-.13v-.08l.03-.02.1-.11s.08.05.14.04M11.69,6.61s.05-.13.07-.17l-.02-.07h.07c.08,0,.17,0,.25,0-.13.07-.25.16-.38.26l.02-.03M11.79,6.1l.06.03s-.07.07-.06.12l.02.04c-.1,0-.16-.02-.1-.14l.05-.09.03.05ZM11.83,6.06l-.04-.08c.03-.05.06-.1.08-.15l.03-.05c0,.07.02.14.09.18h.04s.02.06.02.06l.03.06c-.11.01-.21.02-.25-.02M12.11,6.13l.03.03s-.07.08-.07.13h-.19l-.05-.05.08-.1c.05,0,.12,0,.19-.02M12.24,5.91l.09.04v.14c-.05.03-.1.04-.14.03-.05-.02-.07-.07-.1-.12v-.02s.09-.03.15-.07M12.46,5.88l-.08.03c-.09-.03-.15-.07-.17-.12v-.07s.11.04.18.04l.07.13M12.39,6.03v-.07l.1-.04.08.07v.02c-.04.05-.03.12.02.21l-.05.02c-.08-.03-.14-.13-.16-.2M12.14,6.28s.01-.07.07-.11c.05,0,.1,0,.17-.04l.09.11c-.11.02-.23.03-.33.03M12.23,6.55s-.08-.06-.11-.14c.05-.02.1-.05.15-.07.05,0,.1-.01.15-.02,0,.07-.02.12,0,.16-.06.04-.13.08-.19.07M12.14,6.99s-.02-.12.02-.2l.08-.04c0,.05.02.1.05.14-.05.05-.08.1-.09.16l-.06-.05M12.04,6.74l.07.06-.03.09c-.07.02-.12.04-.16.07v-.02s-.06-.1-.05-.15c.01-.04.06-.07.13-.09l.03.05M12.23,6.7l-.1.05-.06-.05c-.05-.06-.08-.17-.05-.24l.05-.03c.03.09.08.14.14.16h.02v.1M11.98,6.64c-.07.02-.12.06-.14.1-.07.01-.1,0-.13-.02.07-.07.16-.14.25-.21,0,.04,0,.09.02.14M11.88,7.19s-.11-.02-.17-.04l-.03-.07c0-.06.07-.13.15-.19l.03.06.02.04-.02.04c-.02.06.03.13.08.18h-.06M11.83,7.5s-.05-.03-.07-.14c.07,0,.13.02.15.05v.03s-.08.06-.08.06M11.83,7.61h-.06s-.03-.07-.03-.12l.02-.02.06.06.06-.02-.05.1M11.65,8.5l-.06-.08c.02-.06.04-.13.06-.17l.02-.06c.02.08.06.15.13.17h.05s.03.05.03.05l.04.06c-.11.03-.22.06-.28.02M11.65,8.71l.03.04c-.11.02-.18,0-.14-.14,0-.03.02-.07.03-.11l.05.05.07.02s-.06.09-.04.14M11.68,9.06l-.06.04h-.04c-.07-.14-.04-.18,0-.23.07,0,.13.01.17.03l-.03.04-.04.11M11.73,9.29h0s-.05.04-.05.04c-.06-.06-.08-.1-.08-.14,0-.05.06-.08.09-.1h0s.04.01.04.01c-.03.04-.04.12-.02.18M11.84,9.7h.09s0,.02,0,.02c-.05.02-.08.06-.09.09v.04l-.06-.02.06-.13M11.97,9.63l-.04.06-.09-.02v-.08c.05,0,.1.02.15.04h0ZM12.07,9.74h-.08s-.04-.05-.04-.05l.04-.05h0s.02,0,.02,0l.07.06-.02.03ZM12.12,9.87h-.03s.01-.13.01-.13l.06.08-.04.05M12.12,9.95s0-.04.06-.11c.03.05.05.09.05.12h-.03s-.08,0-.08,0M12.03,9.96l.06-.08h.02v.07s.03.02.03.02l-.09.02-.02-.05M12,10.17h-.01l-.02-.02.04-.07.13.02s-.08.06-.13.07M12.13,10.25s-.08.08-.11.08l-.05-.06v-.06h.03l.1-.04s.03.07.02.1M12.05,10.39h0v-.03s.11-.09.11-.09h0s.04,0,.04,0c0,.06-.02.1-.04.12h-.11M12.1,10.66l-.1-.07s.09-.03.12-.12l.06.02s.02.08,0,.11l-.08.05ZM11.89,11.06c.02-.1.05-.18.08-.22l.05.02c.06.04.1.09.09.11,0,.02-.05.06-.23.09M12.03,11.14c-.04.07-.1.15-.16.16,0-.06,0-.12.02-.18.05-.01.09-.02.13-.03l.03.04v.02ZM12.06,11.83c-.07-.07-.12-.14-.16-.22h.02c.06,0,.11,0,.14-.03.05.04.1.09.1.14,0,.04-.04.08-.1.12M12.42,12.09c-.08-.04-.16-.09-.24-.16l.12-.05c.04.05.08.08.11.1.03.05.02.08,0,.11M12.33,12.43v-.02c0-.06.02-.11.04-.13h.04s.06.08.06.08c0,.02-.03.04-.15.07M12.35,12.77v-.03s-.02-.1-.02-.1v-.02l.04-.02.09.05c0,.05,0,.07,0,.09l-.08.02h-.02M12.17,12.63l.1-.03c-.02.08-.03.16-.06.23-.03,0-.05-.02-.06-.07.02-.03.02-.07.01-.12M12.09,12.59l-.05-.02v-.08l.07-.04h0s.08.06.16.05v.04s-.13.06-.19.05M11.89,12.52h.11s0,.05,0,.05c-.04.05-.09.08-.14.08l-.05-.02s.06-.06.07-.11M11.84,12.38h.07c.06.01.11-.03.17-.1h.02v.14c-.08.05-.18.08-.22.06l-.03-.1ZM11.79,12.24c.05.02.14.02.2-.02h.01s.04.04.04.04c-.05.07-.09.1-.14.1-.06,0-.09-.04-.12-.07h0s.01-.05.01-.05M11.69,12.09l-.07-.04.05-.13.03.07s.06.02.12,0v.03s-.09.07-.13.07M11.61,12.09l.08.03h.06c0,.11-.01.15-.03.16l-.08-.02-.06-.02s.02-.09.04-.14M11.5,11.04c.07,0,.15-.03.2-.07-.02.16-.06.31-.1.44-.05-.02-.09-.05-.12-.14.03-.06.04-.14.02-.24M11.35,10.97c-.07,0-.1-.03-.1-.04,0-.02,0-.1,0-.15.05-.02.09-.05.14-.08l.02.02c.07.06.17.08.31.06v.08c-.08.08-.24.12-.36.11M11.19,11.33h-.04c0-.06,0-.14-.02-.23l.1-.1s.07.03.13.04h.08c.01.1,0,.17-.03.22-.05.06-.13.06-.21.07M10.53,11.78v-.1l.02-.03s.08.04.14.08c-.1.05-.14.05-.15.04M10.7,11.97s-.11.02-.14,0v-.08s.06-.04.06-.04h.01s.11.03.11.03c.02.05-.02.08-.05.09M10.65,11.83h-.01v-.03l.07-.03.09.08s-.1,0-.15-.01M10.76,11.11s.1.06.17.06c.04,0,.09,0,.14-.03.03.13.02.22-.02.26-.07.06-.22.02-.32,0-.08-.09-.13-.17-.18-.25.07.01.15.02.23-.02M10.79,10.69c.01.06.04.1.09.13-.04.11-.09.19-.16.23-.08.05-.18.02-.25,0-.05-.09-.09-.18-.11-.27.1.04.23.05.43-.09M10.43,10.39c.08.04.17.08.24.03h.01s0,0,0,0l.1.1v.08c-.23.17-.34.14-.45.08-.03-.13-.02-.24-.01-.33l.1.04M10.57,10.06s.07,0,.12-.02c0,.23-.02.3-.06.32-.04.02-.1,0-.16-.04-.05-.02-.09-.04-.13-.05h0c.01-.08.04-.17.07-.28.04.03.09.06.16.07M10.36,8.97h.03l.02.04v.1s-.1-.02-.1-.02c0-.04-.01-.07.05-.13M10.38,8.79l.08.02h0c-.05.04-.08.06-.09.09v.04l-.06-.03.07-.12M10.2,8.89l.07-.06h.04s-.02.07-.02.07l-.08.03v-.03M10.15,8.81l.03-.06h.07v.07s-.03.02-.03.02l-.08-.02h0ZM10.16,8.73v.02s-.1,0-.1,0l-.04-.04.02-.02h.08s.04.05.04.05M10.26,8.73h-.08s-.04-.05-.04-.05c.05,0,.1,0,.15,0l-.04.06M10.36,8.79h0s-.03.05-.03.05h-.05s0-.04,0-.04l.06-.1h.02v.09M10.36,8.3l.09.02c.03.07.04.12.02.16-.02.05-.07.07-.1.09-.06-.02-.11-.05-.16-.08.06-.02.12-.06.15-.19M10.2,8.23h0s.08,0,.08,0l.03.04c-.03.16-.09.18-.16.2-.06-.05-.11-.09-.14-.14l.06-.02s.1-.03.12-.07M10.32,7.99v-.02s.07,0,.07,0c.01.09,0,.15-.03.18l-.16.03h-.01l-.02-.04c.06-.01.13-.08.15-.16M10.28,7.98c-.02.07-.09.13-.14.13l-.08-.08v-.09s.03,0,.03,0l.14-.08c.07.03.06.09.05.13M10.45,7.79h.05s0,.04,0,.04c0,.05-.02.08-.04.1-.02.01-.06.01-.13,0,0-.05-.02-.09-.08-.12l.02-.06c.07,0,.13.01.17.03M10.79,7.38v.07l.06.08c-.06.03-.12.06-.17.07l-.04-.07-.04-.08s.05-.05.19-.07M10.85,7.24v.02s-.04.08-.04.08c-.05,0-.09,0-.12.02-.04-.03-.05-.12-.02-.19.01-.04.05-.09.13-.08,0,.05.03.1.06.15M10.85,7.01c.05.03.1.07.15.11l-.04.11h-.05s0,0,0,0c-.03-.06-.08-.16-.05-.21M11.04,6.9l-.07.04h-.03s0-.07,0-.12c.08.05.09.07.09.08M11.03,6.81h0s-.02.02-.02.02l-.05-.03.03-.09.05.1ZM11.17,6.81l-.06.02-.05-.02h0s-.02-.09-.02-.09h.08s.05.08.05.08M11.23,6.71v.08s0,0,0,0h-.03l-.06-.1h0s.01-.04.01-.04c.05,0,.09.02.1.04M11.31,6.69l-.05.04v-.04s-.06-.05-.12-.05h0s.08-.05.08-.05c.05.02.09.07.09.1M11.42,6.64v.03h-.08s-.04-.06-.04-.06l.04-.02.08.05ZM11.44,6.69v-.05s-.03-.03-.03-.03l.08-.03.04.08-.05.08-.04-.06M11.59,7.13l-.11-.03c-.13-.04-.11-.09-.04-.17l.02.04s.09.04.14.03l-.02.07.02.06M11.25,6.86v.04l-.09.02v-.05l-.02-.03c.07-.03.1-.03.1-.03v.05ZM11.31,6.73l.03-.04h.09s.03.08.03.08l-.07.07s-.01-.07-.08-.1M11.37,6.85l-.1.05v-.03l-.02-.07.02-.04h.02c.08.03.08.06.08.1M11.04,6.84h.02s.07.04.07.04v.05s-.09.01-.09.01l.03-.03-.03-.06M11.42,7.32l-.09.02c-.06-.09-.21-.23-.36-.33.09,0,.23-.03.3-.05h.04c-.09.08-.16.2,0,.25.08.03.23.06.35.09-.09,0-.17,0-.24.01M11.65,7.44s-.1-.06-.11-.1h.13s.02.08.02.08l-.03.02h0ZM11.64,7.71l-.06-.03s0-.04.08-.1l.03.04.07.02-.06.1-.05-.02M11.47,7.7l.02-.02h.06l.08.06.04.02s-.06.06-.1.09c-.05-.01-.09-.03-.1-.14M11.27,8.7c-.01.05,0,.09.01.11-.1.02-.22.07-.35.15-.04.02-.1.06-.15.09-.04-.09-.12-.22-.19-.28l-.03-.02c.07.01.14.02.21.03.1.01.27.02.35.02.18,0,.1-.16.05-.28-.08-.18-.17-.35-.27-.49h.23c.2,0,.34-.05.44-.1-.06.1-.11.21-.16.34-.05.12-.11.32-.13.42M11.39,9.51c0-.06.02-.1.05-.12.04-.02.09,0,.15,0l.03.1h0c-.08.03-.16.02-.24,0M11.67,9.63h-.08l-.04-.04s.1-.01.16-.01l-.03.06M11.63,9.74h-.08v-.03l.03-.06h.08v.07s-.03.03-.03.03M11.71,9.81l-.08.03v-.03s.06-.07.06-.07h.04s-.02.07-.02.07ZM11.71,9.99l-.09-.05v-.07s.09-.04.09-.04l.04.03c-.06.06-.06.09-.05.13M11.84,9.9v.11s-.1-.01-.1-.01c-.01-.04-.02-.07.05-.13h.03l.03.04ZM11.92,9.77l-.03.12h-.03s-.04-.08-.04-.08c0-.02.03-.05.08-.08l.02.03h0M11.88,10.01v-.04s-.01-.05-.01-.05c0,0,.03-.01.11,0v.04s0,.05,0,.05h-.1M11.84,10.2l-.06-.07v-.03s.09-.02.16-.01c-.05.1-.08.12-.1.12M11.88,10.29h-.06l-.02-.1.05.03.08-.05.02.02s-.02.08-.05.1M11.99,10.41l-.07.02h-.05s-.04-.1-.04-.1h.07s.03-.04.03-.04c.06.08.06.11.05.12M11.89,10.47h.05s.09-.05.09-.05h.06s.01.04.01.04c-.04.1-.08.11-.13.12l-.08-.11ZM11.82,10.94c.02-.2,0-.4-.06-.58l.05.11c.03.07.09.17.22.25-.05-.02-.08-.03-.11-.04-.04.04-.08.14-.09.25M11.87,11.51s-.01-.11-.01-.17l.07-.02c.02.05.07.08.12.09,0,.07,0,.11-.01.13-.02.02-.06.02-.11.03h-.03v-.05M11.42,10.39c.07,0,.12-.05.2-.1l.03-.02c.06.14.08.28.08.43-.13.02-.21,0-.26-.04-.07-.06-.06-.17-.04-.27M11.24,10.18c.06-.06.08-.14.05-.23l.1-.04c.08.08.15.16.19.22l.05.08-.04.03c-.08.06-.13.09-.17.09-.04,0-.09-.05-.17-.14M10.77,10.29c.1.05.27.02.39-.04l.03-.02.08.08c-.09.13-.18.2-.27.2-.1.01-.19-.08-.24-.14h-.01s.02-.09.02-.09ZM10.55,9.67c0,.06.03.1.06.12.05.03.12.03.23,0v.06c-.08.1-.17.15-.25.14-.05,0-.11-.05-.14-.08.03-.08.07-.17.1-.24M10.45,9.03s.03-.01.11,0v.03s0,.05,0,.05h-.09v-.04s-.01-.05-.01-.05M10.51,8.84l.02.03h0s-.04.12-.04.12h-.03s-.03-.08-.03-.08c0-.02.04-.05.08-.07M10.52,8.72h.03s0,.02,0,.02l-.05.05-.09-.03v-.08l.11.04M10.63,8.86h-.08l-.04-.06.04-.05h0s.02,0,.02,0l.06.07-.02.03ZM10.67,8.98h-.03s.02-.13.02-.13l.05.08-.04.05M10.76,9.07h-.02s-.08-.01-.08-.01c0-.01,0-.04.07-.1.02.05.04.09.04.11M10.64,8.99h.02s-.01.07-.01.07l.04.02h-.08s-.02-.03-.02-.03l.06-.07M10.63,8.97h0s-.04.04-.04.04h-.06s.03-.11.03-.11h.08s0,.07,0,.07M10.53,9.17s.09,0,.15,0l.02.07c-.06-.02-.11-.04-.15-.04l-.02.02v-.02s0,0,0,0M11.05,9.61c-.24.15-.34.15-.38.13-.03-.02-.05-.12-.02-.23l.05-.07c.08,0,.22.08.35.18M11.32,9.02l-.05.07v.07c-.07,0-.12,0-.13-.04-.02-.04.01-.1.04-.15.05-.02.1-.05.15-.06v.11M11.43,9.23h-.07c-.05-.06-.07-.1-.06-.15l.02-.05s.06.06.1.08v.1M11.39,9.48h-.04c-.04-.06-.04-.14-.02-.18l.03-.04h.08s.03.08.03.08h-.01s-.06.08-.06.15M11.16,9.19v-.02s.07.01.12.01l.04.05-.03.06v.04c-.07,0-.1-.01-.12-.03v-.11M11.15,9.33s.06.03.12.04l.02.1c-.08-.03-.16-.06-.22-.09,0-.02.03-.04.08-.04M10.95,9.85h-.03v-.08s.12-.06.18-.1c.08.06.17.13.23.2-.08.06-.25.02-.38,0M10.78,10.01s.08-.06.12-.1h.03c.08.03.18.05.27.05.06.12-.03.19-.09.23-.11.07-.28.08-.34.02,0-.05,0-.12,0-.2M11.41,9.57c-.06.01-.16.03-.14.09-.1-.09-.22-.19-.33-.26.17.08.34.16.5.17h-.04M11.49,9.68l-.05-.04.02-.03h.09s.04.04.04.04h-.01s-.09.03-.09.03ZM11.46,9.69l-.02.02v.02s-.04-.04-.04-.04c-.04-.05-.02-.07.03-.08v.02l.04.05M11.52,9.83l-.02-.02-.05-.06v-.04s.08-.03.13-.03v.03s0,.02,0,.02h-.02s-.02.1-.02.1M11.72,10.04c0,.05.03.18.06.29-.04-.1-.09-.2-.16-.3l-.04-.06s.1.06.14.07M11.66,9.86v.07s-.09-.07-.09-.07v-.1s.06,0,.1,0l-.02.04v.05M11.01,9.22s.07.04.13.06v.03s-.08.06-.08.06l-.1-.05h-.02s-.01-.06-.01-.06l.09-.03ZM11.12,9.14l.02.02v.08c-.07-.03-.14-.06-.15-.1v-.06s.11-.06.11-.06l.04-.02s-.04.1-.01.14M10.95,9.15l.03.04-.08.05v.03c-.07-.04-.09-.07,0-.12l.07-.04v.04M10.56,8.5l.09-.03.05-.07c.07.05.1.09.09.12,0,.05-.09.09-.15.11-.07-.01-.13-.03-.18-.04l.09-.09M10.61,7.82c.08.04.15.09.21.16-.05.05-.09.08-.13.08-.05,0-.09-.05-.13-.1.03-.02.04-.07.05-.12v-.02M10.93,8.31s-.04-.07-.08-.11l.06-.1c.05.08.1.16.14.23-.03.02-.06.02-.11-.01M10.83,8.52v-.03l.03-.03.04-.04c.05.07.08.15.07.19l-.05.05c-.05,0-.1,0-.15-.01h-.05c.05-.03.11-.08.11-.13M10.71,8.28l.07-.03.04-.03s.08.08.08.1l-.07.1h-.01s-.06-.05-.1-.08v-.08M10.64,8.17l.03-.08h.02c.05,0,.1-.03.16-.08l.03.03c0,.06-.06.14-.11.18l-.06.02-.06-.07M10.54,8.3l.08-.09.05.05c0,.08-.01.13-.05.16l-.06.02s0-.09-.03-.15M11.16,8.55c.03.07.03.12-.08.12h-.09s.03-.05.03-.05v-.05s.12,0,.12,0l.03-.03ZM11.11,8.54l-.1-.02s-.04-.08-.07-.14v-.03c.06.02.1.02.14,0l.05.11v.03s0,.05,0,.05M11.1,7.56c-.07.08-.12.18-.17.27l-.05.1c-.09-.09-.2-.17-.33-.21.1,0,.18-.03.25-.05.08-.02.19-.07.3-.12M11.22,7.35c-.06.02-.13.02-.14.02-.02-.02-.03-.07.04-.22.08.07.13.13.15.18l-.04.03M11.34,7.57h.01v.06s-.03.04-.03.04l-.04-.02-.07-.13h.02s.1.05.1.05ZM11.34,7.54l-.07-.05c.06-.04.12-.07.14-.09l.02.08-.09.07M11.43,7.85l.02-.11h.07c.01.08.05.12.09.13l-.11.05-.07-.07M11.35,7.7l.04-.03.05.07-.03.1-.04-.02s-.03-.07-.02-.12M11.25,7.87s.02-.05.07-.08l.03.05.06.03.06.07s-.08.02-.13.02l-.09-.08M11.17,7.8l.03.03.02.02v.02l.07.09h-.13l-.03-.04s.02-.08.06-.13M11.17,7.72h-.07s.06-.1.11-.15l.03.07-.07.07M11.32,7.76l-.08.06h0s-.04-.08-.04-.08l.06-.07.02.02.05.02v.05ZM11.11,7.86h-.08s-.01-.02-.01-.02v-.02s.05-.08.05-.08h.09v.02s-.05.09-.05.09M11.1,7.93l.02.03h-.07c-.08,0-.08-.04-.05-.08l.02.02h.08v.04ZM11.48,7.49h.02c-.01.07,0,.12.02.15l.04.03-.08.04s-.08-.08-.08-.15l.08-.07ZM11.57,7.47c-.05,0-.08,0-.09,0l-.02-.07v-.02h.04s.08-.02.12-.02v.04s-.04.08-.04.08ZM11.67,7.62v.03h-.02l-.11-.03s-.03-.07-.01-.13h.05c.01.07.05.12.09.13M11.75,7.54l-.06.06s-.07-.05-.09-.1c0-.03-.01-.07.04-.09l.09.06h.01v.07M11.04,7.4l.09.02s-.1.05-.14.08l-.07-.07s.01-.1.06-.16h.04c-.01.06,0,.1.02.13M10.52,7.98h.03l.1.11c-.02.09-.08.19-.14.21l-.1-.06.06-.03s.06-.11.05-.21M10.98,10.77c-.06-.03-.07-.11-.06-.19l.12.02c.11-.01.21-.08.32-.23l.04.02c-.01.08-.02.18,0,.25-.15.1-.34.17-.43.12M11.25,10.95c-.08.11-.17.16-.25.16l-.1-.03c.06-.05.1-.12.14-.22.07,0,.14,0,.22-.03v.12ZM11.74,11.68l-.03.05c.07-.2.12-.4.16-.59,0,.13,0,.26,0,.35.03.16.1.29.21.41-.13-.11-.27-.21-.35-.22M11.79,11.97s-.02-.07,0-.12l.02-.03s.11.05.18.09c-.13.07-.18.08-.2.06M11.84,12.11l.06-.05h.02s.09.03.14.03c.03.06-.02.1-.05.12-.06.03-.15.04-.17,0v-.1M11.93,12.02h-.02v-.05l.09-.05.12.1s-.13,0-.2-.01M12.15,12.05l.09.12.02.04h-.02s-.09.06-.09.06c-.02,0-.05-.02-.09-.08l.03-.12.05-.02ZM12.32,12.39v.08c-.06,0-.1,0-.13-.02-.03-.03-.03-.09-.02-.14l.1-.05h.01s.03.08.03.13M12.35,12.74l.04.09h-.06l.02-.09ZM12.34,12.25s-.04-.1-.07-.14c-.03-.04-.07-.09-.12-.15.09.08.19.15.3.21l-.07-.02-.04.1ZM12.38,12.45l.08-.02.02.02h0s-.1.12-.1.12v-.13M12.09,9.86h0s-.04.04-.04.04h-.07s.02-.11.02-.11l.08-.02v.08M11.66,9.35h-.01s-.13,0-.13,0c-.04-.07-.06-.17-.02-.21h.1s-.02.05-.02.05c0,.05.02.11.09.17M11.55,9.08l-.07.03c-.06-.03-.09-.06-.1-.1-.01-.05,0-.08.02-.11.06-.01.1-.02.15-.03-.03.04-.05.1,0,.21M10.71,6.83v-.09l.1-.03.05.06h0s-.1.05-.15.06M10.96,6.76l.07-.07c-.04.09-.07.2-.07.27-.07-.04-.13-.08-.18-.09h-.02c.07-.03.14-.06.2-.11M10.68,7.54l.03.05c-.06.01-.12.03-.21.03-.04-.06-.08-.11,0-.25h.05s.07.04.07.04h0s.05.13.05.13M10.3,9.41s-.04-.06-.04-.11l.02-.02.07.06.06-.02-.04.1h-.07M10.23,9.54l-.06-.03s0-.05.08-.11l.03.04.07.02-.06.1h-.05M10.08,9.52h.06l.08.06.04.02-.1.1s-.09-.03-.11-.14l.02-.03M10.12,9.25l.1.06h.01s0,.08,0,.08l-.06.06s-.08-.04-.1-.09c0-.02-.01-.07.04-.1M10.16,9.47v.03h-.02l-.11-.02s-.03-.07-.02-.13h.05s0,0,0,0c.01.05.06.1.11.11M10.95,12.02c.02.06.02.11.02.17-.05,0-.08,0-.1-.02v-.11s.08-.04.08-.04h0ZM10.92,12l-.07.03-.07-.06.02-.09h.04s.07.08.07.08l.02.03h-.02M11.43,11.83h.07c-.05.13-.1.19-.25.06l-.11-.1.08-.02.08-.06c.03.06.07.12.14.14M11.18,11.71s-.07.02-.12.01c-.06-.06-.12-.12-.17-.17l-.06-.06c.1.02.22.03.29-.03l.04-.05h.07s.1-.02.1-.02c-.03.14-.06.27-.15.32M12,12.66l.05-.05.07.02h.04c0,.05,0,.09-.02.11l-.11.03h-.02s0-.07,0-.12M12.41,12.98l.04.05v.02s-.07,0-.07,0h0s-.02.01-.02.01h-.03l.05-.08h.03M12.38,12.97h-.02s-.03-.02-.03-.02h-.02.07s.03.02.03.02h-.02ZM12.53,12.63s-.08,0-.1-.04l.07-.09v-.02s.08,0,.08,0l.07.06s-.05.08-.1.09M12.67,12.69s-.08.03-.14.02v-.05s0,0,0,0c.06-.01.11-.06.12-.1h.03v.02l-.02.11ZM12.78,12.77l.11.02-.02.04s-.07.03-.13.03l-.04-.04.07-.05M12.6,12.83l-.08-.08v-.02c.08.01.13,0,.17-.02l.03-.04.05.07s-.09.08-.17.09M12.52,12.32l.11.04-.02.06s-.06.04-.12.03l-.02-.02.07-.07-.02-.05M12.24,11.71l.09-.02.07.07-.03.06c-.04.05-.14.1-.21.09l-.03-.03c.07-.05.11-.09.11-.15v-.02M12.34,11.28l.05.02h0c0,.05,0,.13-.05.16-.04.03-.11.04-.21.02v-.07h.02c.08-.02.17-.08.19-.13M12.14,11.38s-.12,0-.14-.07l.1-.13v-.02h.11l.08.09s-.08.11-.16.12M11.83,9.69h0s-.03.05-.03.05h-.05s0-.04,0-.04l.05-.11h.03v.1M11.77,9.35s.07.05.11.04v.05s-.08.05-.12.07h-.04s-.01,0-.01,0l-.03-.09s.03-.04.09-.06M11.97,9.25h0s.04,0,.04,0l.04.09-.13.09s.02-.12.04-.17M11.94,9.23l-.05.12c-.07.01-.1-.03-.11-.07-.02-.06-.01-.14.02-.16l.1.02.04.07h0M11.97,8.17l.08.08c-.08.06-.15.09-.2.08-.07-.02-.09-.14-.11-.21.04-.08.08-.15.11-.21.01.05.04.1.1.14l.02.13ZM12.05,7.23c-.05-.05-.13-.12-.12-.18,0-.04.07-.08.16-.1l.02.09.09.08c0,.06.03.1.07.14-.07,0-.14,0-.22-.02M12.01,7.37c.09,0,.17.01.24.01-.08.03-.17.08-.27.15.03-.06.06-.11.06-.15l-.03-.02ZM12.67,5.53h0s.06,0,.06,0c0,.07.04.17.11.23h.02s-.04.08-.04.08c-.11-.03-.18-.07-.2-.12-.03-.06.01-.13.04-.18M12.93,5.46l.1.05v.02c0,.06.01.12.03.18-.07.06-.14.02-.18,0-.07-.06-.11-.15-.09-.2.04,0,.08-.02.14-.05M12.64,5.26h0c.05-.01.13-.02.21-.02v.11s.03.07.03.07c-.16.06-.21.05-.24.04-.02-.02-.02-.06,0-.11v-.09ZM12.57,5.73c.03.06.1.11.23.14v.03c-.07,0-.13.02-.18.06-.1-.06-.19-.17-.18-.24,0-.04.07-.07.12-.08v.08M11.64,6.44v-.02s.07,0,.05.06l-.02.05-.02-.02h-.03s.02-.07.02-.07M11.51,6.44h.07s.02-.01.02-.01l.02.02-.03.05h-.08s-.02,0-.02,0l.02-.06ZM10.79,6.52h0s.03,0,.03,0l.03.13h0s-.03.04-.03.04c-.05-.02-.08-.05-.09-.08l.04-.08M15.41,4.74s.08-.08.12-.13c-.05.09-.08.17-.08.24-.06,0-.14.02-.23.04.07-.05.13-.1.19-.16M15.63,4.72l.06.07-.03.05c-.07-.04-.11-.04-.15-.02l.03-.09h.08M15.61,4.61h.11s.02.03.01.08h-.05s-.06.01-.06.01h-.08l.06-.09M15.78,4.75v.04h-.08s-.05-.08-.05-.08h.03s.09.03.09.03M15.75,4.62h.01l.08.02v.08s-.01,0-.01,0l-.04.02-.03-.03v-.08M15.96,4.77v.02c-.05,0-.08,0-.1.03h0s-.05-.01-.05-.01v-.05h.03s.12.01.12.01ZM15.9,4.59s.03.1.05.15l-.07-.02v-.08s.02-.05.02-.05ZM15.95,4.97h0s-.07-.04-.07-.04v-.1s.09-.02.09-.02c0,.05,0,.1-.01.15M15.83,4.95s-.08-.07-.11-.07h-.04s.01-.06.01-.06c.03-.02.1,0,.15.03v.08h-.01M15.78,4.99h0s-.13,0-.13,0v-.03s0,0,0,0l.08-.05.09.06-.02.03ZM16.03,4.69l.09-.05s.06.03.1.08c-.03.04-.04.08-.02.13l-.06.03s-.08-.09-.11-.12l-.03-.04.02-.02M16.39,4.91h.02v.05l-.1.06s-.09-.07-.14-.11c.05-.04.14-.01.22,0M16.55,4.96s.03.07.02.13l-.03.04s-.12-.04-.2-.1c.14-.08.19-.08.21-.07M16.58,4.82l.08.04s-.03.1-.05.14l-.04-.07s-.07-.02-.13,0v-.04c.05-.06.09-.08.14-.08M16.8,5.15l.05.02c.06.01.11-.03.15-.06l.03.07.06.04s-.09.03-.12.05c-.15.05-.17,0-.17-.12M17.33,5.32c.09-.04.17-.08.25-.12-.09.08-.18.18-.27.33-.03.04-.06.1-.09.16.01-.12,0-.23-.03-.27h-.07c.08-.03.15-.06.22-.09M17.68,5.41v.09l.04.06c-.06.04-.12.05-.15.03-.04-.02-.05-.1-.05-.16.04-.05.07-.1.11-.13l.05.11M17.79,5.16c0,.06,0,.12.12.19l-.06.07c-.07,0-.12-.02-.15-.04l-.04-.12s.09-.08.13-.1M17.99,5.37v.07c.03.05.09.09.19.12v.02c-.06,0-.1.02-.14.05-.08-.05-.15-.14-.14-.19l.09-.06M18.07,5.29h0s.05,0,.05,0c0,.06.03.14.08.18h.02s-.03.06-.03.06c-.08-.02-.14-.06-.16-.09-.02-.05.01-.11.03-.14M18.17,5.27l.11-.03.08.04v.02l.02.14c-.06.05-.11.02-.14,0-.06-.05-.09-.13-.07-.16M18.27,5.07c.05,0,.1,0,.15,0l-.06.05.04.11h-.04c-.07,0-.11-.05-.12-.08l.02-.08ZM18.53,5.09h.05v.07l-.09.11c-.08-.07-.09-.11-.08-.13,0-.02.06-.04.12-.05M18.46,5.32l-.06.08v-.09s0-.02,0-.02h.04s.03.01.03.01h0ZM18.22,7.15h0s.02-.04.02-.04h.08l.04.12-.13-.08M18.15,7.04l.05-.08.03-.02s.06.07.08.13c-.12,0-.15-.02-.16-.03M18.07,6.94l.03-.07c.03-.08.06-.18.08-.3.02.08.03.18.05.28h0s-.1.04-.16.09M17.92,6.38v-.02s.05-.04.05-.04c.04.02.09.04.15.06,0,.08-.01.16-.03.24-.08-.02-.13-.15-.16-.24M17.87,6.33c-.1,0-.18-.04-.21-.09v-.12c.06-.02.14-.04.2-.05l-.06.09s.03.09.1.13l-.04.04M17.82,5.64v.11s-.08.03-.11.02l-.07-.09v-.02s.07-.02.12-.05l.07.03M17.86,5.61c-.08-.02-.12-.06-.13-.1v-.06s.08.03.15.03l.06.1-.07.02M17.67,5.89l.05-.08s.08,0,.14-.03l.07.08c-.09.01-.18.02-.26.02M18.1,6.04c.03.06.04.16.04.29-.21-.08-.25-.14-.25-.17,0-.02.06-.08.15-.12h.06M18.24,5.81l-.02.08-.02-.05.04-.02M18.22,5.61s0-.06.05-.11h.08c-.03.06-.05.11-.07.17l-.06-.06M18.27,5.71v.04c-.07.04-.13.07-.2.08-.03-.06-.04-.1-.02-.13.02-.04.08-.06.15-.07l.08.08ZM18.03,5.84h-.04c-.06-.01-.11-.09-.12-.15v-.06l.09-.03.06.05h0c-.02.06-.01.11.02.18M17.62,5.89h-.15l-.04-.04.06-.08s.09,0,.15,0l.03.02-.05.1ZM17.4,5.65l.07-.11.02-.04c0,.05.02.11.07.14h.03s.01.04.01.04l.02.05c-.08,0-.16.01-.2-.02l-.03-.06ZM17.33,5.78l.04-.08.03.04.05.03-.05.09v.03c-.07,0-.11-.02-.07-.11M18.64,4.85l-.06-.08.04-.11h.07c0,.1.04.14.08.16-.03.01-.08.02-.12.03M18.55,4.76l-.04-.02s-.02-.07,0-.12l.05-.03.04.07-.04.1ZM13.08,13.33l.1-.02h.02s.04.02.04.02l-.04.08s-.08.01-.13.03h-.03s.02-.11.02-.11M13.37,13.22l-.11.02s-.08.01-.13.02h0c0-.07,0-.18,0-.25v-.09c.06.1.15.2.25.3M13.34,13.39l-.02.07-.03-.03h-.05s.03-.1.03-.1l-.02-.02c.07,0,.11,0,.09.08M10.76,6.41v.04s0,.08,0,.08l-.03.04h-.03l-.03-.03v.02s0,.02,0,.02l-.04.03h0v.02s0,0,0,0l.02.07h-.05s-.04-.01-.04-.01l-.02.02.03.02v.04s0,.03,0,.03h-.08l-.02.04h.02s.09-.01.09-.01l.02.04s-.09,0-.14,0l-.04.06c.07,0,.13.01.2.01h0c-.03.06-.05.1-.04.13-.07.02-.13.03-.17,0l-.03-.05-.02.04.03.03h.01s-.03.09-.03.09h-.09c-.04.09-.07.17-.11.25l.05.06c-.02.05,0,.09,0,.13l-.12-.05-.04.12.1.03h-.11l-.03.08h.07c-.05.15-.09.18-.11.18h-.01v.04s.02,0,.02,0c.03,0,.07-.03.09-.08l.03.03c0,.07-.02.13-.06.15h-.09s-.02-.04-.02-.04c-.03.11-.06.22-.07.33v.02l.02.1-.06.02c0,.07-.02.14-.03.22.05,0,.09.03.12.07v.04c-.05-.01-.09-.01-.13,0v.04s.07-.02.12,0c0,.07-.03.15-.07.21h-.01s-.06-.06-.06-.06v.04l.04.03.02.02-.03.04-.04.04v.07l.05-.05c.1-.11.14-.23.16-.36l.06.07c.1.13.2.2.28.23-.12,0-.25,0-.32.03-.09.02-.16.06-.22.11v.06s.08-.08.14-.1h0s.03.09.03.09l-.09.07-.08-.04v.04l.08.03h.01l.02.06-.05.05h-.04s-.03-.04-.03-.04v.04h0s.05.03.05.03v.05l-.06.05v.06l.07-.08.03.04.07.02.07.07s-.08.02-.13.03l-.1-.07v.05l.05.03h-.03s0,0,0,0c0,.06,0,.11.01.17h.02v.09s.02.05.02.05h-.03v.05l.06-.02.08.04v.02s0,.09.02.14c-.06.05-.11.02-.14,0v.08s.02-.02.02-.02c.05.02.09,0,.13-.02l.04.04c-.03.05-.06.1-.09.13l-.03.04-.02-.02h0c.02.08.04.17.06.25h0s.06-.04.06-.04c.06.04.12.13.18.24-.08,0-.14,0-.18,0l.03.09v-.03c.06,0,.12,0,.18,0,.04.07.07.15.1.22-.08.01-.18-.07-.26-.13l.04.1.1.06-.04.08.02.06s.06-.07.07-.12h.09c.03.08.05.15.05.22v.07h-.04s-.08.02-.08.02l.02.05h.07s.02-.02.02-.02c0,.05-.01.09-.03.14.03.05.05.09.09.14l.03-.11.06.03h.05c0,.09-.02.12-.03.13l-.07-.02-.04-.02.03.04.09.02.04.04v.03s-.06.03-.06.03l.02.02.04-.02.03.05-.02.04.02.02.03-.05h.09s0,.04,0,.04l-.08.06.02.02h.01v.02l.03.04v-.07l.04-.03.05.02h.03l-.02.08-.08.02.02.03h.01,0s.02.04.02.04v-.05s.04,0,.04,0l.06.06-.03.08.09.11h.06v.05s0,.01,0,.01h.05s-.02.03-.02.03h.01s.03-.01.03-.01h.06v.08h-.05s.01,0,.01,0h.03v.03l.06.06v-.08h.05l.08.06s-.01.04-.08.07l.02.02h.01s.03.02.03.02h0s.02.03.02.03v-.02s0-.01,0-.01h.06s.06.03.06.03l-.05.08.02.02.06-.08h.03v.12l-.02.02.02.02.02-.02.02-.04.05.06h0s.04,0,.04,0h-.01l-.02-.06c.09-.03.11-.07.12-.11l.07.09-.05.08h0,.05l.03-.04.02.04h.1c-.1-.22-.24-.3-.34-.34l-.06-.02s.03-.11.03-.18c.05.1.12.22.24.35.05.06.14.15.2.2.05,0,.11,0,.16,0h0s0,0,0,0h.11s-.08,0-.08,0v-.02l.1-.02h.03v.06h-.02s.04.01.04.01h.08s.02.01.02.01l-.02-.03.05-.06h.07s.02.08.02.08c-.02-.01-.06-.02-.11.02h.03s.08,0,.08,0h0s.05.02.05.02c0-.07-.02-.16-.1-.27.11.09.25.17.41.23l.06.03c-.06.02-.12.04-.18.06l.09.02c.06-.02.11-.04.17-.05l-.03.08h-.02l.13.04c.06-.02.12-.03.16,0l.03.05v.02s.1.04.1.04c.02-.07.06-.17.07-.23l.14.08c-.28-.22-.5-.5-.66-.86-.05-.06-.09-.1-.14-.13h.08c-.03-.06-.06-.13-.08-.19-.01.1-.06.09-.14.05l.03-.02v-.12h.07v-.04c-.07.01-.15-.03-.22-.09l.05-.04.03-.02h.04s.04,0,.04,0v-.04s-.04,0-.04,0c-.04,0-.08-.04-.13-.11l.08-.04.03-.03-.03-.09s-.08-.02-.14-.04l-.02-.09s.08-.02.11-.02v-.04s-.08.02-.14.03l-.04-.03v-.08h0c.05-.01.07-.07.09-.11v-.03c0-.07-.01-.14-.03-.2-.06-.04-.14-.09-.22-.13l.12.04.08.02v-.1s-.11-.02-.11-.02h-.03s.09-.08.09-.08v-.02h.01s0-.04,0-.04h-.02s-.06-.07-.06-.07v-.05s.06-.01.06-.01v-.03h0s-.04.01-.04.01l-.04-.05.03-.05h.05v-.03h-.03l-.08-.08.05-.08h0s.04.03.04.03c-.02-.23-.03-.45-.03-.69h0c-.01-.08-.01-.15-.01-.2h.02s0-.05,0-.05h-.02s.02-.11.02-.11c0-.12,0-.23,0-.34-.04.06-.08.13-.11.22-.12-.08-.32-.17-.43-.21h-.04c.21-.05.4-.09.58-.16v-.09c-.11.04-.23.08-.34.1,0-.04,0-.08.05-.13.05,0,.11-.02.18-.07.03.04.08.08.12.1v-.07c-.06-.04-.11-.1-.13-.15-.02-.05-.02-.07-.01-.08l.11-.06.06.04v-.06c-.09-.06-.17-.13-.17-.19,0-.05.06-.08.11-.11l.03.08.05.05v-.06s0-.01,0-.01c-.04-.07,0-.15.01-.2h0s.03-.01.03-.01v-.06s-.07,0-.07,0c-.03-.01-.03-.07-.03-.12v-.1s0,0,0,0c.04-.01.1-.03.17-.05.02-.08.04-.16.06-.24-.06-.04-.12-.09-.09-.27l.05-.03.1.02v.04s.04-.11.04-.11l-.02.02h-.01s-.14-.02-.17-.09c-.02-.05-.01-.12.04-.22h.08v.04c0,.08.03.18.09.22l.02-.05s-.06-.1-.06-.17c0-.05.02-.12.11-.13l.04.05.02-.05-.04-.1.08.02.03-.07c-.08-.02-.16-.04-.23-.05.15-.05.28-.14.39-.25.11-.18.23-.34.37-.48h0s.03-.05.03-.05h0c.06-.09.13-.16.21-.21v.02s0,.02,0,.02l.04-.03h0s-.01-.03-.01-.03l.05-.02.1-.03h0c.09-.05.19-.1.29-.13-.13,0-.25,0-.37,0,0-.06.03-.11.13-.16.08.02.17,0,.28-.03.02.06.05.11.09.15l.1-.03c-.08-.08-.14-.2-.15-.29,0-.07,0-.11.02-.11.02-.01.12-.03.17-.04.04.05.08.09.12.12l-.02.03c-.05.07-.05.16-.02.27h.08c-.03-.11-.03-.18,0-.23.05-.08.18-.1.31-.11.02.07.08.12.17.18l.03.02c-.05.03-.11.06-.17.08h.14c.14,0,.28,0,.42.03v-.11s.07-.03.15.02v.03l-.03.04-.08.02h-.03s.04.02.04.02h.05s.02.02.02.02h.06s.09.02.09.02h.02s.04.02.04.02l-.02-.02.05-.05.06.03h.02s-.02.04-.02.04l-.02.04h.03s0,0,0,0c.05-.09.06-.18.06-.28l.03.04c.09.12.28.29.43.38-.09-.02-.18-.03-.27-.04.15.06.29.14.43.23.02-.05.04-.09.04-.13l.05-.09c0,.09-.02.21.01.28.07.04.13.09.2.14h.05s-.03.02-.03.02l.03.03s.05-.05.1-.07h.05s.03.12.02.22h-.02c.07.05.13.11.2.18h.34c-.09.03-.18.06-.25.09l.03.03.08.08.08-.03.03.13.06.07-.03.02.03.04.05-.04s.08.02.13.03v.02c.03.06.06.13.1.18l-.09.06.03.05.1-.07.08.04c-.02.08-.04.14-.06.2.03.05.06.09.09.14h.02s0,.01,0,.01l.03.06h.05s-.01.04-.01.04h0l.02.02h0s.09.08.09.08l-.02.04v.02s.05-.06.05-.06h.04s.01.12.01.12v.04h-.03v.03h.03v.02s.02.05.02.05c.01-.05.02-.1.02-.15.05.14.11.28.15.37l.02.04h.31v-.2c-.06.02-.11,0-.17-.13-.02-.04-.04-.09-.07-.16h.1s.1-.02.1-.02c0,.05,0,.1.03.14v-.26s-.09.07-.14.08c-.04,0-.08,0-.13-.04-.03-.09-.06-.18-.09-.25l-.03-.08c.09.07.21.13.31.09l.06-.03h.01s0-.15,0-.15c-.03.06-.06.1-.1.11-.1.03-.23-.08-.32-.15-.03-.12-.05-.24-.06-.33.06.04.14.08.24.07.02.05.07.1.14.13l.11.02v-.08l-.07-.02-.09-.08c.05-.02.11-.05.16-.09v-.1c-.08.08-.17.13-.25.13-.11,0-.19-.06-.25-.1,0-.12,0-.23.01-.32.08.08.21.15.48.1v.12-.2c-.29.06-.38-.02-.46-.11.03-.14.09-.25.15-.34l.08.08c.06.07.13.15.23.14v-.08h-.01s-.1-.05-.15-.11l-.1-.1h0c.05-.07.12-.16.21-.26l.06.08v-.52l-.1.07s-.08-.05-.08-.16l.03-.02h.06s.07.08.07.08h.02s0-.02,0-.02h0s-.06-.05-.06-.05c0-.01.01-.04.07-.08v-.04l-.04.03-.06-.06h-.03l.07.09-.02.03h-.01l-.11-.04v-.07h-.04l.02.09.04.03-.08.03s-.06-.08-.07-.15h-.03v.05s-.05.04-.05.04h-.01s0,.02,0,.02h0s0,.06,0,.06h-.03s-.02.06-.02.06l.05-.03.02.05.06.04.05.08s-.08,0-.14,0l-.08-.08-.02.03.05.05h-.08l-.07.09h.04c.24.02.4-.02.51-.07-.04.05-.08.09-.12.14v-.03c-.07-.02-.27-.03-.44-.02-.04.05-.09.08-.15.11.04,0,.08,0,.13,0v.09s.02.06.02.06c-.12.04-.17.04-.18.03v-.09s0-.06,0-.06h-.04s0,.06,0,.06l.02.12-.03.07h-.05c-.13-.08-.13-.13-.12-.19l.07-.03h-.04c-.07,0-.2-.03-.38-.07-.08,0-.18-.02-.22-.07l-.08-.02v.03c.04.07.13.09.22.11l-.06.03c-.05.02-.12.05-.18.08l-.09-.04c-.04-.05-.03-.15-.01-.25l-.06-.02c-.01.06-.02.11-.02.16l-.13.08-.06-.06v-.04s0-.1.01-.17h.08c-.06-.03-.11-.05-.17-.07l-.04-.02v.04s-.1-.04-.1-.04l-.07.02v-.07h-.04s0,.09,0,.09l-.07.06h-.02s-.1-.03-.16-.03c-.03-.07.01-.11.05-.13l.1-.03-.08-.02-.05.02h-.02s-.04-.04-.04-.04h0s-.12-.04-.12-.04l-.09.06h-.01s-.03-.08-.03-.08h-.07s-.05.04-.05.04h-.02s-.02-.07-.02-.07h-.03l.02.06h-.07s-.1-.01-.1-.01l.02-.02.03-.04c-.07,0-.14-.02-.21-.03-.07.09-.14.18-.21.25l-.08.07-.04-.03c-.08-.06-.14-.11-.15-.15,0-.03.02-.08.07-.15h-.25l.12.06-.02.05c-.1,0-.21.02-.29.07-.06-.05-.11-.1-.15-.16h-.09s0,.01,0,.01c-.05.01-.1.02-.14.04l-.06-.03h-.13s.07.06.12.08c-.02.03-.02.08-.02.14v.09c-.1.04-.19.05-.25.02-.08-.03-.1-.12-.13-.21v-.04s.12-.02.21-.06c-.1.01-.21.03-.31.06l.02.07.04.1c-.17,0-.34,0-.41-.08h0s-.08.01-.08.01l.02.04.09.06c-.06.04-.12.1-.12.18l.02.07c-.17-.02-.25-.06-.14-.25l.05-.08c-.19.06-.37.13-.55.2h0s-.02.05-.02.05v-.03l-.03.02v.06l-.1.11-.04-.09h0s-.04.01-.04.01h.01s.03.11.03.11l-.11.08s0-.08-.05-.13l-.03.02c.05.05.05.09.04.13-.06.03-.11.04-.16.05v-.05s0-.07,0-.07l-.03.02v.05s-.01.06-.01.06h-.14,0c-.07.03-.13.08-.2.12v.09s-.02-.02-.02-.02h-.08s-.05.05-.05.05l-.04.1-.04-.03h0s-.03.01-.03.01h.01s.06.09.06.09l-.05.09-.03-.02-.06-.02v-.06s.06-.09.06-.09l-.11.09v.07s-.02.05-.02.05l-.05-.05-.02.02s.07.08.09.14l-.08.1h-.02c0-.08-.02-.14-.06-.17h0s-.02.02-.02.02h0s.05.08.05.15l-.05.02v-.02s-.08-.08-.08-.08l-.02.02.06.07s.03.08-.03.11l-.12-.05h-.01v-.02l-.07.08.05.08h-.12l-.1.12h0l.03-.05ZM14.2,13.84l-.03-.12.1.03-.04.03v.07s-.04-.02-.04-.02M15.98,14.17l-.08.06v-.05s-.05-.05-.05-.05l.1-.07v-.04c.08.04.12.08.02.15M15.82,14.1s-.09-.04-.16-.06v-.04s.07-.04.09-.08c.05.02.09.04.12.05h.03s.02.07.02.07l-.1.05M15.62,14.14v.02s-.09-.01-.16,0l-.05-.06.04-.07v-.05c.07,0,.12,0,.15.03.03.03.03.08.03.13M16.01,13.95c-.06-.03-.12-.05-.18-.08-.05,0-.1.01-.16.02h.04s-.04.07-.1.08c-.03-.02-.08-.03-.15-.03v-.03h-.05v.11l-.03.06h-.1s-.04-.09-.04-.09h.02s.04-.07.04-.07h-.05l-.02.03s-.11.02-.18,0v-.05h-.06v.05s-.02.05-.09.09c-.04-.04-.09-.06-.15-.04l-.02-.06.08-.06h-.09s-.12.07-.12.07l.09-.08-.08-.02-.09.08-.03-.11-.07-.02s.05.08.05.13c.06.02.12.04.18.06l.04-.03v.05s.1.03.1.03h.04s.09.04.09.04l.06-.04.08.07h.06s-.05-.06-.1-.1l.02-.02c.06.01.11.02.17.01.03.05.05.11.06.16h.05s0-.04,0-.04h.08s.07.08.07.08h.06c.07,0,.12.01.15.03h.06s-.01-.01-.01-.01l-.03-.02v-.1c.09.03.17.06.19.11v.05c.07,0,.14,0,.21,0h.05l.06-.05c.15-.12-.05-.2-.17-.25M13.56,13.46l.07-.06.09.07-.04.03.06.03s.1.05.1.1h0s.09.02.09.02l.04-.03.05.02-.04.03.06.05.02.06-.05-.02v-.02c-.04-.05-.12-.06-.17-.06h-.02s-.04,0-.04,0l.02-.04-.08-.06-.07-.04-.06.07-.12-.04.09-.1M18.49,7.64l.09.1h-.04l-.07-.13.02.02ZM18.62,12.97c-.06.02-.1.02-.15,0-.1-.03-.17-.17-.23-.33h.12s.08-.01.08-.01l.05.05c.1.06.23.03.35-.02l-.05.08c-.05.07-.11.15-.18.23M18.43,13.21c-.15.17-.23.12-.31-.02h.08c.08-.03.12-.12.14-.18l.1.06h.1c-.04.07-.08.12-.12.15M18.03,13.02c-.03-.06-.07-.13-.11-.21.08-.03.13-.09.16-.19l.07.02c.04.11.08.2.13.27,0,.07-.05.17-.1.18l-.11-.03-.03-.05M17.69,12.26c.07.03.16.04.25.04,0,.12.02.2.07.26-.02.11-.07.15-.12.18-.07-.14-.14-.31-.2-.48M17.73,13.57v-.02c0-.08-.08-.15-.15-.19l.09-.08.05-.1c.03.06.06.12.08.16.06.13.02.19-.08.23M17.63,13.59c-.08.01-.18.01-.29.03h-.12s-.06-.08-.13-.13l.05-.06c.13,0,.24-.01.33-.03.07.03.17.1.17.16v.03M16.65,13.65s.04-.08.05-.13c.13.04.23.04.3.02.06.03.1.06.12.1-.14,0-.31.02-.48.02M16.91,13.01c.04-.06.06-.11.06-.16,0-.08-.01-.16-.04-.21.09-.13.07-.28.06-.36v-.04c.08.06.17.13.26.22.01.07.03.14.03.16.02.12.06.33-.04.4-.06.05-.17.04-.33-.02M16.92,11.88l-.03-.11.07-.09.08.05-.04.03-.02.06-.06.05M16.87,11.69v-.09s.02-.03.02-.03c.03,0,.08,0,.13.04l-.03.02-.02.02h-.02l-.08.07v-.03M16.84,11.52c0-.07.03-.07.08-.05l-.02.02v.07s-.03,0-.03,0l-.03.02v-.06ZM16.8,11.26c0-.05.02-.1.15-.15l.03.02.02.07h0s-.05.1-.05.1v.05c-.05-.02-.1-.05-.15-.09M16.88,11s-.09-.01-.13,0v-.05s.08-.05.15-.06l.05.03-.07.08ZM16.72,10.81h0s.08-.08.08-.08l.1.04-.02.03v.06s-.08.01-.08.01l-.09-.07M16.64,10.68l-.03-.07.04-.02h.02s.1.03.1.03l.02.09h-.03s-.09-.02-.13-.02M16.74,10.29c.06.03.12.06.18.07l.04.12-.07.03h-.03s-.09-.04-.14-.06c.02-.04.01-.09-.01-.14l.04-.02M17,10.5l-.02-.13h.07s.05-.04.05-.04v.1c.03.13-.03.13-.13.1l.03-.03M17.22,10.68s.03.09.05.14c-.07-.07-.14-.12-.23-.16.07.02.13.03.18.02M17.27,10.89l-.09.05s-.09-.05-.1-.08l.05-.11c.07.04.12.08.16.14h-.01M17.51,10.43l.02.07s-.07.08-.11.08c-.05,0-.09-.01-.11-.03-.01-.05-.01-.1-.01-.14.04.03.1.05.22.01M17.34,10.21l.04.03.11.05.03.06v.04c-.15.05-.19.02-.23-.02,0-.07.02-.12.04-.16M17.54,10.23s.12.05.19.03h.02s.02.05.02.05c-.06.05-.11.07-.15.06-.05,0-.08-.06-.1-.09h0s.02-.04.02-.04M17.79,10.34h.01s-.03.14-.03.14c-.08.03-.18.04-.22,0v-.1l.06.03c.05,0,.11-.01.18-.07M17.84,10.16c.03.06.06.12.09.17h-.08s-.04-.02-.06-.08l.06-.09ZM17.97,10.4c0,.05-.01.11-.03.16-.06,0-.1-.02-.12-.05-.02-.04,0-.09.02-.14l.1-.02.02.04ZM18.07,10.12l.07-.03s.02.1.07.12h.05c-.07.09-.12.12-.19,0l-.05-.1h.07M17.92,10.62c-.05.03-.14.03-.18,0l-.04-.03.02-.07.08-.02h0c.02.05.07.07.14.08v.03M18.16,10.68c.08.03.17.06.23.08v.09s-.03.02-.03.02c-.14.06-.33.14-.45.08.08-.1.16-.18.25-.27M18.61,10.35l.07.07c.05.12.04.24.01.26-.04.03-.15.05-.47-.07.15-.13.29-.24.39-.26M18.81,10.59c.05.08.11.17.16.26-.03.04-.08.1-.15.11-.09.02-.21-.02-.32-.11v-.08c.12.02.21,0,.26-.04.04-.04.06-.08.05-.15M18.71,11.41v.02c-.06.07-.15.18-.27.19-.1,0-.22-.05-.35-.18l.08-.11h.04c.15.07.35.06.46-.01l.04.09M18.55,11.87c-.1.08-.34.03-.53-.05.02-.09,0-.19-.03-.29l.04-.03c.14.14.28.21.41.19.06,0,.1-.02.14-.05.02.08.03.17-.04.22M18.09,12.26c.06-.02.11-.04.14-.07.05.04.09.07.13.09-.01.11,0,.2.02.27h-.05c-.1.01-.2.02-.27-.03-.05-.04-.07-.12-.07-.24l.09-.02ZM17.61,12.04c.18,0,.29-.04.36-.12l.02-.03c.05.02.11.04.17.06,0,.05.02.15.02.17,0,.01-.04.04-.11.06-.13.03-.33.02-.44-.06l-.02-.08M17.25,12.12s.05-.03.1-.03l.02.02-.05.06.02.05-.1-.03v-.06M17.12,12.07l.03-.05s.04,0,.11.06l-.03.03-.02.06-.1-.05v-.04M17.11,11.94l.02.02v.05l-.05.07v.04s-.11-.08-.11-.08c.01-.04.02-.08.13-.1M17.07,11.86l.02.06c-.09.02-.11.06-.13.09l-.05-.09.06-.07h.1ZM17.11,11.76l.03.03-.06.05h-.1s.01-.05.01-.05c.02-.02.06-.03.11-.03M17.05,11.63l.07.04-.02.02-.02.04h-.05l-.07-.06h.01s.07-.05.07-.05M16.96,11.5l.08.03v.08s-.01,0-.01,0l-.1-.04-.02-.07h.03s.02,0,.02,0ZM16.98,11.24s.06,0,.15.06l-.04.04v.08c-.06-.01-.11-.03-.15-.04v-.06s.04-.07.04-.07M17.16,11.08c-.06.03-.11.08-.11.14h-.04v-.14s.08-.05.16-.05l.02.05h-.01M17.31,11.14l-.05.11h0s-.08.03-.08.03l-.08-.05s.04-.09.09-.12c.03-.01.08-.03.12.02M17.33,10.95s.03.08.05.13l-.04.03-.11-.04c-.02-.05-.03-.08-.02-.1l.08-.04h.02s.02.03.02.03M17.51,10.66h.07c0,.06-.02.11-.05.12l-.15-.05c-.02-.05-.04-.1-.05-.14.03.02.07.03.11.02l.07.05M17.66,10.59c-.06.04-.1.06-.15.04l-.05-.03.1-.08h.11s-.01.07-.01.07M17.71,10.78h-.13s.02-.07.02-.11l.06-.03.05.04h.04c0,.06-.02.09-.05.11M17.79,10.87s-.04-.03-.04-.08c.02-.02.04-.06.05-.11h.1c-.03.06-.07.13-.11.18M17.62,11.48h.03c.1.07.18.1.25.09.04.12.06.24,0,.32-.05.06-.15.09-.3.09-.03-.17-.03-.34.02-.5M17.14,11.52c.13.04.27.06.33.06.04-.08.02-.29-.02-.46l.04.07c.05.07.1.06.14.01-.11.21-.16.42-.16.64-.06-.15-.18-.24-.33-.31M17.31,11.96l.09.03-.05.08h0s-.06.02-.06.02l-.06-.05s.04-.07.08-.08M17.19,11.92s.07-.03.12-.02v.04s-.01,0-.01,0c-.05.02-.09.06-.1.1h-.03v-.11M17.23,11.79l.08.06h0c-.07,0-.11.01-.14.05l-.02.04-.04-.06s.07-.07.14-.08M17.43,11.82v.03s.04.1.04.1l-.04.02-.08-.04v-.08l.07-.02h.02M17.41,11.8l-.08.03-.07-.08.05-.08s.08.08.11.12h0M17.27,11.64l.02.02-.06.09h0s-.05.03-.05.03l-.04-.04.02-.04s.07-.07.12-.07M17.23,11.61l-.07.04-.08-.05v-.07s.09.05.14.08M17.3,11.31l-.06.08.04.06s-.08-.01-.13-.02v-.07s.06-.05.12-.06l.03.02M17.42,11.26l-.09.04-.03-.02h0c.02-.07.04-.14.09-.16,0,.05.02.09.03.14M17.4,11.47h-.04c-.05-.02-.09-.05-.09-.06,0-.02.02-.06.15-.11,0,.08,0,.14-.01.18M17.53,10.96h-.06s-.06-.11-.06-.11l-.02-.03s.1.05.14.02l.02-.02h.03s.05.01.05.01c-.03.07-.07.12-.12.13M17.65,11.07c-.05.06-.08.08-.13,0l-.04-.07h.04l.04-.02.05.08h.03ZM17.64,11.03l-.03-.08.07-.11h.03s.05.08.05.08l-.06.08-.02.02h-.05M17.46,12.13c0,.06-.01.11-.03.14h-.03l-.07-.06s.02-.04.13-.07M17.39,12.13l-.02-.02h0s.08-.12.08-.12v.11s-.07.02-.07.02M18.08,11.06c.11-.02.22-.06.31-.1l.04-.02c.06.05.11.07.17.09,0,.09.02.16.03.22-.06.07-.25.09-.4.04-.08-.03-.2-.09-.15-.24M18.08,11.31c-.08.12-.13.18-.18.19-.05.02-.12-.02-.22-.07l-.05-.02.04-.09c.04-.08.11-.18.19-.28.04.02.08.03.13.03-.02.1,0,.19.09.25M17.05,10.92l.11.07v.02c-.08,0-.15.02-.17.06l-.02.05-.07-.07s.08-.1.16-.13M16.82,10.71l-.03-.08c.07.02.14.04.21.07l-.08.06-.11-.05M16.92,10.83s.08-.1.14-.11l.03.02s-.06.09-.06.13v.02l-.07.03-.06-.04v-.05M17.29,12.3c.07.03.14.05.17.05.02-.03.03-.08.04-.14.03.16.09.32.16.48-.12-.16-.25-.28-.37-.38M17.34,12.63h0c.07.07.13.16.19.25.02.04.06.09.08.14.01.09,0,.16-.03.21-.07.08-.24.11-.42.11l.03-.12.02-.08.07-.03c.14-.1.09-.34.07-.49M18.73,12.21s-.07.05-.12.05c-.1.02-.22-.03-.33-.13,0-.04,0-.09-.01-.14.09.01.18.02.26,0,.06.1.12.18.2.22M16.68,10.43c-.09-.03-.2-.08-.3-.13l.12-.07c.05.05.1.08.15.08.04.06.04.09.03.12M16.1,10.47s-.07.02-.22-.04c.07-.07.14-.11.18-.12l.03.04c.02.06.02.12,0,.13M19.15,10.47c.09.04.12.07.11.08l-.07.05h-.03s-.02-.08,0-.14M19.16,10.33l.07.11h0s-.03.03-.03.03l-.07-.03.02-.11M19.2,10.21l.02-.03h.02s.06.04.06.04l-.02.08-.08.03-.03-.02.03-.1M19.3,10.34l.08.09-.07.04-.06-.02h0s-.04-.1-.04-.1l.09-.02M19.32,10.27c.06,0,.1.01.12.04v.09h0s-.03.02-.03.02c0-.04-.04-.08-.09-.1h-.01s.01-.04.01-.04M19.41,10.18c.06.02.12.06.12.1l-.05.05-.02-.04s-.07-.05-.14-.05h0s.08-.06.08-.06M19.53,10.17c.05,0,.08.02.1.04v.04s-.09,0-.09,0l-.05-.06.04-.03ZM19.71,10.12l.06.09-.05.1-.05-.06v-.06s-.05-.03-.05-.03l.09-.04M19.63,10.43s-.03-.07-.11-.11l.02-.05h.1l.05.07-.07.08M19.49,10.53v-.04s-.04-.08-.04-.08v-.05s.04-.01.04-.01c.1.03.11.07.11.11l-.11.07M19.47,10.54l-.1.03v-.06s-.04-.03-.04-.03c.07-.05.1-.05.11-.05l.02.06v.05M19.33,10.58l-.1.02.03-.04-.05-.07h.02s.08,0,.09.03v.06ZM18.99,10.24l-.04-.05h.03l.03-.02.04.06h.03s-.05.06-.1,0M19.87,10.42v-.08l.08-.04.02.02v.1s-.07.04-.07.04l-.03-.03v-.02ZM19.89,10.13l.07.05-.02.09-.07.04c0-.06,0-.12.02-.18M19.98,10.2h.03s.05,0,.05,0l.02.05-.04.08h-.01s-.07-.06-.07-.06l.02-.08M20.11,10.14l.08.04.02.1h-.04s-.06-.04-.08-.09l.02-.05M18.91,13.11h.01s.08-.01.08-.01l-.03-.03.08-.06v-.17l-.03.02.03-.05v-.54c-.04.09-.1.19-.17.3-.11.05-.29.13-.38.08-.06-.04-.08-.14-.08-.29.07.02.12.02.16,0,.08-.01.15-.05.18-.09.1.03.19,0,.26-.01v-.08c-.07.03-.15.05-.24.02-.09-.03-.17-.1-.24-.22h0s.07-.09.08-.16c.17.08.29.08.38.07v-.08c-.09.02-.21,0-.39-.08l-.02-.09s.08-.09.11-.13h0s0,0,0,0c.09.04.19-.03.28-.08l.03-.02v-.1s-.08.06-.08.06c-.07.05-.14.09-.19.08-.04-.02-.09-.09-.12-.35.06,0,.1,0,.14,0,.08-.02.14-.06.17-.1.04.08.08.16.1.22.03-.13.06-.23.11-.32-.02-.05-.05-.1-.08-.16.08,0,.22-.04.31-.07.08-.05.19-.09.32-.12l-.05-.06s.07-.1.11-.18c0,.07,0,.14,0,.22.05,0,.09-.01.14-.02h0s0,0,0,0h.03s-.01-.08,0-.12h.04s.02.02.02.02v.02s.12.05.12.05h-.03c.06.01.11,0,.17,0v-.1l-.1.07-.12-.03s0-.06.03-.1l.05.03h.07l.08.03v-.03l-.06-.03s-.03-.06-.03-.1l.05-.04.04.04v-.04l-.02-.03v-.02s-.03,0-.03,0l-.05.06-.12-.06h-.04l.03.03-.02.06h-.04l-.12-.08h0s-.11,0-.11,0l-.02.06v.03s-.08-.08-.08-.08h-.03s-.03,0-.03,0h0s0,.01,0,.01l-.07.05h-.05s-.01-.05-.01-.05h0s-.03-.01-.03-.01v.02s.02.04.02.04l-.05.03-.05-.02h0s0-.07,0-.07h-.03v.05s-.07.07-.07.07l-.07-.04h-.01l.08-.08h-.05l-.04.04.02-.04h-.09l.03.02-.04.07v.02s-.05,0-.05,0l-.03-.06.03-.06h-.03l-.06.08h-.05l-.05-.08h-.1l.05.08c.04.06.1.14.13.18.07.08.12,0,.16-.07-.03.08-.05.2-.06.29-.11-.21-.23-.4-.32-.49h-.07c-.21.08-.52.38-.77.68.05-.1.08-.2.09-.31.1.1.22-.06.31-.17.05-.07.1-.14.16-.2h-.12l-.04.05-.02.03h-.07s-.04-.08-.04-.08h-.39l.02.03-.08-.03h-.07,0s.12.06.12.06c0,.07-.05.09-.08.09-.06.02-.15,0-.17-.03l.03-.09.07-.03h-.22l.05.03h.06c-.03.12-.05.15-.08.15l-.07-.04-.05-.04.06-.1h-.11l-.03.06-.02.06v-.04s-.02-.08-.02-.08h-.16v.02s.02.1.03.17l-.06.06c-.06.02-.15,0-.25-.06l.05-.05.03-.03h.04c.06,0,.1-.06.13-.11h-.06l-.08.06s-.08-.01-.13-.06h-.07l.11.09-.02.02s-.08.08-.13.08c-.04,0-.08-.02-.14-.08l.03-.04.03-.07h-.05l-.02.05c-.04.06-.13.13-.22.14l-.04-.03c.06-.06.09-.1.1-.16h-.05s-.03.08-.09.13c-.05-.04-.1-.08-.15-.13h-.08l.08.09c-.09.05-.22.16-.32.28h.08s.02.01.02.01c.1,0,.19.02.26.04l.03-.08.05.09c.06.01.1.03.14.05h0c-.04-.09-.08-.19-.13-.28.13.09.29.17.46.24l-.09-.02c-.1-.02-.25-.06-.24.07.05.02.09.06.14.09v-.02c-.02-.09.02-.09.09-.08l-.02.02.02.09-.05.02h0s.02.03.02.03c.04-.02.1,0,.17.02l-.03.04-.02.02h-.05s.02.04.02.04h.02s.07,0,.12.05l-.05.04-.02.08v.03s.02,0,.02,0c.03-.02.07-.02.14,0l.03.07c-.11.04-.14.09-.15.14v.12s.07.04.07.04h-.06v.28c.03.18.08.29.15.37-.05-.02-.1-.04-.15-.06v.16l.08.04s.03.1.03.11c.01.08.03.2-.04.3l-.08.07v.1l.08-.05s.03.08.02.13c0,.06-.05.13-.11.18l-.02.12.09-.07c.12.05.21.07.29.07v.05c-.03.1-.05.2-.13.24-.06.03-.16.03-.28,0v-.1s0-.09,0-.09c-.02.08-.06.15-.1.21-.02.06-.05.14-.09.19h-.11c-.14.09-.32.16-.55.19.28.07.6.08.94.06-.27.1-.49.21-.66.33,1.12-.03,1.75-.8,2.76-1.12l.03-.02"/>
    <path d="M7.75,25.44l-.09-.63c-.02-.12-.03-.2-.03-.25-.01.04-.03.1-.05.17l-.25.71h-.14l-.24-.66c-.03-.07-.06-.15-.07-.22,0,.08-.01.17-.03.26l-.08.61h-.13l.15-1.01h.16l.25.69c.03.08.05.14.06.2.01-.07.03-.11.06-.18l.25-.7h.16l.16,1.01h-.14Z"/>
    <path d="M8.42,25.45c-.22,0-.34-.1-.34-.28v-.51h.12v.5c0,.14.08.2.23.2.17,0,.23-.09.23-.22v-.48h.12v.49c0,.17-.1.31-.36.31"/>
    <path d="M9.59,25.44l-.34-.49c-.04-.05-.07-.11-.09-.15,0,.05,0,.11,0,.2v.44h-.12v-.78h.16l.33.48s.07.1.1.16c0-.05,0-.15,0-.27v-.37h.12v.78h-.16,0Z"/>
  </g>
  <rect x="10.01" y="24.66" width=".12" height=".78"/>
  <g class="cls-2">
    <path d="M10.74,25.45c-.26,0-.4-.15-.4-.39s.13-.41.43-.41c.06,0,.13,0,.19.02v.1c-.07-.02-.14-.03-.2-.03-.2,0-.29.14-.29.31,0,.19.1.3.3.3.07,0,.14-.02.19-.04v.1c-.06.02-.14.04-.23.04"/>
  </g>
  <path d="M11.15,25.44h.12v-.78h-.12v.78ZM11.15,24.51h0s.06.06.06.06l.22-.15-.07-.08-.21.17Z"/>
  <g class="cls-4">
    <path d="M11.76,24.75h-.1v.32h.08c.13,0,.21-.05.21-.16,0-.09-.07-.16-.2-.16M11.75,25.16h-.08v.28h-.12v-.78h.24c.19,0,.31.09.31.24,0,.17-.14.27-.34.27"/>
  </g>
  <rect x="12.27" y="24.66" width=".12" height=".78"/>
  <g class="cls-3">
    <path d="M12.99,24.75c-.15,0-.27.11-.27.3,0,.17.07.31.26.31.16,0,.28-.1.28-.3s-.1-.31-.27-.31M12.98,25.45c-.27,0-.39-.17-.39-.39,0-.26.19-.41.41-.41.25,0,.39.14.39.39s-.18.41-.41.41"/>
    <path d="M14.23,24.75h-.13v.6h.12c.2,0,.34-.09.34-.3s-.11-.3-.34-.3M14.21,25.44h-.23v-.78h.26c.27,0,.44.11.44.39s-.21.4-.49.4"/>
  </g>
  <polygon points="14.89 24.66 14.89 25.44 15.34 25.44 15.34 25.35 15.01 25.35 15.01 25.08 15.33 25.08 15.33 25 15.01 25 15.01 24.75 15.34 24.75 15.34 24.66 14.89 24.66"/>
  <g>
    <path d="M16.72,24.57c-.09-.03-.19-.05-.29-.05-.23,0-.43.14-.43.43,0,.27.17.42.42.42.08,0,.15,0,.21-.03v-.4h.12v.47c-.11.04-.24.06-.35.06-.32,0-.53-.18-.53-.5s.22-.54.57-.54c.1,0,.19.02.29.04l-.02.11h0Z"/>
    <path d="M17.34,24.75c-.15,0-.27.11-.27.3,0,.17.07.31.26.31.16,0,.28-.1.28-.3s-.1-.31-.27-.31M17.32,25.45c-.27,0-.39-.17-.39-.39,0-.26.19-.41.41-.41.25,0,.39.14.39.39s-.18.41-.41.41"/>
    <path d="M18.49,25.44l-.34-.49c-.04-.05-.07-.11-.09-.16,0,.05,0,.11,0,.2v.44h-.12v-.78h.16l.33.48s.07.1.1.16c0-.05,0-.15,0-.27v-.37h.12v.78h-.16Z"/>
    <path d="M19.17,24.75h-.13v.6h.12c.2,0,.34-.09.34-.3s-.11-.3-.33-.3M19.14,25.45h-.22v-.78h.26c.27,0,.44.11.44.39s-.21.4-.48.4"/>
    <path d="M20.18,24.75c-.15,0-.27.11-.27.3,0,.17.07.31.26.31.16,0,.28-.1.28-.3s-.1-.31-.27-.31M20.16,25.45c-.27,0-.39-.17-.39-.39,0-.26.19-.41.41-.41.25,0,.39.14.39.39s-.18.41-.41.41"/>
    <path d="M21.62,25.44l-.07-.46c-.01-.09-.02-.15-.02-.19,0,.03-.02.08-.04.13l-.19.52h-.13l-.17-.48c-.02-.06-.05-.12-.05-.17,0,.06,0,.12-.02.2l-.06.45h-.12l.12-.78h.15l.18.5c.02.05.04.1.05.15.01-.05.02-.09.04-.14l.19-.51h.16l.12.78h-.13Z"/>
    <path d="M22.34,24.91s-.04-.1-.05-.14c0,.04-.03.09-.05.14l-.11.27h.32l-.11-.27ZM22.55,25.44l-.07-.17h-.39l-.07.17h-.12l.33-.78h.14l.32.78h-.14,0Z"/>
    <path d="M23.06,24.75h-.09v.26h.09c.11,0,.18-.06.18-.14s-.07-.13-.18-.13M23.27,25.44l-.29-.34v.34h-.12v-.78h.23c.19,0,.29.07.29.2s-.11.22-.27.23l.08.08.24.27h-.16Z"/>
  </g>
</svg>