<?xml version="1.0" encoding="UTF-8"?>
<svg id="Layer_1" data-name="Layer 1" xmlns="http://www.w3.org/2000/svg" viewBox="0 0 17.39 22.68">
  <defs>
    <style>
      .cls-1 {
        fill: #231f20;
      }
    </style>
  </defs>
  <path class="cls-1" d="M15.04,4.37h-4.5c-.72,0-1.31.59-1.31,1.31v1.95h-3.26v.3h3.26v2.26c0,.56-.45,1.01-1.01,1.01H3.72c-.56,0-1.01-.45-1.01-1.01v-4.5c0-.56.45-1.01,1.01-1.01h4.5v-.3H3.72c-.72,0-1.31.59-1.31,1.31v11.32c0,.72.59,1.31,1.31,1.31h4.5v-.3H3.72c-.56,0-1.01-.45-1.01-1.01v-6c.24.29.61.48,1.01.48h4.5c.72,0,1.31-.59,1.31-1.31v-2.26h6.53v3.75c-.24-.29-.61-.48-1.01-.48h-4.5c-.72,0-1.31.59-1.31,1.31v7.91h.3v-2.58c.24.29.61.48,1.01.48h4.5c.72,0,1.31-.59,1.31-1.31V5.68c0-.72-.59-1.31-1.31-1.31ZM16.05,17c0,.56-.45,1.01-1.01,1.01h-4.5c-.56,0-1.01-.45-1.01-1.01v-4.5c0-.56.45-1.01,1.01-1.01h4.5c.56,0,1.01.45,1.01,1.01v4.5ZM16.05,7.63h-6.53v-1.95c0-.56.45-1.01,1.01-1.01h4.5c.56,0,1.01.45,1.01,1.01v1.95h0Z"/>
</svg>